<svg xmlns="http://www.w3.org/2000/svg" data-name="Layer 1" viewBox="0 0 100 90" x="0px" y="0px"><title>People</title><path d="M13.6,40.129H37.045a1.234,1.234,0,0,0,0-2.467H13.6a1.234,1.234,0,1,0,0,2.467Z"/><path d="M41.979,47.533H13.6A1.234,1.234,0,1,0,13.6,50H41.979a1.234,1.234,0,0,0,0-2.467Z"/><path d="M32.109,57.4H13.6a1.234,1.234,0,1,0,0,2.467H32.109a1.234,1.234,0,1,0,0-2.467Z"/><path d="M83.311,27.792H54.934a4.323,4.323,0,0,0-4.318,4.318V67.89a4.323,4.323,0,0,0,4.318,4.318H83.311a4.323,4.323,0,0,0,4.318-4.318V32.11A4.323,4.323,0,0,0,83.311,27.792ZM54.934,30.259H83.311a1.853,1.853,0,0,1,1.851,1.851V57.546L76.76,54.4A2.411,2.411,0,0,1,75.2,52.149v-.712A13.757,13.757,0,0,0,79.2,41.568a10.075,10.075,0,1,0-20.15,0,13.754,13.754,0,0,0,4,9.873v.707A2.413,2.413,0,0,1,61.487,54.4l-8.4,3.152V32.11A1.853,1.853,0,0,1,54.934,30.259Zm6.58,11.309a7.608,7.608,0,1,1,15.216,0c0,5.343-3.555,10.031-7.607,10.031S61.514,46.911,61.514,41.568Zm21.8,28.173H54.934a1.853,1.853,0,0,1-1.851-1.851V60.333a2.39,2.39,0,0,1,.664-.4l8.606-3.227a4.885,4.885,0,0,0,3.044-3.57,7.929,7.929,0,0,0,7.454,0,4.881,4.881,0,0,0,3.041,3.57L84.5,59.933a2.408,2.408,0,0,1,.664.4V67.89A1.853,1.853,0,0,1,83.311,69.741Z"/><path d="M90.1,17.922H9.9a7.411,7.411,0,0,0-7.4,7.4V74.676a7.41,7.41,0,0,0,7.4,7.4H90.1a7.41,7.41,0,0,0,7.4-7.4V25.325A7.411,7.411,0,0,0,90.1,17.922Zm4.935,56.754A4.941,4.941,0,0,1,90.1,79.611H9.9a4.941,4.941,0,0,1-4.935-4.935V25.325A4.941,4.941,0,0,1,9.9,20.389H90.1a4.941,4.941,0,0,1,4.935,4.936Z"/></svg>