<svg xmlns="http://www.w3.org/2000/svg" xmlns:xlink="http://www.w3.org/1999/xlink" width="418" height="231" viewBox="0 0 418 231"><defs><clipPath id="a"><rect width="418" height="231" transform="translate(0 0.05)" fill="#fff" stroke="#707070" stroke-width="1"/></clipPath><linearGradient id="b" y1="0.5" x2="1" y2="0.5" gradientUnits="objectBoundingBox"><stop offset="0" stop-color="gray" stop-opacity="0.251"/><stop offset="0.54" stop-color="gray" stop-opacity="0.122"/><stop offset="1" stop-color="gray" stop-opacity="0.102"/></linearGradient><linearGradient id="c" x1="-8.171" y1="1" x2="-8.171" y2="0" xlink:href="#b"/></defs><g transform="translate(0 -0.05)" clip-path="url(#a)"><g transform="translate(0.137 15.966)"><path d="M420.442,215.706a30.043,30.043,0,0,1-8.262,9.915c-.489.392-.988.769-1.494,1.139q-1.024.718-2.1,1.412a68.957,68.957,0,0,1-18.443,7.706q-2.6.718-5.22,1.351-2.209.535-4.422,1c-.56.122-1.121.237-1.681.359s-1.2.241-1.8.359l-.851.162c-16.46,3.036-33.136,3.614-49.934,2.852l-.8-.04-1.275-.065q-5.116-.266-10.242-.679l-1.293-.1-.571-.047q-2.874-.241-5.748-.528-3.786-.359-7.584-.794l-.327-.036-.266-.032h0c-9.035-1.017-18.091-2.238-27.158-3.492l-1.282-.18-2.3-.32-1.94-.269h0l-.575-.079q-4.591-.643-9.182-1.272l-.5-.068c-5.748-.787-11.528-1.545-17.29-2.234l-.751-.09h0q-3.538-.42-7.073-.8l-1.8-.19L225.9,230.4c-6.621-.657-13.238-1.182-19.841-1.509q-4.764-.237-9.549-.359-3.952-.09-7.9-.1-5.36-.025-10.741.061h-.812c-5.055.083-10.12.226-15.189.4l-.912.029h-.3c-10.777.381-21.554.887-32.3,1.25l-2.626.086h-.381q-5.6.18-11.2.277h-2.22l-1.667.022q-2.6.025-5.184.029h-2.116c-6.33-.018-12.634-.158-18.9-.485l-.7-.04a239.2,239.2,0,0,1-36.035-4.483q-1.836-.384-3.664-.8a168.272,168.272,0,0,1-24-7.3c-3.679-1.437-7.379-3.1-10.177-5.906-7.1-7.185-4.433-21.256,4.8-25.348,7.224-3.2,15.688-.6,23.458-2.04a11.989,11.989,0,0,0,1.412-.359,19.619,19.619,0,0,0,2.874-1.186c.316-.158.632-.327.952-.5a24.243,24.243,0,0,0,2.127-1.3,32.648,32.648,0,0,0,3.233-2.454q.683-.582,1.329-1.207a25.424,25.424,0,0,0,3.923-4.7,16.6,16.6,0,0,0,1.078-2.026,10.7,10.7,0,0,0,.445-1.121,10.44,10.44,0,0,0,.427-1.66,7.681,7.681,0,0,0-2.831-7.465,7.529,7.529,0,0,0-.718-.542,10.978,10.978,0,0,0-1.559-.9c-.219-.1-.445-.2-.675-.3-3.283-1.383-7.519-1.915-11.09-2.874h0a19.58,19.58,0,0,1-3.176-1.1c-.65-.3-1.3-.618-1.933-.948h0l-.169-.093h0a43.249,43.249,0,0,1-14.01-11.5,37.45,37.45,0,0,1-2.608-3.786c-.241-.4-.474-.8-.7-1.207-6.312-11.388-6.962-25.98-.4-37.178a35.178,35.178,0,0,1,2.658-3.9q.474-.614.981-1.207c6.251-7.375,15.232-12.372,24.3-16.072a171,171,0,0,1,37.9-10.166q3.952-.629,7.9-1.128c11.029-1.408,22.187-2.155,33.266-2.723q15.544-.787,31.225-1.017,5.313-.072,10.637-.061,11.995,0,23.99.463,3.952.151,7.9.359,10.134.524,20.229,1.437,4.85.438,9.678.966a396.976,396.976,0,0,1,72,14.291q3.97,1.2,7.9,2.515a305.212,305.212,0,0,1,28.879,11.162q1.336.6,2.666,1.207,8.834,4.052,17.416,8.733a193.686,193.686,0,0,1,21.77,13.651q4.067,2.982,7.9,6.222a113.672,113.672,0,0,1,12.613,12.444q.517.6,1.024,1.207,2.63,3.158,4.993,6.542c7.688,11.05,12.846,23.688,16.654,36.6C423.535,192.557,425.77,205.206,420.442,215.706Z" transform="translate(-5.448 -50.065)" fill="#fefefe" opacity="0.3"/><path d="M413.955,177.171h-30.69V138.132h13.651q-.507-.607-1.024-1.207H383.28V124.481q-3.83-3.233-7.9-6.222v18.68H304.624V95.872h31.545q-1.333-.607-2.666-1.207H304.624V83.5q-3.952-1.3-7.9-2.515V94.639H195.746l-.241-.23,29.21-27.726q-4.828-.532-9.678-.966l-20.229,19.2V64.294q-3.952-.208-7.9-.359V86.24l-23.99-22.769q-5.32,0-10.637.061l32.533,30.877-.241.23H87.781V67.312q-3.952.5-7.9,1.128V94.664H17.671q-.507.593-.981,1.207H79.87v41.054H14.413c.223.406.456.812.7,1.207H79.87v39.039H48.016q-.647.625-1.329,1.207H79.87v39.947q3.952.564,7.9,1.178V178.378H186.9v50.053q3.952,0,7.9.1V178.378H296.714v61.275l.327.036q3.794.424,7.584.794V178.378h70.731v60.553c.6-.111,1.207-.23,1.8-.359s1.121-.226,1.681-.359q2.213-.471,4.422-1V178.378h30.938Zm-227.057,0H87.781V138.132H186.9Zm0-40.235H87.781V95.872h97.713l1.394,1.1Zm109.816,40.235H194.809V138.132H296.714Zm0-40.235H194.809V95.872H296.714Zm78.641,40.235H304.624V138.132h70.731Z" transform="translate(-3.792 -50.069)" opacity="0.1"/><path d="M95.573,205.975a.512.512,0,0,1-.04.119h0a.317.317,0,0,1,.043-.119Z" transform="translate(11.187 -23.754)" fill="#eaecf0"/><path d="M97.971,206.983h-2.22L94.084,207l-.183-1.893-.169-1.8-.783-8.194-.025-.251v-.111l-.219-2.306,3.355-1.257.41,3.345.029.248v.029l.83,6.79.255,2.084.147,1.211.126,1.038v.036Z" transform="translate(10.665 -26.484)" fill="#eaecf0"/><path d="M101.913,153.8l.04.119h-.266l-.04-.119Z" transform="translate(18.768 28.412)" fill="#3a3768"/><path d="M133.245,206.069Z" transform="translate(18.151 -23.737)" fill="#3a3768"/><path d="M161.382,166.652v.154a92.445,92.445,0,0,0-4.153,15.868q-.1.718-.172,1.437c-.05.507-.09,1-.111,1.484-.029.564-.036,1.11-.022,1.631v.359c0,.241.025.489.039.744s.036.51.057.776.043.5.068.754a165.982,165.982,0,0,0,3.707,19.474s.1.313.223.844h-.812c-5.054.083-10.12.226-15.189.4l-.912.029h-.3c-10.777.381-21.554.887-32.3,1.25l-2.626.086H108.5q-5.6.18-11.2.277H96.31a6.052,6.052,0,0,1,.869-.981,6.325,6.325,0,0,1,.88-.683,19.808,19.808,0,0,1,5.514-2.367,4.4,4.4,0,0,1,1.261-.155l2.515.05h.388l3.858.075,33.093.657h.083l.233-.047a6.2,6.2,0,0,0,1.117-.4,3.923,3.923,0,0,0,2.357-3.046c0-.111.029-.23.036-.359a4.239,4.239,0,0,0,0-.525,1.783,1.783,0,0,0-.029-.384c-.029-.133-.036-.266-.061-.4-.8-4.458-2.155-18.181-2.155-18.181v.043s0-.586.032-1.57V183.5c0-.219.025-.456.039-.718,0-.154.022-.313.032-.478.018-.241.04-.489.061-.747a.211.211,0,0,1,0-.047q.022-.244.043-.5v-.054c.535-5.3,2.22-13.687,7.544-16.794,2.5-1.462,4.149-1.757,5.238-1.469,1.588.417,1.987,2.069,2.073,3.143v.208A5.254,5.254,0,0,1,161.382,166.652Z" transform="translate(11.33 -31.765)" fill="#3a3768"/><path d="M95.573,205.975a.512.512,0,0,1-.04.119h0a.317.317,0,0,1,.043-.119Z" transform="translate(11.187 -23.754)" opacity="0.1"/><path d="M101.913,153.8l.04.119h-.266l-.04-.119Z" transform="translate(18.768 28.412)" opacity="0.1"/><path d="M133.245,206.069Z" transform="translate(18.151 -23.737)" opacity="0.1"/><path d="M161.386,166.673v.111a97.769,97.769,0,0,0-3.815,13.827h0q-.129.718-.237,1.39c-.036.23-.068.46-.1.69q-.1.718-.172,1.437c-.05.507-.09,1-.111,1.484-.029.564-.036,1.11-.022,1.631v.359c0,.241.025.489.039.744s.036.514.057.776.043.5.068.754.05.5.079.751c.115,1.017.259,2.084.424,3.168,1.124,7.318,3.2,15.516,3.2,15.516s.1.331.23.884h-.812c-5.054.083-10.12.226-15.189.4l-.912.029h-.3c-10.777.381-21.554.887-32.3,1.25l-2.626.086h-.381q-5.6.18-11.2.277h-1.02a6.171,6.171,0,0,1,.9-1.017,5.948,5.948,0,0,1,.884-.69,20.024,20.024,0,0,1,5.514-2.367,4.524,4.524,0,0,1,1.261-.151l2.515.05h.388l3.869.075,33.118.654h.057a.911.911,0,0,0,.259-.054,5.8,5.8,0,0,0,1.124-.406,3.919,3.919,0,0,0,2.324-2.985c0-.111.029-.23.036-.359a4.236,4.236,0,0,0,0-.525,1.781,1.781,0,0,0-.029-.384c-.029-.133-.036-.291-.061-.442-.8-4.458-2.155-18.181-2.155-18.181s0-.586.032-1.57v-.453c0-.219.025-.456.04-.718,0-.154.022-.313.032-.478.018-.241.04-.489.061-.747a.212.212,0,0,1,0-.047q.022-.244.043-.5v-.054c.065-.661.151-1.372.259-2.116.747-5.2,2.615-12,7.271-14.729,2.432-1.437,4.059-1.739,5.151-1.491,1.681.384,2.08,2.116,2.155,3.208v.208A5.245,5.245,0,0,1,161.386,166.673Z" transform="translate(11.327 -31.786)" opacity="0.1"/><path d="M95.573,205.975a.512.512,0,0,1-.04.119h0a.317.317,0,0,1,.043-.119Z" transform="translate(11.187 -23.754)" fill="#3a3768"/><path d="M101.913,153.8l.04.119h-.266l-.04-.119Z" transform="translate(18.768 28.412)" fill="#3a3768"/><path d="M133.245,206.069Z" transform="translate(18.151 -23.737)" fill="#3a3768"/><path d="M160.654,166.413s-4.688,12.81-4.462,20.477,3.887,22.072,3.887,22.072.158.507.327,1.315c-5.054.083-10.12.226-15.189.4l-.912.029H144c-10.777.381-21.554.887-32.3,1.25l-2.626.086h-.381q-5.6.18-11.2.277h-2.22a6.466,6.466,0,0,1,1.972-2.073l.1-.068a20,20,0,0,1,5.511-2.317,4.523,4.523,0,0,1,1.261-.151l3.319.065h.388l4,.079,32.242.643a5.42,5.42,0,0,0,1.333-.435,3.823,3.823,0,0,0,.41-.219h0a4.311,4.311,0,0,0,1.078-.88,4.069,4.069,0,0,0,.83-3.592c-.8-4.458-2.155-18.181-2.155-18.181s-.23-16.7,7.774-21.385c3.233-1.893,5.051-1.829,6.068-1.078a.678.678,0,0,1,.086.065C160.887,163.916,160.654,166.413,160.654,166.413Z" transform="translate(11.14 -31.831)" fill="#3a3768"/><path d="M42.282,192.491l-.129,1.34-.783,8.223q-1.836-.384-3.664-.8l.916-7.476.309-2.54Z" transform="translate(0.509 -26.476)" fill="#eaecf0"/><path d="M16.715,144.375l19.564-41.639,78.806,6.147,7.264,35.493Z" transform="translate(3.085 18.982)" fill="#efc6cd"/><path d="M16.715,141.516v-3.632H122.349v5.31Z" transform="translate(3.085 25.472)" fill="#d48a9b"/><path d="M47.428,188.094l47.261.963a.654.654,0,0,0,.636-.859l-7.368-19.873-31.832-.607L46.71,186.994a.783.783,0,0,0,.718,1.1Z" transform="translate(2.159 -30.819)" fill="#dfe6f5"/><path d="M47.428,188.094l47.261.963a.654.654,0,0,0,.636-.859l-7.368-19.873-31.832-.607L46.71,186.994a.783.783,0,0,0,.718,1.1Z" transform="translate(2.159 -30.819)" opacity="0.15"/><path d="M46.984,187.389l47.75,1.006-6.491-19.661a1.62,1.62,0,0,0-1.505-1.114l-30.686-.582Z" transform="translate(2.222 -30.944)" fill="#dfe6f5"/><path d="M50.335,182.561l5.723-12.591a1.527,1.527,0,0,1,1.387-.891H71.667a1.52,1.52,0,0,1,1.52,1.52v13.6a1.523,1.523,0,0,1-1.6,1.52l-19.949-1.017a1.52,1.52,0,0,1-1.308-2.145Z" transform="translate(2.816 -30.567)" fill="#4c4c56"/><path d="M73.991,180.4l.244-7.185a1.1,1.1,0,0,1,1.1-1.078h4.2a1.1,1.1,0,0,1,1.078.912l1.236,7.145a1.1,1.1,0,0,1-1.078,1.29l-5.687.05a1.1,1.1,0,0,1-1.1-1.135Z" transform="translate(7.209 -30.002)" fill="#d1d9ec"/><path d="M27.255,139.875,43.1,138.553a1.078,1.078,0,0,1,1.128.636L59.213,173.1,50.85,191.879c.262-.589.456,3.995-1.437.022L25.6,142.221C25.279,141.556,26.511,139.969,27.255,139.875Z" transform="translate(-1.736 -36.206)" fill="#4c4c56"/><path d="M27.255,139.875,43.1,138.553a1.078,1.078,0,0,1,1.128.636L59.213,173.1,50.85,191.879c.262-.589.456,3.995-1.437.022L25.6,142.221C25.279,141.556,26.511,139.969,27.255,139.875Z" transform="translate(-1.736 -36.206)" opacity="0.15"/><path d="M27.138,140l16.651-2.127a1.078,1.078,0,0,1,1.128.636L59.9,172.425l-9.067,20.351-24.55-51.235A1.078,1.078,0,0,1,27.138,140Z" transform="translate(-1.62 -36.331)" fill="#4c4c56"/><path d="M30.641,141.975,42.679,140.1a1.078,1.078,0,0,1,1.168.661l12.609,30.844a.977.977,0,0,1-.022.79l-5.773,12.063a.974.974,0,0,1-1.764,0L29.825,143.506a1.078,1.078,0,0,1,.815-1.53Z" transform="translate(-0.966 -35.921)"/><path d="M133.245,206.069Z" transform="translate(18.151 -23.737)" fill="#fff"/><path d="M154.11,215.365s-.248.41-.611,1.078l-.032.061c-.323.575-.718,1.329-1.121,2.155l-.912.029h-.3c-10.777.381-21.554.887-32.3,1.25l-2.626.086h-.381q-5.6.18-11.2.277H102.4l-1.667.022q-2.6.025-5.184.029H93.5c-6.33-.018-12.634-.158-18.9-.485l-.7-.04c1.232-2.68,3.434-7.073,5.223-8.478,1.383-1.078,11.316-2.274,20.451-3.151l.963-.093h.022l2.551-.237c3.5-.32,6.667-.578,8.931-.754l.208-.018-1.178-3.952-1.706-5.748.485-4.828.04-.388h-.054A3.172,3.172,0,0,1,108.4,192l-17.06-.589h-.309l-6.553-.234h0c-3.513-.126-6.01-.219-6.107-.237a1.55,1.55,0,0,1-.3-.083,1.357,1.357,0,0,1-.417-.251,1.666,1.666,0,0,1-.359-.431h-.23l-.927.061-.471.032c-.018-.05-.032-.1-.05-.147-.043-.14-.086-.273-.126-.41h-.248l-3.233-.068h-.057s-8.342.636-12.7-.952h0c-1.6-.582-2.662-1.462-2.579-2.781a3.007,3.007,0,0,1,.187-.877c-1.4-2.619,5.442-7.4,10.659-6.078a9.232,9.232,0,0,0,4.332.18,5.575,5.575,0,0,0,2.155-.981c.065-.047.122-.093.176-.14-.086-.054-.176-.1-.259-.144a4.015,4.015,0,0,0-1.139-.4l1.415-.413h.022s5.029-.46,8.3-.643h.022c.974-.05,1.8-.083,2.285-.068,2.155.061,6.355-1.48,6.535-1.954s2.1,0,2.1,0l1.678-.654c1.678-.65,2.637-1.538,2.637-2.191s1.5-1.361,1.5-1.361a14.165,14.165,0,0,1,3.391-3.431c1.2-.93,2.454-1.76,3.38-2.339a68.162,68.162,0,0,1,1.437-6.912A9.01,9.01,0,0,1,110.8,153.3l.259-.172a18.626,18.626,0,0,0-.79-2.63,2.029,2.029,0,0,0-.086-.216c-.072-.169-.147-.334-.223-.489l-.111-.216c-.183.036-.359.068-.553.093a12.569,12.569,0,0,1-1.8.133,12.326,12.326,0,0,1-11.909-8.981s0,0,0-.022a12.164,12.164,0,0,1-.431-3.233,11.826,11.826,0,0,1,.41-3.1h0c.054-.216.119-.427.187-.639a.571.571,0,0,1,.025-.072c.032-.1.065-.2.1-.295a12.632,12.632,0,0,1-1.606.14h-.359a7.6,7.6,0,0,1-3.007-.5h0a4.081,4.081,0,0,1-.665-.359.086.086,0,0,1-.029-.022,3.37,3.37,0,0,1-.74-.586,3.808,3.808,0,0,0,1.462-2.543,4.687,4.687,0,0,1,.431-2.274,3.261,3.261,0,0,1,.841-.718,53.652,53.652,0,0,0,5.155-4.634,10.071,10.071,0,0,1,6.143-2.946c3.118-.1,5.863,2.073,8.952,2.482a24.244,24.244,0,0,1,2.849.32,9.807,9.807,0,0,1,2.892,1.466,7.26,7.26,0,0,1,2.062,1.753,6.182,6.182,0,0,1,.841,2.008,22.208,22.208,0,0,1,.718,4.6c.083,1.627,0,3.266.172,4.882a8.374,8.374,0,0,0,1.379,3.926h.047a5.391,5.391,0,0,0,.445.546c-.305.1-.611.183-.923.259a14.58,14.58,0,0,1-1.577.313,4.6,4.6,0,0,1-.736.061,2.2,2.2,0,0,1-.51-.047l.316.212.877.589h0l.331.219.665.442c.151-.442.359-.56.6-.532.489-.46,1.218.535,1.218.535a7.21,7.21,0,0,0,2.594,2.238,20.489,20.489,0,0,0,1.843.963c13.425,8,12.573,19.97,13.364,20.918s.841,4.383.841,4.383,1.979,11.672,2.874,12.681.057,1.362.837,2.49.6,4.146.6,4.146.539,7.109,2.457,8.65c1.721,1.383,4.02,13.019,4.476,15.4Z" transform="translate(4.011 -39.812)" fill="url(#b)"/><path d="M75.272,168.736s-1.864,2.935-7.145,1.584-12.268,3.758-10.274,6.279,14.851-.718,14.851-.718l4.932-1-.323-4.106Z" transform="translate(4.165 -30.631)" fill="#d38884"/><path d="M75.272,168.736s-1.864,2.935-7.145,1.584-12.268,3.758-10.274,6.279,14.851-.718,14.851-.718l4.932-1-.323-4.106Z" transform="translate(4.165 -30.631)" opacity="0.1"/><path d="M74.528,168.621,72.24,168.5l-1.408.41s4.462.647,3.233,6.693l4.81-.291Z" transform="translate(6.626 -30.674)" fill="#a36468"/><path d="M74.528,168.621,72.24,168.5l-1.408.41s4.462.647,3.233,6.693l4.81-.291Z" transform="translate(6.626 -30.674)" opacity="0.1"/><path d="M104.6,157.189s-6.28,3.592-8.043,6.578c0,0-1.466.718-1.466,1.351s-.941,1.523-2.583,2.155l-1.645.647s-1.879-.471-2.055,0-4.282,1.994-6.4,1.936-10.389.718-10.389.718a7.354,7.354,0,0,1,4.167,8.158l19.55-.819,7.393-1.645,4.347-4.343Z" transform="translate(6.845 -32.763)" fill="#444053"/><path d="M104.6,157.189s-6.28,3.592-8.043,6.578c0,0-1.466.718-1.466,1.351s-.941,1.523-2.583,2.155l-1.645.647s-1.879-.471-2.055,0-4.282,1.994-6.4,1.936-10.389.718-10.389.718a7.354,7.354,0,0,1,4.167,8.158l19.55-.819,7.393-1.645,4.347-4.343Z" transform="translate(6.845 -32.763)" opacity="0.1"/><path d="M78.473,180.594l-2.766-.054-3.233-.068s-15.268,1.175-14.969-3.707,12.042-6.6,13.676-5.195c1.239,1.06,4.106,1.915,5.414,2.263.417.111.672.172.672.172Z" transform="translate(4.164 -30.195)" fill="#d38884"/><path d="M75.7,180.166l-2.766-.054c-1.1-3.79.176-5.877.9-6.7.417.111.672.172.672.172Z" transform="translate(6.935 -29.767)" opacity="0.1"/><path d="M77.534,180.442l-2.874.2-1.365.093c-1.879-5.518,1.157-7.691,1.157-7.691h.9l1.469.176Z" transform="translate(6.967 -29.835)" fill="#a36468"/><path d="M107.25,150.584l-3.406,6.466s-.521-6.549-2.037-9.635a2.733,2.733,0,0,0-1.369-1.52c-1.437-.453,6.826-9.509,6.826-9.509a32.878,32.878,0,0,1,3.794,2.4c2.13,1.437,4.7,3.19,6.42,4.311C120.75,145.181,107.25,150.584,107.25,150.584Z" transform="translate(12.062 -36.604)" fill="#d38884"/><path d="M103.249,148.474a9.184,9.184,0,0,0-3.5,4.34,72.474,72.474,0,0,0-1.469,7.221s1.236,11.093,1.879,11.621,3.089,11.621,3.089,11.621l2.371-1.584-3.111-13.971S104.578,149.771,103.249,148.474Z" transform="translate(11.694 -34.372)" fill="#444053"/><path d="M103.249,148.474a9.184,9.184,0,0,0-3.5,4.34,72.474,72.474,0,0,0-1.469,7.221s1.236,11.093,1.879,11.621,3.089,11.621,3.089,11.621l2.371-1.584-3.111-13.971S104.578,149.771,103.249,148.474Z" transform="translate(11.694 -34.372)" opacity="0.1"/><path d="M109.217,120.562H95.534L97.75,98.975h11.467Z" transform="translate(17.639 18.287)" fill="#a36468"/><path d="M85.792,205.975h.165l-.309.119Z" transform="translate(9.362 -23.754)" fill="#67647e"/><path d="M114.091,198.508l-2.676,1.027-.359.133-9.635,3.7-3.675,1.412-5,1.922H90.7c-6.33-.018-12.634-.158-18.9-.485,1.214-2.662,3.337-6.923,5.069-8.3,1.351-1.078,11.014-2.242,19.934-3.118,1.114-.108,2.213-.212,3.283-.309l.255-.025c3.542-.323,6.747-.586,8.981-.765l.359-.029,2.809-.216.295-.295.359,1.538.3,1.229Z" transform="translate(6.805 -26.12)" fill="#67647e"/><path d="M85.792,205.975h.165l-.309.119Z" transform="translate(9.362 -23.754)" opacity="0.1"/><path d="M114.091,198.508l-2.676,1.027-.359.133-9.635,3.7-3.675,1.412-5,1.922H90.7c-6.33-.018-12.634-.158-18.9-.485,1.214-2.662,3.337-6.923,5.069-8.3,1.351-1.078,11.014-2.242,19.934-3.118,1.114-.108,2.213-.212,3.283-.309l.255-.025c3.542-.323,6.747-.586,8.981-.765l.359-.029,2.809-.216.295-.295.359,1.538.3,1.229Z" transform="translate(6.805 -26.12)" opacity="0.1"/><path d="M85.792,205.975h.165l-.309.119Z" transform="translate(9.362 -23.754)" fill="#67647e"/><path d="M95.573,205.975a.512.512,0,0,1-.04.119h0a.317.317,0,0,1,.043-.119Z" transform="translate(11.187 -23.754)" fill="#67647e"/><path d="M101.952,153.923h-.266l-.04-.119h.266Z" transform="translate(18.768 28.412)" fill="#67647e"/><path d="M113.433,194.513l-.223,7.393v.438l-.111,3.661-2.626.086h-.381q-5.6.18-11.2.277h-2.22l-1.667.022q-2.6.025-5.184.029H87.758c1.868-1.157,4.286-2.432,6.887-3.707,1.168-.575,2.378-1.146,3.592-1.71,3.233-1.5,6.506-2.921,9.175-4.052l.341-.144c1.035-.438,1.972-.83,2.773-1.16,1.732-.718,2.831-1.15,2.906-1.178Z" transform="translate(9.751 -25.879)" fill="#67647e"/><path d="M89.246,169.094a13.492,13.492,0,0,0,2.475,3.923c.176.172.481.331.639.14a.453.453,0,0,0,.068-.266,3.427,3.427,0,0,0-.647-1.832c-.359-.553-.783-1.056-1.1-1.631s-.686-1.681-1.4-1.832C88.352,167.4,89.041,168.67,89.246,169.094Z" transform="translate(9.945 -30.845)" opacity="0.1"/><path d="M111.044,138.773c-.05.18-.1.359-.162.532a12.1,12.1,0,0,1-9.074,8.1,2.733,2.733,0,0,0-1.369-1.52c-1.437-.453,6.826-9.509,6.826-9.509A38.277,38.277,0,0,1,111.044,138.773Z" transform="translate(12.062 -36.606)" opacity="0.1"/><path d="M113.5,137.371a12.067,12.067,0,1,1-3.534-8.558,12.092,12.092,0,0,1,3.534,8.558Z" transform="translate(10.039 -38.655)" fill="#d38884"/><path d="M103.772,150.648s-2.515,3.054-2.112,5.051h3.05l2.231-2.515Z" transform="translate(12.31 -33.971)" fill="#67647e"/><path d="M112.482,139.765l-9.592,13.188s2.464,3.524,3.639,3.7,7.875-15.6,7.875-15.6Z" transform="translate(12.546 -35.98)" opacity="0.1"/><path d="M112.586,139.564l-9.6,13.206s2.464,3.521,3.639,3.7,7.875-15.595,7.875-15.595Z" transform="translate(12.564 -36.017)" fill="#a36468"/><path d="M102.13,153.823s-.471,7.393-.941,8.862,0,14.966,0,14.966l4.4-1.818-.765-20.721Z" transform="translate(12.193 -33.384)" fill="#67647e"/><path d="M101.913,153.8l.04.119h-.266l-.04-.119Z" transform="translate(18.768 28.412)" opacity="0.1"/><path d="M133.245,206.069Z" transform="translate(18.151 -23.737)" opacity="0.1"/><path d="M144.55,211.861s-.083.137-.219.359-.284.5-.474.851a.269.269,0,0,0-.025.043c-.266.492-.582,1.1-.9,1.753-10.777.381-21.554.887-32.3,1.25L108,216.2h-.381l-1.128-3.808v-.039l-.119-.4-.718-2.393-.718-2.432-.744-2.594-.273-.941-.072-.237-1.171-3.988-1.588-5.414.514-5.166h0l.036-.392.463-4.627.065-1.372h0l.036-.719v-.2h0l.079-1.667.237-4.957.122-2.536h0l.022-.384h0l.244-5.09.693-2.08.359-1.035.8-2.4.172-.593h0c.251-.9.758-2.684,1.232-4.4h0l.043-.147h0l.032-.111.338-1.218.42-1.563c.158-.6.262-1.027.287-1.175a23.031,23.031,0,0,1,1.609-2.874h0c1.8-2.971,4.5-7.343,4.807-8.809a.16.16,0,0,0,0-.036,1.8,1.8,0,0,1,.075-.262c.147-.438.359-.557.582-.528a.718.718,0,0,1,.284.111,2.26,2.26,0,0,1,.56.539,7.152,7.152,0,0,0,2.54,2.217l.194.111.115.068c.826.471,1.494.772,1.494.772,13.148,7.925,12.329,19.783,13.091,20.721s.823,4.347.823,4.347,1.936,11.564,2.816,12.573.061,1.351.823,2.468.586,4.07.586,4.07.528,7.041,2.407,8.568S144.55,211.861,144.55,211.861Z" transform="translate(12.213 -36.01)" opacity="0.1"/><path d="M144.846,211.766l-.158.273h0c-.126.223-.327.575-.568,1.017l-.025.05c-.273.507-.6,1.121-.916,1.8h-.3c-10.777.381-21.554.887-32.3,1.25l-2.626.086-1.124-3.822v-.039l-.119-.4-.744-2.515-.718-2.443-.718-2.439-.284-.977h0l-1.229-4.2-1.624-5.529.449-4.494.061-.6.5-5.1h0l.19-3.98.234-4.81.061-1.261.068-1.458.029-.614.233-4.807.693-2.076.3-.894.7-2.1.147-.445s.672-2.36,1.322-4.7c.025-.086.05-.172.072-.259.057-.2.111-.4.169-.6h0c.057-.2.111-.4.162-.6.183-.654.359-1.265.481-1.767.176-.657.295-1.135.32-1.29a21.156,21.156,0,0,1,1.642-2.924c1.7-2.809,4.178-6.826,4.7-8.492a2.7,2.7,0,0,0,.072-.262h0a1.369,1.369,0,0,1,.313-.718c.481-.463,1.2.532,1.2.532a7.117,7.117,0,0,0,2.54,2.217,19.045,19.045,0,0,0,1.8.952c13.148,7.925,12.329,19.783,13.091,20.724s.823,4.343.823,4.343,1.936,11.564,2.816,12.573.061,1.351.823,2.464.586,4.11.586,4.11.528,7.045,2.407,8.571S144.846,211.766,144.846,211.766Z" transform="translate(12.268 -36.03)" fill="#444053"/><path d="M117.643,142.559c-1.29,1.875-3.391,5.173-3.952,7.544,0,0-2.055,2.116-2.82,2s.718,1.584.718,1.584l-8.072,11.187,1.146-3.438s2.407-8.453,2.515-9.214,5.953-9.487,6.416-11.682c.359-1.757,1.509-.176,1.509-.176A7.159,7.159,0,0,0,117.643,142.559Z" transform="translate(12.662 -35.991)" opacity="0.1"/><path d="M117.643,142.365c-1.29,1.872-3.391,5.173-3.952,7.526,0,0-2.055,2.112-2.82,2s.718,1.584.718,1.584l-8.072,11.187,1.146-3.438s2.407-8.453,2.515-9.218,5.953-9.484,6.416-11.679c.359-1.76,1.509-.176,1.509-.176A7.09,7.09,0,0,0,117.643,142.365Z" transform="translate(12.662 -36.03)" fill="#444053"/><path d="M128.81,163.878c.061,2.565-3.7,6.068-3.873,6.272s-11.682,9.7-11.682,9.7l-8.262,6.337a7.02,7.02,0,0,1-3.233,1.494l.564-5.669.557-11.5c1.29-1.437,2.54-2.946,2.569-3.427.057-1,2.155-2.055,2.155-2.055s1.469-1.232,1.232-1.936.78-4.077.78-4.077c.528-9.57,10.389-10.508,10.389-10.508a67.591,67.591,0,0,1,8.1,3.873C131.45,154.38,128.752,161.316,128.81,163.878Z" transform="translate(12.337 -34.365)" opacity="0.1"/><path d="M77.295,180.442l-2.874.2c-1.214-2.066.456-7.6.456-7.6h.234l1.469.176Z" transform="translate(7.207 -29.835)" opacity="0.1"/><path d="M125.092,148.022s-9.861.941-10.389,10.508c0,0-1,3.348-.765,4.052s-1.232,1.936-1.232,1.936-2.112,1.056-2.155,2.055-5.389,6.445-5.389,6.445-2.227,2.536-7.393,2.8-7.573,1.846-7.573,1.846-2.515-1.76-4.347-1.232-10.741,1.232-10.741,1.232-2.367,7.846.586,8.338c.359.057,29.422,1.056,29.422,1.056s1.987.938,4.979-1.351,8.263-6.341,8.263-6.341,11.5-9.509,11.682-9.7,3.952-3.711,3.873-6.272,2.644-9.491-.718-11.5A67.714,67.714,0,0,0,125.092,148.022Z" transform="translate(7.25 -34.456)" fill="#444053"/><path d="M113.408,137.377a12.066,12.066,0,0,1-.593,3.747,5.053,5.053,0,0,1-.445-.614q-.841-1.293-1.685-2.587a6.991,6.991,0,0,0-1.714-2.019,2.392,2.392,0,0,0-2.515-.266,2.518,2.518,0,0,0-1.078,2.015,22.883,22.883,0,0,0,.061,2.378,1.311,1.311,0,0,1-.219.859,1.408,1.408,0,0,1-.927.359l-1.078.147a.772.772,0,0,1-.992-.492c-.895-1.62-1.512-3.632-3.19-4.411-1.035-.481-2.4-.449-3.064-1.376a3,3,0,0,1-.259-2.26,17.834,17.834,0,0,1,.629-2.558c.19-.589.614-1.764-.327-1.882a2.478,2.478,0,0,0-1.847,1.078,9.592,9.592,0,0,0-.632,1.674,4,4,0,0,1-2.209,2.051,6.329,6.329,0,0,1-1.523.413,12.092,12.092,0,0,1,23.6,3.715Z" transform="translate(10.129 -38.661)" opacity="0.1"/><path d="M95.124,130.166a9.82,9.82,0,0,0-.632,1.67,4,4,0,0,1-2.206,2.051,8.488,8.488,0,0,1-3.028.539c-1.674.05-3.542-.2-4.62-1.487a3.783,3.783,0,0,0,1.437-2.515,4.662,4.662,0,0,1,.424-2.256,3.233,3.233,0,0,1,.819-.693,53.434,53.434,0,0,0,5.051-4.591,9.852,9.852,0,0,1,6.017-2.921c3.05-.093,5.748,2.055,8.765,2.461a23.975,23.975,0,0,1,2.788.316,9.506,9.506,0,0,1,2.834,1.437,7.253,7.253,0,0,1,2.023,1.739,6.255,6.255,0,0,1,.823,1.99,22.224,22.224,0,0,1,.718,4.559c.083,1.609,0,3.233.172,4.835a7.661,7.661,0,0,0,1.778,4.419,15.809,15.809,0,0,1-2.446.564,2.547,2.547,0,0,1-1.556-.122,2.741,2.741,0,0,1-.948-1.024l-1.685-2.587a6.991,6.991,0,0,0-1.714-2.019,2.393,2.393,0,0,0-2.515-.266,2.528,2.528,0,0,0-1.078,2.015,22.883,22.883,0,0,0,.061,2.378,1.311,1.311,0,0,1-.219.859,1.412,1.412,0,0,1-.93.359l-1.078.147a.772.772,0,0,1-.992-.492c-.895-1.624-1.512-3.632-3.19-4.411-1.035-.481-2.4-.449-3.064-1.376a3,3,0,0,1-.259-2.26,17.838,17.838,0,0,1,.629-2.558c.19-.589.614-1.764-.327-1.886A2.48,2.48,0,0,0,95.124,130.166Z" transform="translate(9.175 -39.637)" fill="#444053"/><path d="M117.378,152.61a5.262,5.262,0,0,1,2.716.14,9.935,9.935,0,0,0-7.842.69C112.435,153.86,116.674,152.707,117.378,152.61Z" transform="translate(14.274 -33.677)" opacity="0.1"/><path d="M118.411,155.208c2.209.147,4.49.456,6.585-.262-1.753-.6-3.682-.223-5.529-.406-1.473-.147-2.971-.657-4.408-.284-.6.154-2.809,1.171-2.658,1.915A11.937,11.937,0,0,1,118.411,155.208Z" transform="translate(14.301 -33.329)" opacity="0.1"/><path d="M112.533,159.173a3.319,3.319,0,0,1,1.372.144,20.99,20.99,0,0,0,5.058.557,5.29,5.29,0,0,0,3.65-1.078Z" transform="translate(14.326 -32.466)" opacity="0.1"/><path d="M106.526,168.784a10.123,10.123,0,0,0,4.94.9,21.8,21.8,0,0,0,4.972-.956,3.324,3.324,0,0,0,1.922-1.1Z" transform="translate(13.217 -30.836)" opacity="0.1"/><path d="M120.125,170.012a26.39,26.39,0,0,0,10.964,3.395q-2.921-1.171-5.884-2.217a42.618,42.618,0,0,0-6.2-1.66,3.15,3.15,0,0,1,1.117.481Z" transform="translate(15.522 -30.484)" opacity="0.1"/><path d="M125.013,168.374a9.265,9.265,0,0,0,2.044.111,1.166,1.166,0,0,0,1-.359,17.527,17.527,0,0,1-4.566-.672c-.427-.1-1.2-.338-1.555-.083A9.874,9.874,0,0,0,125.013,168.374Z" transform="translate(16.062 -30.904)" opacity="0.1"/><path d="M132.728,196.229a14.846,14.846,0,0,0,4.8,5.719,43.955,43.955,0,0,0-4.821-9.8c-.539-.747-1.344-1.818-2.324-1.954-.28.83.428,2.3.769,3.079a29.629,29.629,0,0,0,1.573,2.953Z" transform="translate(17.611 -26.668)" opacity="0.1"/><path d="M99.207,174.072a2.44,2.44,0,0,0,.226,1.681,1.214,1.214,0,0,0,.683.471,8.141,8.141,0,0,1-.4-1.961c-.079-.471,0-1.351-.334-1.7C99.293,173.059,99.26,173.569,99.207,174.072Z" transform="translate(11.857 -29.924)" opacity="0.1"/><path d="M100.824,173.425a3.829,3.829,0,0,0,1.8,2.432,27.491,27.491,0,0,1-1.379-2.648c-.176-.273-.381-.665-.718-.718q.128.474.3.934Z" transform="translate(12.108 -29.937)" opacity="0.1"/><path d="M100.117,164.626a4.487,4.487,0,0,1-3.556.449c-.269-.079-.9-.359-.747-.754s.88-.122,1.178-.086l1.563.2C98.842,164.468,99.883,164.763,100.117,164.626Z" transform="translate(11.235 -31.485)" opacity="0.1"/><path d="M94.979,166.715c.736-.093,1.4.417,2.087.693a6.358,6.358,0,0,0,2.371.316,1.324,1.324,0,0,0,1.106-.359A15.532,15.532,0,0,0,94.979,166.715Z" transform="translate(11.085 -31.016)" opacity="0.1"/><path d="M97.029,96.3h.119l.88,3.165-1,1.063Z" transform="translate(17.915 17.794)" fill="#a36468"/><g transform="translate(93.864 88.69)" opacity="0.1"><path d="M86.07,127.289a7.414,7.414,0,0,0-.162,1.563,3.452,3.452,0,0,0,.1-.5C86.049,128,86.045,127.641,86.07,127.289Z" transform="translate(-84.454 -126.974)"/><path d="M97.013,127.748a.632.632,0,0,1,.589.718c.169-.6.262-1.329-.471-1.437a2.467,2.467,0,0,0-1.846,1.1,10.049,10.049,0,0,0-.632,1.674,3.991,3.991,0,0,1-2.206,2.051,8.488,8.488,0,0,1-3.028.539,6.116,6.116,0,0,1-4.311-1.171,3.655,3.655,0,0,1-.427.388c1.078,1.282,2.946,1.538,4.623,1.487a8.485,8.485,0,0,0,3.025-.539,4.009,4.009,0,0,0,2.209-2.051,9.807,9.807,0,0,1,.629-1.67A2.45,2.45,0,0,1,97.013,127.748Z" transform="translate(-84.681 -127.023)"/><path d="M112.59,139.183a2.547,2.547,0,0,1-1.555-.122,2.773,2.773,0,0,1-.948-1.024q-.841-1.293-1.685-2.587a6.933,6.933,0,0,0-1.71-2.019,2.386,2.386,0,0,0-2.515-.266,2.575,2.575,0,0,0-1.1,2.015v.1a2.27,2.27,0,0,1,.981-1.408,2.4,2.4,0,0,1,2.515.266,7.048,7.048,0,0,1,1.714,2.019q.841,1.293,1.685,2.587a2.712,2.712,0,0,0,.948,1.024,2.536,2.536,0,0,0,1.552.122,15.93,15.93,0,0,0,2.45-.564,5.26,5.26,0,0,1-.438-.542,15.42,15.42,0,0,1-1.9.4Z" transform="translate(-81.283 -125.935)"/><path d="M104.469,138.753a1.437,1.437,0,0,1-.927.359l-1.078.147a.772.772,0,0,1-.991-.492c-.895-1.624-1.512-3.632-3.19-4.411-1.035-.481-2.4-.449-3.061-1.376a2.644,2.644,0,0,1-.32-1.882c-.018.111-.043.219-.061.327a3,3,0,0,0,.262,2.26c.665.927,2.03.895,3.061,1.376,1.681.78,2.3,2.788,3.194,4.411a1.028,1.028,0,0,0,.413.492,1.053,1.053,0,0,0,.578.025l1.078-.147a1.408,1.408,0,0,0,.927-.359,1.29,1.29,0,0,0,.219-.859h0A1.076,1.076,0,0,1,104.469,138.753Z" transform="translate(-82.822 -126.271)"/></g><path d="M228.822,214.413l-2.3-.32V180.1l.471.144,1.437.442v3.273l.018,1.476.032,3.039v4.146l.172,15.307v.41l.061,5.389v.083Z" transform="translate(35.375 -28.532)" fill="#eaecf0"/><path d="M229.8,214.5l-1.282-.18v-.7l-.061-5.389v-.41l-.172-15.307v-4.146l-.032-3.039-.018-1.476v-3.273h1.383v4.393l.029,3.283v3.474h0l.133,16.065v.413l.043,5.342v.086Z" transform="translate(35.691 -28.442)" fill="#d3dae1"/><path d="M229.555,210.836Z" transform="translate(35.935 -22.857)" fill="#d3dae1"/><path d="M347.848,176.542v29.343q-1.024.718-2.1,1.412l-.029-24.428v-2.594Z" transform="translate(57.386 -29.189)" fill="#eaecf0"/><path d="M349.011,176.184v28.631c-.489.392-.988.769-1.494,1.139V176.608Z" transform="translate(57.718 -29.255)" fill="#d3dae1"/><path d="M321.038,215.69c-.884.18-1.771.359-2.658.514l-.032-26.551V188.5l2.561-1.078v2.436Z" transform="translate(52.331 -27.18)" fill="#eaecf0"/><path d="M322.324,186.716v28.739c-.56.122-1.121.237-1.681.359L320.525,190V187.56l.169-.079h0Z" transform="translate(52.734 -27.311)" fill="#d3dae1"/><path d="M193.934,209.5l-2.389-.241-.305-29.939v-1.426h2.346v1.627Z" transform="translate(28.86 -28.94)" fill="#eaecf0"/><path d="M195.351,209.688l-1.8-.19-.359-29.978v-1.627h1.814v1.785Z" transform="translate(29.221 -28.94)" fill="#d3dae1"/><path d="M315.206,135.318l1.642-.772v3.625l-1.6.535Z" transform="translate(58.203 24.856)" opacity="0.1"/><path d="M343.893,124.011v5.547l-1.491.5-2.13.708,0-2.594,2.134-3.732Z" transform="translate(62.831 22.91)" opacity="0.1"/><path d="M348.548,115.011v15.357l-33.273,11.09-.216-16.424Z" transform="translate(58.176 21.248)" fill="#d48a9b"/><path d="M185.421,115.407l43.727-8.32,143.34,9.387L339,126.5Z" transform="translate(34.237 19.785)" fill="#efc6cd"/><path d="M189.942,125.724l.014,1.782-1.811-.158-2.353-.2-.011-1.423Z" transform="translate(34.304 23.227)" opacity="0.1"/><path d="M224.4,130.619l-1.383-.122-1.94-.165v-2.4l1.918.582h1.387Z" transform="translate(40.821 23.634)" opacity="0.1"/><path d="M185.421,114.11V128.4l153.794,13.224L339,125.2Z" transform="translate(34.237 21.082)" fill="#d48a9b"/><path d="M291.485,129.59H271.4V122.3l20.089,1.415Z" transform="translate(50.113 22.595)" fill="#d48a9b"/><path d="M291.485,129.59H271.4V122.3l20.089,1.415Z" transform="translate(50.113 22.595)" opacity="0.1"/><path d="M248.62,120.951v11.517l77.111,5.866V126.071l-30.076-1.706-2.989,2.666-12.264-.851-4.372-3.2Z" transform="translate(45.908 22.345)" opacity="0.1"/><path d="M248.259,120.591v11.521l77.111,5.863V125.71L295.294,124l-2.985,2.669-12.268-.855-4.372-3.2Z" transform="translate(45.841 22.279)" fill="#fff"/><path d="M208.394,117.98l18.239,1.282-.212,5.795H214.512l-7.964-3.129Z" transform="translate(38.139 21.797)" fill="#d48a9b"/><path d="M208.394,117.98l18.239,1.282-.212,5.795H214.512l-7.964-3.129Z" transform="translate(38.139 21.797)" opacity="0.1"/><path d="M187.583,116.63v10.346l69.962,5.547V121.537l-26.982-1.6-2.881,2.134L216.8,121.43l-4.48-2.773Z" transform="translate(34.637 21.547)" opacity="0.1"/><path d="M187.222,116.269v10.346l69.962,5.547V121.177l-26.982-1.6-2.878,2.13-10.881-.639-4.48-2.773Z" transform="translate(34.57 21.481)" fill="#fff"/><path d="M316.011,116.3l9.807.643L309.57,121.81l-8.277-.6Z" transform="translate(55.634 21.487)" opacity="0.1"/><path d="M316.011,115.945l9.807.639-16.248,4.864-8.277-.6Z" transform="translate(55.634 21.421)" fill="#fff"/><path d="M318.174,169.05c.388-.169.8.144,1.214.223.234.047.478,0,.718.047.481.065.956.384,1.415.223Z" transform="translate(52.3 -30.582)" fill="#d3dae1"/><path d="M317.747,169.3c.384-.165.8.147,1.211.226.237.043.481,0,.718.043.478.065.956.388,1.415.226Z" transform="translate(52.221 -30.536)" fill="#d3dae1"/><path d="M316.764,169.793c.384-.165.8.144,1.211.223.237.047.478,0,.719.047.481.065.959.388,1.415.223Z" transform="translate(52.039 -30.444)" fill="#d3dae1"/><path d="M258.928,111.76l21.867,1.433-4.659,6.693-24.04-2.569Z" transform="translate(46.549 20.648)" opacity="0.1"/><path d="M258.567,111.4l21.867,1.43-4.659,6.7-24.044-2.569Z" transform="translate(46.482 20.582)" fill="#3a3768"/><path d="M259.243,111.815l19.072,1.168-4.063,5.453-20.969-2.094Z" transform="translate(46.769 20.658)" fill="#d5e1f4"/><path d="M229.555,210.836Z" transform="translate(35.935 -22.857)" fill="#3a3768"/><path d="M229.555,210.836Z" transform="translate(35.935 -22.857)" opacity="0.1"/><path d="M229.415,210.836Z" transform="translate(35.909 -22.857)" fill="#3a3768"/><path d="M262.606,217.968a1.741,1.741,0,0,1-.018.305,2.06,2.06,0,0,1-.029.269,6.069,6.069,0,0,1-.521,1.829h0c-9.035-1.017-18.091-2.238-27.158-3.492l-1.282-.18-2.3-.32-1.94-.269h0a46.724,46.724,0,0,1-6.337-.593,32.782,32.782,0,0,1-3.916-.826c-5.748-.787-11.528-1.545-17.29-2.234l-.751-.09c.137-.611.251-.981.251-.981s1.236-4.857,2.263-10.285c.226-1.178.442-2.378.629-3.567.151-.952.287-1.893.4-2.8.065-.5.119-.988.165-1.466.025-.237.047-.474.065-.718s.04-.51.057-.758.025-.467.036-.693v-.338c0-.485,0-.992-.018-1.512a44.54,44.54,0,0,0-1.221-7.691c-.1-.431-.2-.862-.313-1.282-.032-.137-.068-.269-.1-.4-1.16-4.494-2.515-8.165-2.515-8.165a.412.412,0,0,1,0-.061.206.206,0,0,0,0-.043.848.848,0,0,0,0-.09v-.639a5.5,5.5,0,0,1,.194-1.114,4.038,4.038,0,0,1,.137-.381,2.367,2.367,0,0,1,1.617-1.494h0c1.017-.262,2.554,0,4.875,1.376a8.4,8.4,0,0,1,1.078.74,4.554,4.554,0,0,1,.5.435c2.658,2.475,4.074,6.56,4.828,10.289.029.133.054.266.079.4.09.46.165.909.234,1.351.122.776.219,1.523.291,2.216,0,.187.04.359.057.55s.036.359.047.532c.047.56.079,1.078.1,1.516.061,1.164.05,1.879.05,1.879v.036a.983.983,0,0,1-.018.154.068.068,0,0,0,0,.029c0,.043,0,.1,0,.158v.165q-.022.226-.054.528c-.032.309-.068.672-.111,1.078-.029.3-.065.629-.1.974-.079.718-.165,1.552-.259,2.428-.022.165-.04.331-.057.5-.083.751-.169,1.534-.259,2.324h0c-.1.9-.2,1.8-.309,2.684-.025.194-.05.388-.072.578-.266,2.155-.532,4.113-.747,5.331a5.061,5.061,0,0,0-.072.546,1.677,1.677,0,0,0,0,.187,3.686,3.686,0,0,0,0,.489c.176,3.068,3.492,3.592,3.492,3.592l15.056-.3,2.234-.043,1.3-.025,11.736-.234h0l1.078-.022,5.838-.115a4.174,4.174,0,0,1,1.175.14,18.652,18.652,0,0,1,5.1,2.231,6,6,0,0,1,1.318,1.15.387.387,0,0,1,.05.057,6.215,6.215,0,0,1,1.412,3.362q0,.124,0,.248A3.23,3.23,0,0,1,262.606,217.968Z" transform="translate(30.618 -30.804)" fill="#3a3768"/><path d="M229.415,210.836Z" transform="translate(35.909 -22.857)" opacity="0.1"/><path d="M262.605,217.973a1.741,1.741,0,0,1-.018.305,2.065,2.065,0,0,1-.029.269,6.287,6.287,0,0,1-.539,1.829c-9.035-1.017-18.091-2.238-27.158-3.492l-1.282-.18-2.3-.32-1.94-.269h0a46.727,46.727,0,0,1-6.337-.593,32.774,32.774,0,0,1-3.916-.826c-5.748-.787-11.528-1.545-17.29-2.234l-.751-.09h0c.137-.632.259-1.017.259-1.017s1.009-3.952,1.969-8.74h0c.068-.331.133-.661.2-1l.1-.507c.223-1.175.438-2.382.629-3.567.151-.952.287-1.893.4-2.8.065-.5.119-.988.165-1.466.025-.237.047-.474.065-.718s.04-.51.057-.758.025-.467.036-.693v-.338c0-.485,0-.992-.018-1.512a44.186,44.186,0,0,0-1.211-7.691q-.151-.654-.313-1.282c-.036-.137-.068-.269-.1-.4-1.164-4.508-2.515-8.2-2.515-8.2a.117.117,0,0,0,0-.025.206.206,0,0,0,0-.043.856.856,0,0,0,0-.09v-.639a5.514,5.514,0,0,1,.183-1.114c.039-.126.083-.255.133-.381a2.375,2.375,0,0,1,1.7-1.548c1.017-.237,2.536.057,4.807,1.387a8.7,8.7,0,0,1,1.121.783h0c.169.14.33.28.489.431,2.637,2.49,4.041,6.567,4.789,10.285.029.133.054.269.079.4.09.456.165.909.234,1.347.122.776.216,1.52.287,2.209.018.19.04.377.054.557s.036.359.047.532c.047.56.079,1.078.1,1.516.061,1.164.05,1.879.05,1.879v.19a.068.068,0,0,0,0,.029v.323q-.022.226-.054.528c-.032.309-.068.672-.111,1.078-.036.3-.068.625-.1.974-.079.718-.165,1.552-.259,2.428-.022.165-.04.331-.057.5-.083.751-.172,1.541-.259,2.331h0c-.1.9-.208,1.8-.316,2.68-.025.194-.047.388-.072.578-.262,2.155-.525,4.085-.74,5.3a5,5,0,0,0-.072.586,1.67,1.67,0,0,0,0,.187,3.678,3.678,0,0,0,0,.489c.2,3.032,3.492,3.538,3.492,3.538l15.056-.295,2.231-.047,1.3-.025,11.758-.23,1.1-.022,5.816-.115a3.93,3.93,0,0,1,1.175.14,18.439,18.439,0,0,1,5.141,2.209,5.92,5.92,0,0,1,1.336,1.171.386.386,0,0,1,.05.057,6.154,6.154,0,0,1,1.394,3.377q0,.124,0,.248A4.165,4.165,0,0,0,262.605,217.973Z" transform="translate(30.618 -30.809)" opacity="0.1"/><path d="M229.415,210.836Z" transform="translate(35.909 -22.857)" fill="#3a3768"/><path d="M262.5,220.494l-.593-.068h0c-9.035-1.017-18.091-2.238-27.158-3.492l-1.282-.18-2.3-.32-1.94-.269h0a46.729,46.729,0,0,1-6.337-.593,32.785,32.785,0,0,1-3.916-.826c-5.748-.787-11.528-1.545-17.29-2.234a14.7,14.7,0,0,1,.359-1.494s3.413-13.439,3.625-20.584a37.087,37.087,0,0,0-1.117-8.73h0c-.1-.435-.2-.866-.309-1.29l-.1-.4c-1.218-4.724-2.666-8.676-2.666-8.676a5.838,5.838,0,0,1,.083-1.462,3.922,3.922,0,0,1,.086-.384,2.931,2.931,0,0,1,.927-1.552h0a.474.474,0,0,1,.068-.05c.945-.718,2.64-.769,5.658,1a8.849,8.849,0,0,1,1.685,1.29c.144.137.287.28.424.427,2.425,2.626,3.711,6.65,4.386,10.249l.075.4c.079.449.147.891.212,1.318v.036h0c.083.568.151,1.11.208,1.627h0a42.856,42.856,0,0,1,.259,4.587s-.14,1.419-.359,3.463c-.083.8-.18,1.7-.284,2.648v.144l-.054.5c-.183,1.656-.384,3.424-.589,5.062-.022.2-.047.4-.072.593-.23,1.843-.46,3.481-.65,4.548-.747,4.16,3.413,4.8,3.413,4.8l14.2-.28,2.227-.043,1.3-.029h.722L246.676,210h1.078l6.466-.129a4.036,4.036,0,0,1,1.175.144,18.53,18.53,0,0,1,5.144,2.206,6.108,6.108,0,0,1,1.211,1.027.581.581,0,0,1,.061.072A6.222,6.222,0,0,1,262.5,220.494Z" transform="translate(30.748 -30.874)" fill="#3a3768"/><path d="M290.639,105.24l4.393,9.412H294.3l-5.151-9.3Z" transform="translate(53.391 19.444)" fill="#4c4c56"/><path d="M290.639,105.24l4.393,9.412H294.3l-5.151-9.3Z" transform="translate(53.391 19.444)" opacity="0.1"/><path d="M290.407,113.185H294.8v.984l-4.393.111Z" transform="translate(53.624 20.911)" fill="#4c4c56"/><path d="M290.407,113.185H294.8v.984l-4.393.111Z" transform="translate(53.624 20.911)" opacity="0.1"/><path d="M267.005,128.552v32.867a2.439,2.439,0,0,0,2.439,2.439h54.784a2.425,2.425,0,0,0,2.425-2.472l-.622-32.9a2.425,2.425,0,0,0-2.425-2.378H269.444A2.439,2.439,0,0,0,267.005,128.552Z" transform="translate(42.851 -38.501)" fill="#4c4c56"/><path d="M267.005,128.552v32.867a2.439,2.439,0,0,0,2.439,2.439h54.784a2.425,2.425,0,0,0,2.425-2.472l-.622-32.9a2.425,2.425,0,0,0-2.425-2.378H269.444A2.439,2.439,0,0,0,267.005,128.552Z" transform="translate(42.851 -38.501)" opacity="0.1"/><path d="M265.338,128.552v32.867a2.439,2.439,0,0,0,2.439,2.439h54.784a2.421,2.421,0,0,0,2.421-2.472l-.621-32.9a2.425,2.425,0,0,0-2.421-2.378H267.791a2.439,2.439,0,0,0-2.454,2.439Z" transform="translate(42.543 -38.501)" fill="#4c4c56"/><path d="M267.157,130.286v28.937a2.439,2.439,0,0,0,2.439,2.439h50.728a2.425,2.425,0,0,0,2.425-2.425V130.268a2.425,2.425,0,0,0-2.425-2.421H269.6A2.439,2.439,0,0,0,267.157,130.286Z" transform="translate(42.879 -38.181)"/><path d="M280.239,105.561l4.817,9.279h10.885L290.5,104.225Z" transform="translate(51.746 19.257)" fill="#4c4c56"/><path d="M277.126,113.185l-.8.984h16.687v-.984Z" transform="translate(51.023 20.911)" fill="#4c4c56"/><path d="M225.687,140.337c-1.2-3.362-1.189-7.095-2.64-10.353a12.61,12.61,0,0,1-.607-1.437,4.21,4.21,0,0,1-.165-.938l-.09.022-.09.025-.09.036h0l-.083.05a3.141,3.141,0,0,0,.083.316,12.093,12.093,0,0,0,.614,1.437c1.48,3.276,1.469,7.023,2.687,10.418a.978.978,0,0,0,.226.4.536.536,0,0,0,.183.111C225.7,140.384,225.694,140.363,225.687,140.337Zm0,0c-1.2-3.362-1.189-7.095-2.64-10.353a12.61,12.61,0,0,1-.607-1.437,4.21,4.21,0,0,1-.165-.938l-.09.022-.09.025-.09.036h0l-.083.05a3.141,3.141,0,0,0,.083.316,12.093,12.093,0,0,0,.614,1.437c1.48,3.276,1.469,7.023,2.687,10.418a.978.978,0,0,0,.226.4.536.536,0,0,0,.183.111C225.7,140.384,225.694,140.363,225.687,140.337Zm0,0c-1.2-3.362-1.189-7.095-2.64-10.353a12.61,12.61,0,0,1-.607-1.437,4.21,4.21,0,0,1-.165-.938l-.09.022-.09.025-.09.036h0l-.083.05a3.141,3.141,0,0,0,.083.316,12.093,12.093,0,0,0,.614,1.437c1.48,3.276,1.469,7.023,2.687,10.418a.978.978,0,0,0,.226.4.536.536,0,0,0,.183.111C225.7,140.384,225.694,140.363,225.687,140.337Zm0,0c-1.2-3.362-1.189-7.095-2.64-10.353a12.61,12.61,0,0,1-.607-1.437,4.21,4.21,0,0,1-.165-.938l-.09.022-.09.025-.09.036h0l-.083.05a3.141,3.141,0,0,0,.083.316,12.093,12.093,0,0,0,.614,1.437c1.48,3.276,1.469,7.023,2.687,10.418a.978.978,0,0,0,.226.4.536.536,0,0,0,.183.111C225.7,140.384,225.694,140.363,225.687,140.337Zm0,0c-1.2-3.362-1.189-7.095-2.64-10.353a12.61,12.61,0,0,1-.607-1.437,4.21,4.21,0,0,1-.165-.938l-.09.022-.09.025-.09.036h0l-.083.05a3.141,3.141,0,0,0,.083.316,12.093,12.093,0,0,0,.614,1.437c1.48,3.276,1.469,7.023,2.687,10.418a.978.978,0,0,0,.226.4.536.536,0,0,0,.183.111C225.7,140.384,225.694,140.363,225.687,140.337Zm0,0c-1.2-3.362-1.189-7.095-2.64-10.353a12.61,12.61,0,0,1-.607-1.437,4.21,4.21,0,0,1-.165-.938l-.09.022-.09.025-.09.036h0l-.083.05a3.141,3.141,0,0,0,.083.316,12.093,12.093,0,0,0,.614,1.437c1.48,3.276,1.469,7.023,2.687,10.418a.978.978,0,0,0,.226.4.536.536,0,0,0,.183.111C225.7,140.384,225.694,140.363,225.687,140.337Zm0,0c-1.2-3.362-1.189-7.095-2.64-10.353a12.61,12.61,0,0,1-.607-1.437,4.21,4.21,0,0,1-.165-.938l-.09.022-.09.025-.09.036h0l-.083.05a3.141,3.141,0,0,0,.083.316,12.093,12.093,0,0,0,.614,1.437c1.48,3.276,1.469,7.023,2.687,10.418a.978.978,0,0,0,.226.4.536.536,0,0,0,.183.111C225.7,140.384,225.694,140.363,225.687,140.337ZM288.1,173.818h0l-.277-.05.359-.079h0a.55.55,0,0,0,.1-.025h0c.4-.086.794-.183,1.182-.287h0l.406-.115h0l.057-.018c3.348-.988-.557-1.9-5.521-2.572H284.4c-5.36-.718-11.934-1.189-11.934-1.189l-2.058.273h-.018c-2.515.33-6.484.877-7.117,1.078-.769.255-7.293.568-9.567.668a.991.991,0,0,0-.338-.359l-6.707-.309v.923h0l-.05-.022a9.2,9.2,0,0,0-.909-3.592l-.05-.1c-1.732-3.283-2.08-4.106-2.08-4.106h0a.675.675,0,0,0-.047-.176c-.582-2.019-2.727-5.529-6.362-10.565l-.126-.176-.456-2.234-.079-.392h-2.288a29.923,29.923,0,0,1,1.588-5.68c.047-.115.093-.23.144-.341l.029-.065c.05-.119.108-.237.162-.359h.4a10.932,10.932,0,0,0,10.5-10.167.068.068,0,0,0,0-.029q.022-.334.022-.668a10.694,10.694,0,0,0-1.437-5.389c-.029-.05-.057-.1-.09-.151l-.057-.1-.129-.2c.819-.194,1.8.18,2.515-.28a1.84,1.84,0,0,0,.614-.74,3.848,3.848,0,0,0,.359-1.078h0a.358.358,0,0,0,0-.061.046.046,0,0,0,0-.022,4.25,4.25,0,0,0,.054-.74,3.989,3.989,0,0,0-.251-1.494,4.117,4.117,0,0,0-2.314-2.321,15.672,15.672,0,0,0-1.681-.456c-2.3-.614-4.243-2.13-6.466-2.975a11.729,11.729,0,0,0-4.846-.747,6.934,6.934,0,0,0-2.874.718,12.3,12.3,0,0,0-1.918,1.39,39.363,39.363,0,0,0-4.8,3.844,8.6,8.6,0,0,0-.7.862c-.122.176-.234.359-.359.539a.963.963,0,0,0-.866-.359h0a1.409,1.409,0,0,0-.176,0,3.485,3.485,0,0,0-.445.047c-.359.061-3.036.769-3.036,1.135a12.641,12.641,0,0,0-3.075,1.89c-2.155,1.972-2.637,5.1-2.91,7.979a73.943,73.943,0,0,0-.359,10.059c.05,1.221.147,2.443.09,3.664a27.253,27.253,0,0,1-.636,4.268q-.463,2.191-1,4.368c-.172.718-.449,1.52-1.153,1.746l.262.036a1.265,1.265,0,0,1-.262.126,7.848,7.848,0,0,0,.912.09h.212a2.479,2.479,0,0,0,.514-.061,1.918,1.918,0,0,0,.65-.3c.029-.072.054-.144.079-.219a1.215,1.215,0,0,0,.431-.668,4.755,4.755,0,0,1-.072,1.214.767.767,0,0,1-.036.176,4.958,4.958,0,0,1-1.236,2.342l.359-.273a5.279,5.279,0,0,1-.359.435q.776-.582,1.552-1.189h0a.745.745,0,0,0,.09-.068h0l.884-.7v.7h0v.162c-.072,2.479-.176,8.568.388,10.023.032.086.068.172.1.255.643,1.656.92,2.371.837,3.233a26.713,26.713,0,0,0,.639,3.682,4.569,4.569,0,0,1,.115,1.663,2.371,2.371,0,0,0,.065.991c.032.158.072.327.115.5a.776.776,0,0,0,.047.19c.327,1.308.79,2.924.305,3.567a2.849,2.849,0,0,0-.359.718c-.4,1.078-.463,2.551-.923,3.147a2.948,2.948,0,0,0-.316,2.084.064.064,0,0,1,0,.018s-.025.14-.075.359c-.061.3-.158.765-.28,1.279v.036a18.265,18.265,0,0,1-.621,2.13h0c-.183.489-.359.841-.564.909-.718.262-1.078,3.635-1.078,3.635s-1.645,2.669-1.333,3.327a4.4,4.4,0,0,0,.233.442l-.158.244c-.88,1.412-2.155,3.977-.92,5.356a6.107,6.107,0,0,0,1.473,1.124c-.065.144-.133.3-.2.467-1.358,3.183-3.449,10.576,4.595,13.694a25.52,25.52,0,0,0,2.439.8,32.781,32.781,0,0,0,3.916.826,47.983,47.983,0,0,0,5.748.514c.855.029,1.7.036,2.515.029s1.556-.025,2.3-.057q.657-.025,1.282-.065a67.09,67.09,0,0,0,7.375-.808l11.5-2.058s4.828.172,6.606,1.193l.054.032s.291-.169.78-.5h0c.212-.144.463-.316.74-.521a24.27,24.27,0,0,0,6.851-7.623l.039-.068.392-.05h.09l.28-.04.582-.083h.1c1.455-.212,2.831-.445,2.831-.445s.054,1.606.119,3.467c.022.568.04,1.16.061,1.735.068,1.969.129,3.758.129,3.819s1.48,3.952,3.136,7.875l1.293.1q5.123.41,10.242.679l1.275.065.8.04c-.575-3.481-1.027-6.8-1.027-6.8l-2.134-9.94s-.223-2.058-1.821-11.208c-1.293-7.415-8.909-6.757-11.761-6.236-.291.054-.528.1-.719.144v-.557s-5.471.46-10.418.683l-1.2.05c-1.146.043-2.234.068-3.19.068a23.342,23.342,0,0,1-2.515-.1,23.829,23.829,0,0,0-8.173.873s-5.565.9-6.308.571a1.915,1.915,0,0,0-.629-.129h-.359a.575.575,0,0,0,.359-.639,3.9,3.9,0,0,1,.313-3.068c.273-.388.719-1,1.117-1.555l.97-1.333v-.1l.025-.392.234-3.492.56-3.233.036-.2.05-.287.036-.208.108.036h0c1.591.553,3.395.941,4.67.5h.025a2.138,2.138,0,0,0,.295-.126h.057v.241l.022.42,6-.327h.09s.233-1.157.485-2.752c.018-.129.04-.262.061-.4s.054-.359.079-.524a2.185,2.185,0,0,1,.036-.255h.359c2.78-.1,6.66-.338,8.241-.912h0a1.8,1.8,0,0,0,.542-.291c.672-.582,3.082-1.415,5.45-2.134h0l.945-.28c.686-.2,1.347-.388,1.933-.553,1.358-.359,2.328-.625,2.328-.625s9.34.866,16.317-1.15h0l.115-.032C292.857,175.115,291.226,174.411,288.1,173.818Zm-66.276-46.7a1.946,1.946,0,0,0,.04.32h0a.9.9,0,0,0,.022.137.247.247,0,0,0,.029.14,3.14,3.14,0,0,0,.083.316,12.094,12.094,0,0,0,.614,1.437c1.48,3.276,1.469,7.023,2.687,10.418a.977.977,0,0,0,.226.4.536.536,0,0,0,.183.111l.086.029h.1l-.04.068a.361.361,0,0,1-.029.05l-.025.04c-.481.812-1,1.609-1.512,2.313a3.377,3.377,0,0,0-1.247.51l-.2.133-.086.065c-.126-.618-.3-1.229-.456-1.839a42.455,42.455,0,0,1-1.387-9.965v-.679c0-.869.022-1.735.075-2.6a2.156,2.156,0,0,1,.305-1.142h0a.787.787,0,0,1,.532-.259Zm3.858,13.224c-1.2-3.362-1.189-7.095-2.64-10.353a12.608,12.608,0,0,1-.607-1.437,4.21,4.21,0,0,1-.165-.938l-.09.022-.09.025-.09.036h0l-.083.05a3.141,3.141,0,0,0,.083.316,12.093,12.093,0,0,0,.614,1.437c1.48,3.276,1.469,7.023,2.687,10.418a.978.978,0,0,0,.226.4.535.535,0,0,0,.183.111c-.011-.043-.022-.065-.029-.09Zm0,0c-1.2-3.362-1.189-7.095-2.64-10.353a12.608,12.608,0,0,1-.607-1.437,4.21,4.21,0,0,1-.165-.938l-.09.022-.09.025-.09.036h0l-.083.05a3.141,3.141,0,0,0,.083.316,12.093,12.093,0,0,0,.614,1.437c1.48,3.276,1.469,7.023,2.687,10.418a.978.978,0,0,0,.226.4.535.535,0,0,0,.183.111c-.011-.043-.022-.065-.029-.09Zm0,0c-1.2-3.362-1.189-7.095-2.64-10.353a12.608,12.608,0,0,1-.607-1.437,4.21,4.21,0,0,1-.165-.938l-.09.022-.09.025-.09.036h0l-.083.05a3.141,3.141,0,0,0,.083.316,12.093,12.093,0,0,0,.614,1.437c1.48,3.276,1.469,7.023,2.687,10.418a.978.978,0,0,0,.226.4.535.535,0,0,0,.183.111c-.011-.043-.022-.065-.029-.09Zm0,0c-1.2-3.362-1.189-7.095-2.64-10.353a12.608,12.608,0,0,1-.607-1.437,4.21,4.21,0,0,1-.165-.938l-.09.022-.09.025-.09.036h0l-.083.05a3.141,3.141,0,0,0,.083.316,12.093,12.093,0,0,0,.614,1.437c1.48,3.276,1.469,7.023,2.687,10.418a.978.978,0,0,0,.226.4.535.535,0,0,0,.183.111c-.011-.043-.022-.065-.029-.09Zm0,0c-1.2-3.362-1.189-7.095-2.64-10.353a12.608,12.608,0,0,1-.607-1.437,4.21,4.21,0,0,1-.165-.938l-.09.022-.09.025-.09.036h0l-.083.05a3.141,3.141,0,0,0,.083.316,12.093,12.093,0,0,0,.614,1.437c1.48,3.276,1.469,7.023,2.687,10.418a.978.978,0,0,0,.226.4.535.535,0,0,0,.183.111c-.011-.043-.022-.065-.029-.09Zm0,0c-1.2-3.362-1.189-7.095-2.64-10.353a12.608,12.608,0,0,1-.607-1.437,4.21,4.21,0,0,1-.165-.938l-.09.022-.09.025-.09.036h0l-.083.05a3.141,3.141,0,0,0,.083.316,12.093,12.093,0,0,0,.614,1.437c1.48,3.276,1.469,7.023,2.687,10.418a.978.978,0,0,0,.226.4.535.535,0,0,0,.183.111c-.011-.043-.022-.065-.029-.09Z" transform="translate(32.101 -40.311)" fill="url(#c)"/><path d="M235.529,139.221a8.378,8.378,0,0,0-1.379,2.134c-.054.119-.108.233-.158.359a34.8,34.8,0,0,0-2.127,8.676s-.984-.442-2.378-1.132c-2.6-1.286-6.606-3.427-8.227-5.134-.718-.772-.977-1.455-.381-1.933a4.418,4.418,0,0,0,.4-.359,11.423,11.423,0,0,0,1.254-1.487c.517-.718,1.027-1.52,1.509-2.342.284-.481.553-.966.8-1.437l.1-.187c1.078-2.044,1.864-3.79,1.864-3.79s.359.115.941.32C230.431,133.869,237.821,136.782,235.529,139.221Z" transform="translate(34.272 -37.305)" fill="#efb7b9"/><path d="M277.974,212.739s.438,3.255,1,6.689l-1.275-.065q-5.116-.266-10.242-.679c-1.94-4.494-3.952-9.829-3.952-9.911s-.061-1.839-.129-3.8c-.022-.69-.047-1.4-.068-2.069h0c-.036-1.013-.068-1.926-.086-2.493,0-.388-.022-.618-.022-.618s-1.846.323-3.506.55l-.736.1c-.381.047-.718.083-1.024.1a2.633,2.633,0,0,1-.794,0c-.568-.219.611-5.748.611-5.748l2.931-7.095.819-1.976.359-.09c.176-.043.413-.093.7-.147,2.8-.514,10.274-1.168,11.542,6.211,1.57,9.114,1.8,11.162,1.8,11.162Z" transform="translate(41 -27.59)" fill="#efb7b9"/><path d="M277.233,220.761h-.011Z" transform="translate(44.575 -21.024)" fill="#efb7b9"/><path d="M277.974,212.739s.438,3.255,1,6.689l-1.275-.065q-5.116-.266-10.242-.679c-1.94-4.494-3.952-9.829-3.952-9.911s-.061-1.839-.129-3.8c-.022-.69-.047-1.4-.068-2.069h0c-.036-1.013-.068-1.926-.086-2.493,0-.388-.022-.618-.022-.618s-1.846.323-3.506.55l-.736.1c-.381.047-.718.083-1.024.1a2.633,2.633,0,0,1-.794,0c-.568-.219.611-5.748.611-5.748l2.931-7.095.819-1.976.359-.09c.176-.043.413-.093.7-.147,2.8-.514,10.274-1.168,11.542,6.211,1.57,9.114,1.8,11.162,1.8,11.162Z" transform="translate(41 -27.59)" opacity="0.05"/><path d="M277.233,220.761h-.011Z" transform="translate(44.575 -21.024)" opacity="0.05"/><path d="M277.843,219.053q-5.116-.266-10.242-.679l-1.293-.1-.571-.047c-1.609-3.883-3.039-7.681-3.039-7.749s-.061-1.839-.129-3.8c-.083-2.45-.176-5.18-.176-5.18l-.241.04-.1.018h-.129l-.578.1-.316.05c-.571.093-1.261.2-1.936.295l-.151.022-.4.05-.359.043h0c-.277.036-.539.065-.776.086l-.291.025a2.516,2.516,0,0,1-.794,0c-.568-.219.611-5.748.611-5.748l3.75-9.071.129-.036c.2-.05.614-.147,1.178-.244.212-.036.445-.072.7-.1,3.255-.417,9.448-.3,10.594,6.359,1.57,9.114,1.8,11.162,1.8,11.162l2.094,9.908S277.448,216.492,277.843,219.053Z" transform="translate(40.85 -27.281)" fill="#efb7b9"/><path d="M262.42,204.618c-.083-2.45-.176-5.184-.176-5.184s-3.592.629-5.266.751l.338-1.142s6.15-1.7,6.279-.74A43.762,43.762,0,0,1,262.42,204.618Z" transform="translate(40.999 -25.225)" opacity="0.1"/><path d="M262.7,185.427v2.6a51.822,51.822,0,0,1-2.705,11.815c-.05.154-.1.305-.162.456a16.3,16.3,0,0,1-.891,2c-.675.093-1.329.172-1.814.208a2.625,2.625,0,0,1-.794,0c-.568-.219.607-5.748.607-5.748l3.75-9.067.133-.036.815-1.979A9.474,9.474,0,0,1,262.7,185.427Z" transform="translate(40.851 -27.549)" opacity="0.1"/><path d="M270.567,185.081v3.007a51.868,51.868,0,0,1-2.705,11.819c-.061.187-.129.359-.2.55s-.158.417-.248.618c-.2.478-.42.941-.654,1.387h0a23.993,23.993,0,0,1-6.56,7.508c-.266.2-.514.384-.719.535h-.018c-.359.244-.618.42-.783.525s-.18.111-.18.111c-1.7-1.045-6.542-1.221-6.542-1.221l-11.294,2.051a65.459,65.459,0,0,1-7.461.848l-1.283.061c-.74.029-1.509.047-2.3.05-.636,0-1.283,0-1.94-.025h0a46.729,46.729,0,0,1-6.337-.593,31.643,31.643,0,0,1-3.42-.758,24.067,24.067,0,0,1-2.367-.79c-7.9-3.1-5.845-10.465-4.512-13.651.072-.169.14-.323.2-.467.295-.65.514-1.031.514-1.031l.525-1.268h0l.859-2.08.19-.456.054-.133.636-1.541,8.981-1.164,6.6-.855,2.008-.259,1.362-.176,2.6-.338.977-.126a12.154,12.154,0,0,1,1.821-.144,2.546,2.546,0,0,1,.97.144c.718.327,6.193-.568,6.193-.568a23.069,23.069,0,0,1,8.022-.873,44.62,44.62,0,0,0,5.572.036h0l.46-.022.6-.025h.129C265.179,185.541,270.567,185.081,270.567,185.081Z" transform="translate(32.284 -27.612)" fill="#444053"/><path d="M234.536,192.76s-4.311,9.811-4.49,9.983a8.828,8.828,0,0,0,0,3.054c.172-.18,6.15-13.428,6.15-13.428Z" transform="translate(36.001 -26.267)" opacity="0.1"/><path d="M253.682,185.7a11.216,11.216,0,0,0-2.834,2.543c-.654,1.135-6.628,12.426-8.108,14.082a36.172,36.172,0,0,0-3.316,4.717c-.172.3-.172,2.173.873.384s.787-2.091,2.834-4.311,4.311-7.239,5.187-8.241,2.094-4.013,3.621-5.8l2.924-3.416Z" transform="translate(37.742 -27.506)" opacity="0.1"/><path d="M252.4,202.1a2.166,2.166,0,0,0-2.964.74C247.995,204.62,252.4,202.1,252.4,202.1Z" transform="translate(39.552 -24.527)" opacity="0.1"/><path d="M253.779,202.5s-1.265,2.206-1.875,2.382S253.779,202.5,253.779,202.5Z" transform="translate(40.044 -24.395)" opacity="0.1"/><path d="M252.181,202.966s-1,1.746-1.875,1.57Z" transform="translate(39.767 -24.31)" opacity="0.1"/><path d="M246.229,163.5s9.243-.392,10.159-.7,9.024-1.351,9.024-1.351,24.026,1.7,17.182,3.75-16.133,1.175-16.133,1.175-9.071,2.357-10.465,3.592-11.686,1.265-11.686,1.265Z" transform="translate(38.66 -31.976)" fill="#efb7b9"/><path d="M246.229,163.5s9.243-.392,10.159-.7,9.024-1.351,9.024-1.351,24.026,1.7,17.182,3.75-16.133,1.175-16.133,1.175-9.071,2.357-10.465,3.592-11.686,1.265-11.686,1.265Z" transform="translate(38.66 -31.976)" opacity="0.05"/><path d="M219.029,145.433s-8.46,2.874-4.361,10.2a32.692,32.692,0,0,0,9.376,10.777l13.6,9.419s5.712,3.269,8.327,1.918l4.271-.359.718-11.208s-3.592,2.791-7.5-1.078-8.722-6.5-9.114-8.589S223.954,143.644,219.029,145.433Z" transform="translate(32.979 -34.971)" fill="#a36468"/><path d="M240.735,165.949s4.4,1.57,4.232,1.656-4.232,1.613-4.232,1.613l.305,5.974,5.974-.327s2.181-10.878.305-11.97l-6.585-.305Z" transform="translate(38 -31.766)" fill="#67647e"/><path d="M240.735,165.949s4.4,1.57,4.232,1.656-4.232,1.613-4.232,1.613l.305,5.974,5.974-.327s2.181-10.878.305-11.97l-6.585-.305Z" transform="translate(38 -31.766)" opacity="0.1"/><path d="M234.86,139.22a8.378,8.378,0,0,0-1.379,2.134c-.054.119-.108.233-.158.359-3.208,0-5.514-2.493-7.483-4.724-.359-.413-1.268.212-1.566-.251-.032-.054-.065-.108-.1-.162l.1-.187c1.078-2.044,1.864-3.79,1.864-3.79s.359.115.941.32C229.762,133.867,237.152,136.781,234.86,139.22Z" transform="translate(34.941 -37.304)" opacity="0.1"/><path d="M244.45,132.552a10.813,10.813,0,0,1-10.713,10.809h-.1a10.8,10.8,0,0,1-8.112-3.664,11.015,11.015,0,0,1-.991-1.311,10.817,10.817,0,1,1,19.92-5.834Z" transform="translate(34.691 -39.311)" fill="#efb7b9"/><path d="M235.663,187.471s-.823,1.006-1.732,1.943a6.753,6.753,0,0,1-1.89,1.545c-1.078.4-6.017,4.142-6.017,4.142s-3.923,2.662-4.925,3.445-4.623.305-4.623.305a20.768,20.768,0,0,1-5.644-2.155,14.031,14.031,0,0,1,.718-1.494l2.267-5.5,8.981-1.16Z" transform="translate(32.478 -27.171)" opacity="0.1"/><path d="M235.76,186.882s-.819,1.006-1.728,1.943a7.014,7.014,0,0,1-1.89,1.545c-1.078.392-6.017,4.142-6.017,4.142s-3.926,2.662-4.929,3.445-4.62.305-4.62.305-4.972-1.078-6.718-3.054c-1.221-1.376.043-3.926.905-5.331a10.773,10.773,0,0,1,.665-.991Z" transform="translate(32.205 -27.28)" fill="#67647e"/><path d="M239.078,160.75c-2.967-.262-12.735-12.214-12.735-12.214l.223-.305,2.048-2.834H233.4l.528,2.615c3.643,5.108,5.787,8.661,6.369,10.695C240.72,160.186,240.321,160.861,239.078,160.75Z" transform="translate(35.342 -34.941)" fill="#67647e"/><path d="M239.078,160.308c-2.967-.262-12.735-12.214-12.735-12.214l.223-.305a55.155,55.155,0,0,1,4.925,5.144c7.149,8.413,8.564,6.064,8.809,5.331C240.72,159.744,240.321,160.419,239.078,160.308Z" transform="translate(35.342 -34.499)" opacity="0.1"/><path d="M235.54,186.882s-.819,1.006-1.728,1.943a4.9,4.9,0,0,1-1.5.323c-1.135-.043-3.75,1.746-3.75,1.746s-4.62-.262-5.493.216-4.232.568-4.232.568c-6.147,1.753-7.846-.909-8.295-1.8a10.775,10.775,0,0,1,.665-.992Z" transform="translate(32.425 -27.28)" opacity="0.1"/><path d="M246.235,168.841a3.788,3.788,0,0,1-.054.5c-.022.162-.043.327-.068.481a7.9,7.9,0,0,1-.787,2.547c-.783,1.308-3.183,6.409-3.183,6.409l-.162.941-.083.492-.086.485-.586,3.438-.262,3.97s-1.437,2-2.048,2.874a3.936,3.936,0,0,0-.305,3.054c.219.916-2,1.045-2,1.045s-3.14,1.527-4.275,1.484-3.75,1.739-3.75,1.739-4.62-.262-5.493.219-4.232.568-4.232.568c-6.581,1.872-8.065-1.311-8.37-1.965s1.308-3.312,1.308-3.312.359-3.359,1.045-3.621,1.527-4.706,1.527-4.706a3.11,3.11,0,0,1,.305-2.094c.568-.74.525-2.834,1.265-3.837s-.783-4.361-.521-5.234-.83-4.4-.744-5.32-.216-1.656-.916-3.488c-.6-1.563-.427-8.507-.359-10.5,0-.338.018-.532.018-.532s.611-1.965,2.224-5.888a7.993,7.993,0,0,1,5.23-4.462,6.561,6.561,0,0,1,.657-.162,4.616,4.616,0,0,1,.927.233c1.272.428,3.815,1.638,7.443,5.029a55.8,55.8,0,0,1,4.537,4.785c8.18,9.613,8.848,5.126,8.848,5.126s.359.819,2.044,4.088A10.4,10.4,0,0,1,246.235,168.841Z" transform="translate(32.407 -35.204)" fill="#a36468"/><path d="M231.218,145.97l-8.205-6.545s-2.957.359-4.178,5.324l8.446,7.4Z" transform="translate(33.956 -36.043)" opacity="0.1"/><path d="M231.244,146.021l-1.437,2.008-1.459,2.058-1.1,1.613-6.743-5.68-1.16-1.006-.65-.553a7.593,7.593,0,0,1,2.755-4.67,3.423,3.423,0,0,1,1.437-.643Z" transform="translate(33.93 -36.094)" fill="#67647e"/><path d="M282.883,167.408c-6.847,2.048-16.133,1.178-16.133,1.178s-9.071,2.353-10.465,3.592c-.9.787-5.486,1.078-8.622,1.2-1.742.065-3.046.068-3.046.068l1.915-7.734,1.106-.05c2.482-.115,8.334-.41,9.053-.65.916-.305,9.024-1.351,9.024-1.351S289.727,165.356,282.883,167.408Z" transform="translate(38.717 -31.569)" fill="#efb7b9"/><path d="M245.486,169.082a7.9,7.9,0,0,1-.787,2.547c-.783,1.308-3.183,6.409-3.183,6.409l-.331,1.936a23.63,23.63,0,0,1-3.233-1.487l-13.615-9.43a32.643,32.643,0,0,1-9.376-10.777c-4.1-7.332,4.361-10.2,4.361-10.2,4.925-1.8,14.912,8.981,15.3,11.075s5.191,4.71,9.114,8.589A7.975,7.975,0,0,0,245.486,169.082Z" transform="translate(33.033 -34.483)" opacity="0.1"/><path d="M245.608,168.283c-.032.341-.072.668-.122.981a7.9,7.9,0,0,1-.787,2.547c-.783,1.308-3.183,6.409-3.183,6.409l-.162.941a23.3,23.3,0,0,1-3.413-1.552l-13.6-9.434a32.643,32.643,0,0,1-9.376-10.777c-4.1-7.332,4.361-10.206,4.361-10.206,4.925-1.8,14.912,8.981,15.3,11.075s5.191,4.71,9.114,8.593a7.864,7.864,0,0,0,1.868,1.423Z" transform="translate(33.033 -34.646)" opacity="0.1"/><path d="M251.241,168.4l-.7,11.2-4.275.359a2.093,2.093,0,0,1-.291.126c-2.723,1-8.036-2.044-8.036-2.044l-13.6-9.43a32.643,32.643,0,0,1-9.376-10.777c-4.1-7.332,4.361-10.2,4.361-10.2,4.925-1.8,14.912,8.981,15.3,11.075s5.191,4.71,9.114,8.589a7.829,7.829,0,0,0,1.961,1.437A5.356,5.356,0,0,0,251.241,168.4Z" transform="translate(33.033 -34.564)" fill="#a36468"/><path d="M246.275,165.131l-.7,11.2-4.275.359a2.094,2.094,0,0,1-.291.126l-.277-5.446s4.056-1.527,4.232-1.613-4.232-1.656-4.232-1.656v-2.6a5.356,5.356,0,0,0,5.539-.37Z" transform="translate(38 -31.296)" opacity="0.1"/><path d="M247.648,173.045c-1.742.065-3.046.068-3.046.068l1.933-7.716,1.106-.05C248.352,166.571,248.047,170.171,247.648,173.045Z" transform="translate(38.714 -31.257)" opacity="0.1"/><path d="M241.03,168.156s4.4,1.57,4.232,1.656-4.232,1.613-4.232,1.613l.305,5.974,5.974-.327s2.181-10.878.305-11.97l-6.585-.305Z" transform="translate(38.054 -31.358)" fill="#67647e"/><path d="M219.405,173.67a9.023,9.023,0,0,1-2.705,1.764Z" transform="translate(33.562 -29.72)" opacity="0.1"/><path d="M216,177.333s3.618-.133,4.052-.873S216,177.333,216,177.333Z" transform="translate(33.433 -29.24)" opacity="0.1"/><path d="M214.493,181.729c.219,0,4.577-.611,4.753-1.178Z" transform="translate(33.154 -28.449)" opacity="0.1"/><path d="M213.353,184.616c1.57-.047,4.228-1.746,4.228-1.746Z" transform="translate(32.943 -28.021)" opacity="0.1"/><path d="M221.928,185.426s9.462,0,9.9-1.742S221.928,185.426,221.928,185.426Z" transform="translate(34.527 -27.961)" opacity="0.1"/><path d="M227.926,164.7c.176,0,7.458,0,8.155-1S227.926,164.7,227.926,164.7Z" transform="translate(35.635 -31.612)" opacity="0.1"/><path d="M222.677,140.532a6.958,6.958,0,0,1,.093,1.078,6.676,6.676,0,0,1-.108,1.2,10.357,10.357,0,0,1-.675,2.181l-.075.176c-.108.251-.223.5-.341.74a20.348,20.348,0,0,1-1.882,3.1,33.941,33.941,0,0,1-5.647,5.874q-.55.463-1.11.916c0-.338.018-.532.018-.532s.611-1.965,2.224-5.888a7.993,7.993,0,0,1,5.231-4.462l-.65-.553a7.593,7.593,0,0,1,2.755-4.67C222.566,139.958,222.634,140.238,222.677,140.532Z" transform="translate(32.866 -35.994)" opacity="0.1"/><path d="M242.862,126.919a1.265,1.265,0,0,0-.316.126c-.683.377-.88,1.272-1.437,1.836a4.141,4.141,0,0,1-2.565.88,3.16,3.16,0,0,0-2.425,1.128,5.777,5.777,0,0,0-.456,2,.636.636,0,0,1-.14.331.647.647,0,0,1-.438.144c-1.8.126-3.1-.492-4.785-.927a2.556,2.556,0,0,0-2.314.359,2.631,2.631,0,0,0-.683,2.033v.065a13.888,13.888,0,0,1,.065,2.155,3.557,3.557,0,0,1-1.879,2.633,3.323,3.323,0,0,1-1.358.388,1.1,1.1,0,0,1-.539-.079c.32-.546.625-1.078.905-1.62a10.816,10.816,0,1,1,18.351-11.453Z" transform="translate(34.698 -39.293)" opacity="0.1"/><path d="M248.261,126.477a1.825,1.825,0,0,1-.6.736c-.819.532-1.994-.054-2.849.42-.686.377-.88,1.272-1.437,1.836a4.126,4.126,0,0,1-2.565.88,3.16,3.16,0,0,0-2.425,1.128,5.839,5.839,0,0,0-.456,2,.607.607,0,0,1-.14.331.658.658,0,0,1-.438.144c-1.8.126-3.1-.5-4.785-.927a2.551,2.551,0,0,0-2.31.359,2.5,2.5,0,0,0-.686,2.037,15.75,15.75,0,0,1,.068,2.213,3.592,3.592,0,0,1-3.233,3.021.884.884,0,0,1-.665-.169.952.952,0,0,1-.219-.4c-1.2-3.362-1.185-7.1-2.637-10.357a11.7,11.7,0,0,1-.607-1.437c-.029-.1-.057-.2-.079-.309a4.721,4.721,0,0,1-.086-.629.9.9,0,0,0-.41.169.755.755,0,0,0-.115.122,2.13,2.13,0,0,0-.3,1.139,43.11,43.11,0,0,0,1.293,13.353,13.958,13.958,0,0,1,.621,3.352,8.956,8.956,0,0,1-.862,3.553c-2.252,5.195-6.779,9-11.28,12.437a5,5,0,0,0,1.336-3.711,1.466,1.466,0,0,1-1.139,1.02,4.39,4.39,0,0,1-1.606-.025c.69-.226.959-1.038,1.132-1.742q.528-2.155.981-4.35a27.39,27.39,0,0,0,.632-4.246c.054-1.214-.04-2.432-.09-3.65a73.878,73.878,0,0,1,.359-10c.266-2.874.747-5.981,2.856-7.943a12.408,12.408,0,0,1,3.018-1.882c0-.359,2.633-1.078,2.982-1.128a2.833,2.833,0,0,1,.438-.05.9.9,0,0,1,.938.492c.129-.234.273-.463.424-.683a7.96,7.96,0,0,1,.683-.859,39.479,39.479,0,0,1,4.728-3.851,12.157,12.157,0,0,1,1.882-1.387,6.775,6.775,0,0,1,2.82-.718,11.442,11.442,0,0,1,4.76.747c2.184.841,4.092,2.349,6.351,2.96a15.114,15.114,0,0,1,1.649.456,3.995,3.995,0,0,1,2.084,5.539Z" transform="translate(32.26 -40.231)" fill="#444053"/><g transform="translate(241.895 83.383)" opacity="0.1"><path d="M211.883,152.452a4.964,4.964,0,0,0,.327-2.119,1.473,1.473,0,0,1-1.142,1.02,2.329,2.329,0,0,1-.417.061,1.8,1.8,0,0,1-1.013,1.308,4.394,4.394,0,0,0,1.606.029,1.8,1.8,0,0,0,.639-.3Z" transform="translate(-209.638 -117.412)"/><path d="M246.746,122.543a4.017,4.017,0,0,1-.431,1.631,1.85,1.85,0,0,1-.6.718c-.815.532-1.994-.05-2.849.42-.683.377-.88,1.275-1.437,1.836a4.119,4.119,0,0,1-2.565.88,3.208,3.208,0,0,0-2.425,1.128,5.777,5.777,0,0,0-.456,2,.5.5,0,0,1-.578.478c-1.8.126-3.1-.5-4.785-.93a2.556,2.556,0,0,0-2.314.359,2.639,2.639,0,0,0-.683,2.037,15.147,15.147,0,0,1,.065,2.209,3.571,3.571,0,0,1-3.233,3.025.894.894,0,0,1-.665-.169.966.966,0,0,1-.219-.4c-1.2-3.362-1.189-7.095-2.64-10.353a12.58,12.58,0,0,1-.6-1.437,4.218,4.218,0,0,1-.169-.938.79.79,0,0,0-.525.291,2.206,2.206,0,0,0-.3,1.139,43.356,43.356,0,0,0,.359,8.622,43.464,43.464,0,0,1-.176-7.235,2.13,2.13,0,0,1,.3-1.139.754.754,0,0,1,.524-.291,4.245,4.245,0,0,0,.165.938,12.287,12.287,0,0,0,.607,1.437c1.437,3.262,1.437,6.991,2.637,10.353a.992.992,0,0,0,.223.4.87.87,0,0,0,.661.2,3.592,3.592,0,0,0,3.233-3.021,15.74,15.74,0,0,0-.068-2.213,2.7,2.7,0,0,1,.686-2.037,2.5,2.5,0,0,1,2.31-.359c1.681.431,2.982,1.053,4.785.927a.658.658,0,0,0,.438-.144.622.622,0,0,0,.14-.334,5.738,5.738,0,0,1,.456-1.994,3.169,3.169,0,0,1,2.425-1.132,4.148,4.148,0,0,0,2.569-.877c.542-.564.736-1.458,1.437-1.839.851-.471,2.03.115,2.849-.417a1.825,1.825,0,0,0,.6-.736A4.074,4.074,0,0,0,246.746,122.543Z" transform="translate(-207.862 -122.543)"/><path d="M222.808,140a8.981,8.981,0,0,1-.859,3.553c-2.015,4.645-5.852,8.18-9.858,11.33a5.029,5.029,0,0,1-1.25,2.515c4.5-3.434,9.031-7.239,11.28-12.433a8.956,8.956,0,0,0,.862-3.553,7.869,7.869,0,0,0-.183-1.563C222.8,139.885,222.808,139.943,222.808,140Z" transform="translate(-209.416 -119.348)"/></g><path d="M221.57,122.51c-.323,1.487-.769,3.42-1.1,4.415a5.39,5.39,0,0,1-.086-.629.887.887,0,0,0-.406.169c0-1.045.126-2.6.234-3.765a.905.905,0,0,1,.941.492A6.243,6.243,0,0,1,221.57,122.51Z" transform="translate(34.166 -39.167)" opacity="0.1"/><path d="M221.425,122.51c-.323,1.487-.769,3.42-1.1,4.415a4.723,4.723,0,0,1-.086-.629.9.9,0,0,0-.41.169c0-1.045.126-2.6.237-3.765a.9.9,0,0,1,.938.492C221.131,122.963,221.292,122.733,221.425,122.51Z" transform="translate(34.139 -39.167)" fill="#67647e"/><g transform="translate(68.185 3.97)" opacity="0.7"><path d="M76.85,74.131l20.34,39.807L63,74.131Z" transform="translate(-63.005 -52.07)" fill="#ea6c00"/><path d="M112.2,74.131l-20.34,39.807L126.05,74.131Z" transform="translate(-57.676 -52.07)" fill="#ea6c00"/><path d="M74.692,74.131h40.677L95.032,113.938Z" transform="translate(-60.847 -52.07)" fill="#fdad00"/><path d="M95.033,55.509l-19.27,2.037L74.686,77.569Z" transform="translate(-60.848 -55.509)" fill="#fdd231"/><path d="M91.861,55.509l19.266,2.037,1.078,20.024Z" transform="translate(-57.676 -55.509)" fill="#fdd231"/><path d="M123.046,77.252,108.13,57.228l1.078,20.024Z" transform="translate(-54.672 -55.191)" fill="#fdad00"/><path d="M63,77.252,77.92,57.228,76.843,77.252Z" transform="translate(-63.005 -55.191)" fill="#fdad00"/><path d="M95.032,55.509,74.692,77.569h40.677Z" transform="translate(-60.847 -55.509)" fill="#feeeb7"/></g></g></g></svg>