<?xml version="1.0" encoding="UTF-8"?>
<svg width="700pt" height="700pt" version="1.1" viewBox="0 0 700 700" xmlns="http://www.w3.org/2000/svg" xmlns:xlink="http://www.w3.org/1999/xlink">
 <defs>
  <symbol id="w" overflow="visible">
   <path d="m17.875-1.0625c-0.92969 0.46875-1.8906 0.82422-2.8906 1.0625-0.99219 0.25-2.0312 0.375-3.125 0.375-3.2422 0-5.8086-0.89844-7.7031-2.7031-1.8867-1.8125-2.8281-4.2695-2.8281-7.375 0-3.1016 0.94141-5.5625 2.8281-7.375 1.8945-1.8125 4.4609-2.7188 7.7031-2.7188 1.0938 0 2.1328 0.125 3.125 0.375 1 0.24219 1.9609 0.60156 2.8906 1.0781v4.0156c-0.9375-0.63281-1.8594-1.0977-2.7656-1.3906-0.89844-0.28906-1.8438-0.4375-2.8438-0.4375-1.793 0-3.1992 0.57422-4.2188 1.7188-1.0234 1.1484-1.5312 2.7266-1.5312 4.7344 0 2.0117 0.50781 3.5898 1.5312 4.7344 1.0195 1.1484 2.4258 1.7188 4.2188 1.7188 1 0 1.9453-0.14453 2.8438-0.4375 0.90625-0.30078 1.8281-0.76953 2.7656-1.4062z"/>
  </symbol>
  <symbol id="e" overflow="visible">
   <path d="m13.078-10.609c-0.40625-0.19531-0.8125-0.33594-1.2188-0.42188-0.40625-0.09375-0.8125-0.14062-1.2188-0.14062-1.1992 0-2.1211 0.38672-2.7656 1.1562-0.64844 0.76172-0.96875 1.8594-0.96875 3.2969v6.7188h-4.6719v-14.594h4.6719v2.4062c0.59375-0.95703 1.2734-1.6562 2.0469-2.0938 0.78125-0.4375 1.7188-0.65625 2.8125-0.65625 0.15625 0 0.32031 0.007812 0.5 0.015625 0.1875 0.011719 0.45312 0.042969 0.79688 0.09375z"/>
  </symbol>
  <symbol id="a" overflow="visible">
   <path d="m16.797-7.3281v1.3281h-10.891c0.10156 1.0938 0.49219 1.918 1.1719 2.4688 0.67578 0.54297 1.625 0.8125 2.8438 0.8125 0.97656 0 1.9844-0.14453 3.0156-0.4375 1.0312-0.28906 2.0859-0.73438 3.1719-1.3281v3.5938c-1.1055 0.41797-2.2109 0.73047-3.3125 0.9375-1.1055 0.21875-2.2031 0.32812-3.2969 0.32812-2.6484 0-4.7031-0.66406-6.1719-2-1.4609-1.3438-2.1875-3.2266-2.1875-5.6562 0-2.375 0.71875-4.2422 2.1562-5.6094 1.4375-1.3633 3.4141-2.0469 5.9375-2.0469 2.2891 0 4.125 0.69531 5.5 2.0781 1.375 1.375 2.0625 3.2188 2.0625 5.5312zm-4.7969-1.5469c0-0.88281-0.26172-1.5977-0.78125-2.1406-0.51172-0.55078-1.1836-0.82812-2.0156-0.82812-0.89844 0-1.6328 0.25781-2.2031 0.76562-0.5625 0.51172-0.91406 1.2461-1.0469 2.2031z"/>
  </symbol>
  <symbol id="d" overflow="visible">
   <path d="m8.7812-6.5625c-0.98047 0-1.7148 0.16797-2.2031 0.5-0.49219 0.32422-0.73438 0.80859-0.73438 1.4531 0 0.59375 0.19531 1.0586 0.59375 1.3906 0.39453 0.33594 0.94531 0.5 1.6562 0.5 0.875 0 1.6094-0.3125 2.2031-0.9375 0.60156-0.63281 0.90625-1.4258 0.90625-2.375v-0.53125zm7.125-1.7656v8.3281h-4.7031v-2.1562c-0.625 0.88672-1.3281 1.5312-2.1094 1.9375-0.78125 0.39453-1.7344 0.59375-2.8594 0.59375-1.5117 0-2.7422-0.4375-3.6875-1.3125-0.9375-0.88281-1.4062-2.0312-1.4062-3.4375 0-1.707 0.58594-2.9609 1.7656-3.7656 1.1758-0.80078 3.0234-1.2031 5.5469-1.2031h2.75v-0.35938c0-0.73828-0.29297-1.2812-0.875-1.625-0.58594-0.34375-1.4922-0.51562-2.7188-0.51562-1 0-1.9336 0.10547-2.7969 0.3125-0.85547 0.19922-1.6523 0.49609-2.3906 0.89062v-3.5625c1-0.23828 2-0.42188 3-0.54688 1.0078-0.125 2.0195-0.1875 3.0312-0.1875 2.625 0 4.5195 0.52344 5.6875 1.5625 1.1758 1.0312 1.7656 2.7148 1.7656 5.0469z"/>
  </symbol>
  <symbol id="c" overflow="visible">
   <path d="m7.3281-18.734v4.1406h4.8125v3.3438h-4.8125v6.1875c0 0.67969 0.13281 1.1367 0.40625 1.375 0.26953 0.24219 0.80469 0.35938 1.6094 0.35938h2.3906v3.3281h-4c-1.8438 0-3.1523-0.38281-3.9219-1.1562-0.76172-0.76953-1.1406-2.0703-1.1406-3.9062v-6.1875h-2.3125v-3.3438h2.3125v-4.1406z"/>
  </symbol>
  <symbol id="j" overflow="visible">
   <path d="m12.156-12.453v-7.8125h4.7031v20.266h-4.7031v-2.1094c-0.63672 0.85547-1.3438 1.4844-2.125 1.8906-0.77344 0.39453-1.6641 0.59375-2.6719 0.59375-1.8047 0-3.2812-0.71094-4.4375-2.1406-1.1484-1.4258-1.7188-3.2656-1.7188-5.5156s0.57031-4.0859 1.7188-5.5156c1.1562-1.4258 2.6328-2.1406 4.4375-2.1406 1.0078 0 1.8984 0.20312 2.6719 0.60938 0.78125 0.39844 1.4883 1.0234 2.125 1.875zm-3.0625 9.4375c1 0 1.7578-0.36328 2.2812-1.0938 0.51953-0.72656 0.78125-1.7852 0.78125-3.1719 0-1.3828-0.26172-2.4414-0.78125-3.1719-0.52344-0.72656-1.2812-1.0938-2.2812-1.0938-0.99219 0-1.75 0.36719-2.2812 1.0938-0.52344 0.73047-0.78125 1.7891-0.78125 3.1719 0 1.3867 0.25781 2.4453 0.78125 3.1719 0.53125 0.73047 1.2891 1.0938 2.2812 1.0938z"/>
  </symbol>
  <symbol id="i" overflow="visible">
   <path d="m10-3.0156c1 0 1.7578-0.36328 2.2812-1.0938 0.53125-0.72656 0.79688-1.7852 0.79688-3.1719 0-1.3828-0.26562-2.4414-0.79688-3.1719-0.52344-0.72656-1.2812-1.0938-2.2812-1.0938s-1.7656 0.37109-2.2969 1.1094c-0.53125 0.73047-0.79688 1.7812-0.79688 3.1562 0 1.3867 0.26562 2.4453 0.79688 3.1719 0.53125 0.73047 1.2969 1.0938 2.2969 1.0938zm-3.0938-9.4375c0.63281-0.85156 1.3438-1.4766 2.125-1.875 0.78125-0.40625 1.6797-0.60938 2.7031-0.60938 1.8008 0 3.2734 0.71484 4.4219 2.1406 1.1562 1.4297 1.7344 3.2656 1.7344 5.5156s-0.57812 4.0898-1.7344 5.5156c-1.1484 1.4297-2.6211 2.1406-4.4219 2.1406-1.0234 0-1.9219-0.19922-2.7031-0.59375-0.78125-0.40625-1.4922-1.0352-2.125-1.8906v2.1094h-4.6719v-20.266h4.6719z"/>
  </symbol>
  <symbol id="h" overflow="visible">
   <path d="m0.32812-14.594h4.6562l3.9219 9.9062 3.3281-9.9062h4.6719l-6.1406 15.969c-0.61719 1.625-1.3359 2.7578-2.1562 3.4062-0.8125 0.64453-1.8984 0.96875-3.25 0.96875h-2.6875v-3.0469h1.4531c0.78906 0 1.3633-0.13281 1.7188-0.39062 0.36328-0.25 0.64453-0.69922 0.84375-1.3438l0.14062-0.40625z"/>
  </symbol>
  <symbol id="g" overflow="visible">
   <path d="m2.4531-19.438h6.375l4.4219 10.406 4.4688-10.406h6.3594v19.438h-4.7344v-14.219l-4.4844 10.484h-3.1719l-4.4844-10.484v14.219h-4.75z"/>
  </symbol>
  <symbol id="v" overflow="visible">
   <path d="m5.9219-7.4688-5.25-7.125h4.9219l2.9844 4.3281 3.0312-4.3281h4.9375l-5.2656 7.1094 5.5156 7.4844h-4.9375l-3.2812-4.6094-3.2344 4.6094h-4.9375z"/>
  </symbol>
  <symbol id="u" overflow="visible">
   <path d="m2.2344-14.594h4.6719v14.594h-4.6719zm0-5.6719h4.6719v3.7969h-4.6719z"/>
  </symbol>
  <symbol id="f" overflow="visible">
   <path d="m15.766-12.156c0.58203-0.90625 1.2812-1.5938 2.0938-2.0625 0.8125-0.47656 1.7031-0.71875 2.6719-0.71875 1.6758 0 2.9531 0.51562 3.8281 1.5469 0.88281 1.0312 1.3281 2.5391 1.3281 4.5156v8.875h-4.6875v-7.6094-0.34375c0.007812-0.125 0.015625-0.30078 0.015625-0.53125 0-1.0312-0.15234-1.7734-0.45312-2.2344-0.30469-0.46875-0.79297-0.70312-1.4688-0.70312-0.88672 0-1.5742 0.36719-2.0625 1.0938-0.48047 0.73047-0.72656 1.7891-0.73438 3.1719v7.1562h-4.6875v-7.6094c0-1.6133-0.14062-2.6484-0.42188-3.1094-0.28125-0.46875-0.77734-0.70312-1.4844-0.70312-0.89844 0-1.5898 0.37109-2.0781 1.1094-0.48047 0.73047-0.71875 1.7773-0.71875 3.1406v7.1719h-4.6875v-14.594h4.6875v2.1406c0.57031-0.82031 1.2266-1.4414 1.9688-1.8594 0.73828-0.41406 1.5547-0.625 2.4531-0.625 1.0078 0 1.8984 0.24609 2.6719 0.73438 0.76953 0.48047 1.3594 1.1641 1.7656 2.0469z"/>
  </symbol>
  <symbol id="t" overflow="visible">
   <path d="m15.984-18.828v4.1094c-1.0742-0.47656-2.1211-0.83594-3.1406-1.0781-1.0117-0.23828-1.9688-0.35938-2.875-0.35938-1.1992 0-2.0859 0.16797-2.6562 0.5-0.57422 0.32422-0.85938 0.83594-0.85938 1.5312 0 0.52344 0.19141 0.92969 0.57812 1.2188 0.39453 0.29297 1.0977 0.54297 2.1094 0.75l2.1406 0.42188c2.1562 0.4375 3.6875 1.1016 4.5938 1.9844 0.91406 0.88672 1.375 2.1406 1.375 3.7656 0 2.1484-0.63672 3.7461-1.9062 4.7969-1.2734 1.043-3.2148 1.5625-5.8281 1.5625-1.2305 0-2.4648-0.12109-3.7031-0.35938-1.2422-0.22656-2.4844-0.57031-3.7344-1.0312v-4.2344c1.25 0.65625 2.4531 1.1562 3.6094 1.5 1.1562 0.33594 2.2695 0.5 3.3438 0.5 1.0938 0 1.9297-0.17969 2.5156-0.54688 0.58203-0.36328 0.875-0.88281 0.875-1.5625 0-0.61328-0.19922-1.082-0.59375-1.4062-0.39844-0.33203-1.1836-0.62891-2.3594-0.89062l-1.9375-0.4375c-1.9492-0.41406-3.3711-1.0781-4.2656-1.9844-0.89844-0.91406-1.3438-2.1445-1.3438-3.6875 0-1.9375 0.625-3.4258 1.875-4.4688 1.25-1.0391 3.0469-1.5625 5.3906-1.5625 1.0625 0 2.1562 0.085937 3.2812 0.25 1.1328 0.15625 2.3047 0.39844 3.5156 0.71875z"/>
  </symbol>
  <symbol id="b" overflow="visible">
   <path d="m9.1875-11.609c-1.043 0-1.8359 0.375-2.375 1.125-0.54297 0.74219-0.8125 1.8086-0.8125 3.2031 0 1.3984 0.26953 2.4688 0.8125 3.2188 0.53906 0.74219 1.332 1.1094 2.375 1.1094 1.0078 0 1.7812-0.36719 2.3125-1.1094 0.53906-0.75 0.8125-1.8203 0.8125-3.2188 0-1.3945-0.27344-2.4609-0.8125-3.2031-0.53125-0.75-1.3047-1.125-2.3125-1.125zm0-3.3281c2.5 0 4.4531 0.67969 5.8594 2.0312 1.4141 1.3555 2.125 3.2305 2.125 5.625 0 2.3984-0.71094 4.2734-2.125 5.625-1.4062 1.3555-3.3594 2.0312-5.8594 2.0312-2.5234 0-4.4961-0.67578-5.9219-2.0312-1.418-1.3516-2.125-3.2266-2.125-5.625 0-2.3945 0.70703-4.2695 2.125-5.625 1.4258-1.3516 3.3984-2.0312 5.9219-2.0312z"/>
  </symbol>
  <symbol id="s" overflow="visible">
   <path d="m13.641-14.125v3.5312c-1-0.41406-1.9688-0.72656-2.9062-0.9375-0.92969-0.20703-1.8047-0.3125-2.625-0.3125-0.88672 0-1.543 0.11719-1.9688 0.34375-0.42969 0.21875-0.64062 0.55859-0.64062 1.0156 0 0.375 0.16016 0.66406 0.48438 0.85938 0.32031 0.19922 0.90625 0.34375 1.75 0.4375l0.82812 0.125c2.3828 0.30469 3.9883 0.80469 4.8125 1.5 0.82031 0.6875 1.2344 1.7773 1.2344 3.2656 0 1.5547-0.57422 2.7188-1.7188 3.5-1.1484 0.78125-2.8555 1.1719-5.125 1.1719-0.96875 0-1.9688-0.078125-3-0.23438-1.0234-0.14453-2.0742-0.36719-3.1562-0.67188v-3.5469c0.92578 0.44922 1.875 0.78906 2.8438 1.0156 0.97656 0.23047 1.9727 0.34375 2.9844 0.34375 0.90625 0 1.5859-0.125 2.0469-0.375 0.46875-0.25781 0.70312-0.63281 0.70312-1.125 0-0.41406-0.16406-0.72266-0.48438-0.92188-0.3125-0.20703-0.94531-0.36719-1.8906-0.48438l-0.8125-0.10938c-2.0859-0.25781-3.543-0.73828-4.375-1.4375-0.83594-0.70703-1.25-1.7734-1.25-3.2031 0-1.5508 0.53125-2.6953 1.5938-3.4375 1.0625-0.75 2.6875-1.125 4.875-1.125 0.85156 0 1.7539 0.070312 2.7031 0.20312 0.94531 0.125 1.9766 0.32812 3.0938 0.60938z"/>
  </symbol>
  <symbol id="r" overflow="visible">
   <path d="m11.844-20.266v3.0625h-2.5781c-0.66797 0-1.1328 0.12109-1.3906 0.35938-0.26172 0.24219-0.39062 0.65234-0.39062 1.2344v1.0156h3.9844v3.3438h-3.9844v11.25h-4.6562v-11.25h-2.3125v-3.3438h2.3125v-1.0156c0-1.582 0.44141-2.7539 1.3281-3.5156 0.88281-0.75781 2.2539-1.1406 4.1094-1.1406z"/>
  </symbol>
  <symbol id="q" overflow="visible">
   <path d="m16.906-8.875v8.875h-4.6875v-6.7656c0-1.2812-0.03125-2.1602-0.09375-2.6406-0.054688-0.47656-0.14844-0.82812-0.28125-1.0469-0.1875-0.30078-0.4375-0.53516-0.75-0.70312-0.3125-0.17578-0.66797-0.26562-1.0625-0.26562-0.98047 0-1.7461 0.375-2.2969 1.125-0.55469 0.75-0.82812 1.793-0.82812 3.125v7.1719h-4.6719v-20.266h4.6719v7.8125c0.69531-0.85156 1.4414-1.4766 2.2344-1.875 0.78906-0.40625 1.6641-0.60938 2.625-0.60938 1.6758 0 2.9531 0.51562 3.8281 1.5469s1.3125 2.5391 1.3125 4.5156z"/>
  </symbol>
  <symbol id="p" overflow="visible">
   <path d="m2.4531-19.438h5.5938l7.0781 13.328v-13.328h4.75v19.438h-5.5938l-7.0781-13.344v13.344h-4.75z"/>
  </symbol>
  <symbol id="o" overflow="visible">
   <path d="m2.0781-5.6719v-8.9219h4.6875v1.4688c0 0.79297-0.007813 1.7891-0.015625 2.9844v2.375c0 1.1797 0.023438 2.0273 0.078125 2.5469 0.0625 0.51172 0.17188 0.88281 0.32812 1.1094 0.1875 0.3125 0.42969 0.55469 0.73438 0.71875 0.3125 0.15625 0.66406 0.23438 1.0625 0.23438 0.97656 0 1.7422-0.36719 2.2969-1.1094 0.55078-0.75 0.82812-1.7891 0.82812-3.125v-7.2031h4.6719v14.594h-4.6719v-2.1094c-0.69922 0.85547-1.4453 1.4844-2.2344 1.8906-0.78125 0.39453-1.6484 0.59375-2.5938 0.59375-1.6797 0-2.9609-0.51562-3.8438-1.5469-0.88672-1.0312-1.3281-2.5312-1.3281-4.5z"/>
  </symbol>
  <symbol id="n" overflow="visible">
   <path d="m16.906-8.875v8.875h-4.6875v-6.7969c0-1.2578-0.03125-2.1289-0.09375-2.6094-0.054688-0.47656-0.14844-0.82812-0.28125-1.0469-0.1875-0.30078-0.4375-0.53516-0.75-0.70312-0.3125-0.17578-0.66797-0.26562-1.0625-0.26562-0.98047 0-1.7461 0.375-2.2969 1.125-0.55469 0.75-0.82812 1.793-0.82812 3.125v7.1719h-4.6719v-14.594h4.6719v2.1406c0.69531-0.85156 1.4414-1.4766 2.2344-1.875 0.78906-0.40625 1.6641-0.60938 2.625-0.60938 1.6758 0 2.9531 0.51562 3.8281 1.5469s1.3125 2.5391 1.3125 4.5156z"/>
  </symbol>
  <symbol id="m" overflow="visible">
   <path d="m2.4531-19.438h8.3125c2.4766 0 4.3789 0.54688 5.7031 1.6406 1.3203 1.0938 1.9844 2.6641 1.9844 4.7031 0 2.0312-0.66406 3.6016-1.9844 4.7031-1.3242 1.0938-3.2266 1.6406-5.7031 1.6406h-3.2969v6.75h-5.0156zm5.0156 3.625v5.4375h2.7656c0.96875 0 1.7188-0.23438 2.25-0.70312 0.53125-0.47656 0.79688-1.1484 0.79688-2.0156 0-0.875-0.26562-1.5469-0.79688-2.0156s-1.2812-0.70312-2.25-0.70312z"/>
  </symbol>
  <symbol id="l" overflow="visible">
   <path d="m2.2344-14.594h4.6719v14.328c0 1.957-0.46875 3.4453-1.4062 4.4688-0.9375 1.0312-2.2969 1.5469-4.0781 1.5469h-2.3125v-3.0469h0.8125c0.88281 0 1.4883-0.20312 1.8125-0.60938 0.33203-0.39844 0.5-1.1836 0.5-2.3594zm0-5.6719h4.6719v3.7969h-4.6719z"/>
  </symbol>
  <symbol id="k" overflow="visible">
   <path d="m14.031-14.125v3.7969c-0.63672-0.4375-1.2773-0.75781-1.9219-0.96875-0.63672-0.20703-1.2969-0.3125-1.9844-0.3125-1.3047 0-2.3203 0.38281-3.0469 1.1406-0.71875 0.76172-1.0781 1.8242-1.0781 3.1875 0 1.3672 0.35938 2.4297 1.0781 3.1875 0.72656 0.76172 1.7422 1.1406 3.0469 1.1406 0.72656 0 1.4219-0.10938 2.0781-0.32812s1.2656-0.53906 1.8281-0.96875v3.8125c-0.73047 0.27344-1.4766 0.47266-2.2344 0.60938-0.75 0.13281-1.5 0.20312-2.25 0.20312-2.6367 0-4.6992-0.67188-6.1875-2.0156-1.4805-1.3516-2.2188-3.2344-2.2188-5.6406s0.73828-4.2812 2.2188-5.625c1.4883-1.3516 3.5508-2.0312 6.1875-2.0312 0.75781 0 1.5078 0.070312 2.25 0.20312 0.75 0.13672 1.4922 0.33984 2.2344 0.60938z"/>
  </symbol>
 </defs>
 <g>
  <path d="m282.27 257.07c21.867 0 40-22.398 40-49.602 0-27.734-18.133-49.602-40-49.602s-40 22.398-40 49.602c0.53516 27.203 18.133 49.602 40 49.602zm300.27 27.734c0-9.0664 5.8672-20.266 11.199-30.934 8-16.535 17.066-34.133 11.734-51.199-5.332-17.602-21.867-27.199-38.398-36.266-10.133-5.8672-20.801-12.266-26.133-19.199-4.8008-6.9336-6.9336-19.199-8.5352-30.934-1.6016-8.5352-2.668-17.602-5.8672-25.602-3.1992-10.133-8.5352-18.133-15.465-22.934-9.6016-7.4648-21.867-8.5352-29.867-8.5352-6.9336 0-14.398 0.53516-21.332 1.6016-6.9336 0.53516-13.332 1.6016-19.734 1.6016-5.8672 0-10.133-0.53516-13.867-1.6016-8.5352-3.1992-17.602-11.734-26.668-20.266-13.332-12.801-26.668-26.133-44.266-26.668h-1.0664c-18.133 0-32.535 12.801-45.867 25.066-8.5352 8-17.602 16-26.133 18.668-2.1367 0.53125-5.3359 1.0664-9.6016 1.0664-6.9336 0-14.398-1.0664-22.398-2.1328-8.5352-1.0664-17.066-2.668-25.602-2.668-11.199 0-20.266 2.1328-27.199 7.4648-14.934 10.133-18.668 28.801-22.934 47.465-2.668 11.734-5.332 24-10.668 30.934-4.8008 6.3984-15.465 12.266-26.133 17.602-16 8.5352-34.133 17.602-40.535 35.734-6.3984 17.602 2.1328 36.266 9.6016 52.801 4.8008 10.668 9.6016 21.867 9.6016 29.867 0 9.0664-5.8672 20.266-11.199 30.934-8 16.535-17.066 34.133-11.734 51.199 5.332 17.602 21.867 27.199 38.398 36.266 10.133 5.8672 20.801 12.266 26.133 19.199 4.8008 6.9336 6.9336 19.199 8.5352 30.934 1.6016 8.5352 2.668 17.602 5.8672 25.602 3.1992 10.133 8.5352 18.133 15.465 22.934 9.6016 7.4648 21.867 8.5352 29.867 8.5352 6.9336 0 14.398-0.53516 21.332-1.6016 6.9336-0.53516 13.332-1.6016 19.734-1.6016 5.8672 0 10.133 0.53516 13.867 1.6016 8.5352 3.1992 17.602 11.734 26.668 20.266 13.332 12.801 26.668 26.133 44.266 26.668h1.0664c18.133 0 32.535-12.801 45.867-25.066 8.5352-8 17.602-16 26.133-18.668 2.668-1.0664 5.8672-1.0664 10.133-1.0664 6.9336 0 14.398 1.0664 22.398 2.1328 8.5352 1.0664 17.066 2.668 25.602 2.668 11.199 0 20.266-2.1328 27.199-7.4648 14.934-10.133 18.668-28.801 22.934-47.465 2.668-11.734 5.332-24 10.668-30.934 4.8008-6.3984 15.465-12.266 26.133-17.602 16-8.5352 34.133-17.602 40.535-35.734 6.3984-17.602-2.1328-36.266-9.6016-52.801-5.3359-10.133-10.133-21.336-10.133-29.867zm-350.4-77.336c0-33.602 22.398-60.266 50.668-60.266 27.734 0 50.668 27.199 50.668 60.266s-22.398 60.266-50.668 60.266c-28.266 0.003906-50.668-26.664-50.668-60.266zm21.867 206.93c-1.6016 2.1328-5.332 2.668-7.4648 1.0664-2.1328-1.6016-2.668-5.332-1.0664-7.4648l200.54-261.87c1.6016-2.1328 5.332-2.668 7.4648-1.0664 2.1328 1.6016 2.668 5.332 1.0664 7.4648zm163.73-1.5977c-27.734 0-50.668-27.199-50.668-60.266 0-33.602 22.398-60.266 50.668-60.266 27.734 0 50.668 27.199 50.668 60.266-0.53516 33.598-22.938 60.266-50.668 60.266zm0-109.87c-21.867 0-40 22.398-40 49.602 0 27.734 18.133 49.602 40 49.602s40-22.398 40-49.602c-0.53516-27.203-18.133-49.602-40-49.602z"/>
 
 </g>
</svg>
