<svg xmlns="http://www.w3.org/2000/svg" xmlns:xlink="http://www.w3.org/1999/xlink" width="247" height="192" viewBox="0 0 247 192">
  <defs>
    <clipPath id="clip-path">
      <rect id="Rectangle_208" data-name="Rectangle 208" width="247" height="192" transform="translate(0.5)" fill="#fff" stroke="#707070" stroke-width="1"/>
    </clipPath>
    <linearGradient id="linear-gradient" x1="0.499" y1="1" x2="0.499" gradientUnits="objectBoundingBox">
      <stop offset="0" stop-color="gray" stop-opacity="0.251"/>
      <stop offset="0.54" stop-color="gray" stop-opacity="0.122"/>
      <stop offset="1" stop-color="gray" stop-opacity="0.102"/>
    </linearGradient>
  </defs>
  <g id="Mask_Group_35" data-name="Mask Group 35" transform="translate(-0.5)" clip-path="url(#clip-path)">
    <g id="typewriter_i8xd" transform="translate(0.089 8.827)">
      <path id="Path_545" data-name="Path 545" d="M157.923,41.769c-15.729-.547-30.709-5.624-45.013-11.179S84.437,18.879,69.085,15.936c-9.874-1.893-21.168-2.161-29.122,3.13-7.658,5.1-10.132,13.889-11.461,22.05-1,6.139-1.589,12.6,1.152,18.346,1.905,3.991,5.283,7.344,7.621,11.167,8.134,13.3,2.384,29.7-6.428,42.683C26.716,119.4,21.916,125.22,18.725,131.7s-4.666,13.913-1.874,20.528c2.766,6.562,9.359,11.481,16.5,14.944,14.506,7.033,31.593,9.048,48.268,10.188,36.9,2.525,73.992,1.431,110.988.338,13.692-.406,27.443-.817,40.911-2.933,7.48-1.176,15.2-3.043,20.633-7.534,6.892-5.718,8.6-15.4,3.981-22.572-7.748-12.027-29.163-15.014-34.585-27.924-2.98-7.1.08-15.019,4.413-21.608,9.293-14.134,24.869-26.536,25.688-42.693.564-11.1-6.924-22.213-18.5-27.462-12.134-5.5-28.964-4.812-37.912,4.3C188.013,38.642,171.812,42.251,157.923,41.769Z" transform="translate(-15.375 -14.696)" fill="#fff" opacity="0.1"/>
      <g id="Group_27" data-name="Group 27" transform="translate(12.602 81.89)" opacity="0.2">
        <path id="Path_546" data-name="Path 546" d="M57.653,116.8a5.886,5.886,0,0,1,.365.868q-2.916,1.1-5.833,2.309c-.041-.07-.083-.146-.122-.221a4.967,4.967,0,0,1-.605-2.54,2.963,2.963,0,0,1,1.458-2.6,3,3,0,0,1,2.965.243,5.016,5.016,0,0,1,1.772,1.937Z" transform="translate(-9.75 -46.248)" fill="#3f3d56"/>
        <ellipse id="Ellipse_108" data-name="Ellipse 108" cx="3.164" cy="4.144" rx="3.164" ry="4.144" transform="translate(38.008 65.367) rotate(-27.84)" fill="#3f3d56"/>
        <ellipse id="Ellipse_109" data-name="Ellipse 109" cx="3.164" cy="4.144" rx="3.164" ry="4.144" transform="translate(35.645 60.889) rotate(-27.84)" fill="#3f3d56"/>
        <ellipse id="Ellipse_110" data-name="Ellipse 110" cx="3.164" cy="4.144" rx="3.164" ry="4.144" transform="translate(33.28 56.412) rotate(-27.84)" fill="#3f3d56"/>
        <ellipse id="Ellipse_111" data-name="Ellipse 111" cx="3.164" cy="4.144" rx="3.164" ry="4.144" transform="translate(30.914 51.934) rotate(-27.84)" fill="#3f3d56"/>
        <path id="Path_547" data-name="Path 547" d="M32.737,98.119a15.531,15.531,0,0,1-1.852-.972l6.715-5.1L29.68,96.3a15.179,15.179,0,0,1-5.864-10.487l13.59-.1L23.747,83.688A15.16,15.16,0,1,1,53.807,87a15.081,15.081,0,0,1,2.819,1.638l-6.924,10,8.372-8.79a15.179,15.179,0,0,1,4.486,13.729A15.16,15.16,0,1,1,41.491,114.7a15.16,15.16,0,0,1-8.749-16.572Z" transform="translate(-23.747 -69.1)" fill="#fff"/>
        <path id="Path_548" data-name="Path 548" d="M55.192,85.512a15.1,15.1,0,0,1,1.509,9.8,15.16,15.16,0,1,1-21.07,11.126C32.629,105.107,54.4,84.008,55.192,85.512Z" transform="translate(-17.887 -60.848)" opacity="0.1"/>
      </g>
      <g id="Group_28" data-name="Group 28" transform="translate(163.762 17.248)" opacity="0.2">
        <path id="Path_549" data-name="Path 549" d="M127.144,96.282a7.719,7.719,0,0,0-.335,1.264q4.233.95,8.469,2.063c.044-.1.087-.216.129-.328a6.936,6.936,0,0,0,.338-3.614,3.821,3.821,0,0,0-6.535-2.379A6.948,6.948,0,0,0,127.144,96.282Z" transform="translate(-122.842 7.195)" fill="#3f3d56"/>
        <ellipse id="Ellipse_112" data-name="Ellipse 112" cx="5.752" cy="4.394" rx="5.752" ry="4.394" transform="translate(4.737 102.27) rotate(-70.04)" fill="#3f3d56"/>
        <ellipse id="Ellipse_113" data-name="Ellipse 113" cx="5.75" cy="4.392" rx="5.75" ry="4.392" transform="matrix(0.34, -0.94, 0.94, 0.34, 6.882, 95.474)" fill="#3f3d56"/>
        <ellipse id="Ellipse_114" data-name="Ellipse 114" cx="5.752" cy="4.394" rx="5.752" ry="4.394" transform="translate(9.537 89.052) rotate(-70.04)" fill="#3f3d56"/>
        <ellipse id="Ellipse_115" data-name="Ellipse 115" cx="5.752" cy="4.394" rx="5.752" ry="4.394" transform="translate(11.936 82.445) rotate(-70.04)" fill="#3f3d56"/>
        <path id="Path_550" data-name="Path 550" d="M174.093,65.088a20.945,20.945,0,0,0,2.362-1.7l-10.207-5.723,11.707,4.35a21.082,21.082,0,0,0,6.076-15.539l-18.713,2.45,18.4-5.4A21.051,21.051,0,1,0,143,53.8a21.143,21.143,0,0,0-3.565,2.788L150.855,69.02l-13.189-10.5a21.061,21.061,0,0,0-3.548,19.739,21.049,21.049,0,1,0,31.107,11.3,21.056,21.056,0,0,0,8.885-24.466Z" transform="translate(-124.17 -26.154)" fill="#fff"/>
        <path id="Path_551" data-name="Path 551" d="M134.32,51.667a20.969,20.969,0,0,0-.209,13.772,21.049,21.049,0,1,0,31.107,11.3C169.085,74.339,135.127,49.448,134.32,51.667Z" transform="translate(-124.173 -13.336)" opacity="0.1"/>
      </g>
      <ellipse id="Ellipse_116" data-name="Ellipse 116" cx="16.356" cy="3.145" rx="16.356" ry="3.145" transform="translate(27.504 152.993)" fill="#fff"/>
      <ellipse id="Ellipse_117" data-name="Ellipse 117" cx="1.905" cy="2.493" rx="1.905" ry="2.493" transform="translate(41.68 152.308)" fill="#3f3d56"/>
      <ellipse id="Ellipse_118" data-name="Ellipse 118" cx="1.905" cy="2.493" rx="1.905" ry="2.493" transform="translate(41.68 149.26)" fill="#3f3d56"/>
      <ellipse id="Ellipse_119" data-name="Ellipse 119" cx="1.905" cy="2.493" rx="1.905" ry="2.493" transform="translate(41.68 146.213)" fill="#3f3d56"/>
      <ellipse id="Ellipse_120" data-name="Ellipse 120" cx="1.905" cy="2.493" rx="1.905" ry="2.493" transform="translate(41.68 143.168)" fill="#3f3d56"/>
      <ellipse id="Ellipse_121" data-name="Ellipse 121" cx="1.905" cy="2.493" rx="1.905" ry="2.493" transform="translate(41.68 140.12)" fill="#3f3d56"/>
      <ellipse id="Ellipse_122" data-name="Ellipse 122" cx="1.905" cy="2.493" rx="1.905" ry="2.493" transform="translate(41.68 137.073)" fill="#3f3d56"/>
      <ellipse id="Ellipse_123" data-name="Ellipse 123" cx="1.905" cy="2.493" rx="1.905" ry="2.493" transform="translate(41.68 134.027)" fill="#3f3d56"/>
      <path id="Path_552" data-name="Path 552" d="M54.539,96.5a8.956,8.956,0,0,0,.707-1.045l-5-.821,5.41.041a9.13,9.13,0,0,0,.175-7.228L48.57,91.216l6.7-4.919A9.123,9.123,0,1,0,40.2,96.5a9.1,9.1,0,0,0-1.043,1.662l6.5,3.376-6.926-2.326a9.126,9.126,0,0,0,1.473,8.567,9.121,9.121,0,1,0,14.339,0,9.123,9.123,0,0,0,0-11.279Z" transform="translate(-3.823 19.172)" fill="#fff"/>
      <path id="Path_553" data-name="Path 553" d="M38.247,95.333a9.075,9.075,0,0,0,1.944,5.641,9.121,9.121,0,1,0,14.339,0C55.762,99.423,38.247,94.319,38.247,95.333Z" transform="translate(-3.824 25.975)" opacity="0.1"/>
      <rect id="Rectangle_209" data-name="Rectangle 209" width="117.53" height="25.36" rx="1.198" transform="translate(65.232 43.349)" fill="#35323e"/>
      <path id="Path_554" data-name="Path 554" d="M65.755,23.116s1.67,45.4-1.29,50.72H164.528s-4.251-34.925,0-50.72Z" transform="translate(9.424 -10.442)" fill="#fff"/>
      <path id="Path_555" data-name="Path 555" d="M65.755,23.116s1.67,45.4-1.29,50.72H164.528s-4.251-34.925,0-50.72Z" transform="translate(9.424 -10.442)" opacity="0.03"/>
      <rect id="Rectangle_210" data-name="Rectangle 210" width="73.343" height="9.111" transform="translate(85.427 61.46)" fill="#35323e"/>
      <path id="Path_556" data-name="Path 556" d="M190.61,163.247H54.671a7.247,7.247,0,0,1-7.2-8.049l2.78-25.054q.275-2.5.4-5.009l.523-16.988q.18-5.757.778-11.485.311-2.97.729-5.927L56.248,65.83A13.123,13.123,0,0,1,69.226,54.6h5.429a12.759,12.759,0,0,1,7.633,2.569c5.624,4.2,21.6,7.225,40.435,7.225s34.814-3.028,40.449-7.235a12.759,12.759,0,0,1,7.633-2.569h8.8a7.862,7.862,0,0,1,7.743,6.5l4.8,27.219q.729,4.151,1.237,8.336.846,6.958,1.062,13.976l.486,15.785a88.8,88.8,0,0,0,.853,9.835l2.579,18.059a7.828,7.828,0,0,1-7.75,8.946Z" transform="translate(0.815 5.46)" fill="#464353"/>
      <rect id="Rectangle_211" data-name="Rectangle 211" width="129.83" height="55.806" rx="3.223" transform="translate(58.704 105.688)" opacity="0.1"/>
      <ellipse id="Ellipse_124" data-name="Ellipse 124" cx="3.721" cy="3.113" rx="3.721" ry="3.113" transform="translate(63.334 109.103)" fill="#fff"/>
      <ellipse id="Ellipse_125" data-name="Ellipse 125" cx="3.721" cy="3.113" rx="3.721" ry="3.113" transform="translate(63.334 109.103)" opacity="0.1"/>
      <ellipse id="Ellipse_126" data-name="Ellipse 126" cx="3.721" cy="3.113" rx="3.721" ry="3.113" transform="translate(63.334 108.42)" fill="#fff"/>
      <ellipse id="Ellipse_127" data-name="Ellipse 127" cx="3.721" cy="3.113" rx="3.721" ry="3.113" transform="translate(67.737 119.961)" fill="#35323e"/>
      <ellipse id="Ellipse_128" data-name="Ellipse 128" cx="3.721" cy="3.113" rx="3.721" ry="3.113" transform="translate(67.737 119.961)" opacity="0.1"/>
      <ellipse id="Ellipse_129" data-name="Ellipse 129" cx="3.721" cy="3.113" rx="3.721" ry="3.113" transform="translate(67.737 119.278)" fill="#35323e"/>
      <ellipse id="Ellipse_130" data-name="Ellipse 130" cx="3.721" cy="3.113" rx="3.721" ry="3.113" transform="translate(70.168 130.819)" fill="#35323e"/>
      <ellipse id="Ellipse_131" data-name="Ellipse 131" cx="3.721" cy="3.113" rx="3.721" ry="3.113" transform="translate(70.168 130.819)" opacity="0.1"/>
      <ellipse id="Ellipse_132" data-name="Ellipse 132" cx="3.721" cy="3.113" rx="3.721" ry="3.113" transform="translate(70.168 130.137)" fill="#35323e"/>
      <ellipse id="Ellipse_133" data-name="Ellipse 133" cx="3.721" cy="3.113" rx="3.721" ry="3.113" transform="translate(60.753 132.11)" fill="#35323e"/>
      <ellipse id="Ellipse_134" data-name="Ellipse 134" cx="3.721" cy="3.113" rx="3.721" ry="3.113" transform="translate(60.753 132.11)" opacity="0.1"/>
      <ellipse id="Ellipse_135" data-name="Ellipse 135" cx="3.721" cy="3.113" rx="3.721" ry="3.113" transform="translate(60.753 131.427)" fill="#35323e"/>
      <ellipse id="Ellipse_136" data-name="Ellipse 136" cx="3.721" cy="3.113" rx="3.721" ry="3.113" transform="translate(74.722 141.675)" fill="#35323e"/>
      <ellipse id="Ellipse_137" data-name="Ellipse 137" cx="3.721" cy="3.113" rx="3.721" ry="3.113" transform="translate(74.722 141.675)" opacity="0.1"/>
      <ellipse id="Ellipse_138" data-name="Ellipse 138" cx="3.721" cy="3.113" rx="3.721" ry="3.113" transform="translate(74.722 140.993)" fill="#35323e"/>
      <ellipse id="Ellipse_139" data-name="Ellipse 139" cx="3.721" cy="3.113" rx="3.721" ry="3.113" transform="translate(62.272 142.057)" fill="#35323e"/>
      <ellipse id="Ellipse_140" data-name="Ellipse 140" cx="3.721" cy="3.113" rx="3.721" ry="3.113" transform="translate(62.272 142.057)" opacity="0.1"/>
      <ellipse id="Ellipse_141" data-name="Ellipse 141" cx="3.721" cy="3.113" rx="3.721" ry="3.113" transform="translate(62.272 141.372)" fill="#35323e"/>
      <ellipse id="Ellipse_142" data-name="Ellipse 142" cx="3.721" cy="3.113" rx="3.721" ry="3.113" transform="translate(84.973 141.675)" fill="#35323e"/>
      <ellipse id="Ellipse_143" data-name="Ellipse 143" cx="3.721" cy="3.113" rx="3.721" ry="3.113" transform="translate(84.973 141.675)" opacity="0.1"/>
      <ellipse id="Ellipse_144" data-name="Ellipse 144" cx="3.721" cy="3.113" rx="3.721" ry="3.113" transform="translate(84.973 140.993)" fill="#35323e"/>
      <ellipse id="Ellipse_145" data-name="Ellipse 145" cx="3.721" cy="3.113" rx="3.721" ry="3.113" transform="translate(95.829 141.675)" fill="#35323e"/>
      <ellipse id="Ellipse_146" data-name="Ellipse 146" cx="3.721" cy="3.113" rx="3.721" ry="3.113" transform="translate(95.829 141.675)" opacity="0.1"/>
      <ellipse id="Ellipse_147" data-name="Ellipse 147" cx="3.721" cy="3.113" rx="3.721" ry="3.113" transform="translate(95.829 140.993)" fill="#35323e"/>
      <ellipse id="Ellipse_148" data-name="Ellipse 148" cx="3.721" cy="3.113" rx="3.721" ry="3.113" transform="translate(105.851 141.675)" fill="#35323e"/>
      <ellipse id="Ellipse_149" data-name="Ellipse 149" cx="3.721" cy="3.113" rx="3.721" ry="3.113" transform="translate(105.851 141.675)" opacity="0.1"/>
      <ellipse id="Ellipse_150" data-name="Ellipse 150" cx="3.721" cy="3.113" rx="3.721" ry="3.113" transform="translate(105.851 140.993)" fill="#35323e"/>
      <ellipse id="Ellipse_151" data-name="Ellipse 151" cx="3.721" cy="3.113" rx="3.721" ry="3.113" transform="translate(116.936 141.675)" fill="#35323e"/>
      <ellipse id="Ellipse_152" data-name="Ellipse 152" cx="3.721" cy="3.113" rx="3.721" ry="3.113" transform="translate(116.936 141.675)" opacity="0.1"/>
      <ellipse id="Ellipse_153" data-name="Ellipse 153" cx="3.721" cy="3.113" rx="3.721" ry="3.113" transform="translate(116.936 140.993)" fill="#35323e"/>
      <ellipse id="Ellipse_154" data-name="Ellipse 154" cx="3.721" cy="3.113" rx="3.721" ry="3.113" transform="translate(126.958 141.675)" fill="#35323e"/>
      <ellipse id="Ellipse_155" data-name="Ellipse 155" cx="3.721" cy="3.113" rx="3.721" ry="3.113" transform="translate(126.958 141.675)" opacity="0.1"/>
      <ellipse id="Ellipse_156" data-name="Ellipse 156" cx="3.721" cy="3.113" rx="3.721" ry="3.113" transform="translate(126.958 140.993)" fill="#35323e"/>
      <ellipse id="Ellipse_157" data-name="Ellipse 157" cx="3.721" cy="3.113" rx="3.721" ry="3.113" transform="translate(136.903 141.675)" fill="#35323e"/>
      <ellipse id="Ellipse_158" data-name="Ellipse 158" cx="3.721" cy="3.113" rx="3.721" ry="3.113" transform="translate(136.903 141.675)" opacity="0.1"/>
      <ellipse id="Ellipse_159" data-name="Ellipse 159" cx="3.721" cy="3.113" rx="3.721" ry="3.113" transform="translate(136.903 140.993)" fill="#35323e"/>
      <ellipse id="Ellipse_160" data-name="Ellipse 160" cx="3.721" cy="3.113" rx="3.721" ry="3.113" transform="translate(147.686 141.675)" fill="#35323e"/>
      <ellipse id="Ellipse_161" data-name="Ellipse 161" cx="3.721" cy="3.113" rx="3.721" ry="3.113" transform="translate(147.686 141.675)" opacity="0.1"/>
      <ellipse id="Ellipse_162" data-name="Ellipse 162" cx="3.721" cy="3.113" rx="3.721" ry="3.113" transform="translate(147.686 140.993)" fill="#35323e"/>
      <ellipse id="Ellipse_163" data-name="Ellipse 163" cx="3.721" cy="3.113" rx="3.721" ry="3.113" transform="translate(157.784 141.675)" fill="#35323e"/>
      <ellipse id="Ellipse_164" data-name="Ellipse 164" cx="3.721" cy="3.113" rx="3.721" ry="3.113" transform="translate(157.784 141.675)" opacity="0.1"/>
      <ellipse id="Ellipse_165" data-name="Ellipse 165" cx="3.721" cy="3.113" rx="3.721" ry="3.113" transform="translate(157.784 140.993)" fill="#35323e"/>
      <ellipse id="Ellipse_166" data-name="Ellipse 166" cx="3.721" cy="3.113" rx="3.721" ry="3.113" transform="translate(168.943 141.675)" fill="#35323e"/>
      <ellipse id="Ellipse_167" data-name="Ellipse 167" cx="3.721" cy="3.113" rx="3.721" ry="3.113" transform="translate(168.943 141.675)" opacity="0.1"/>
      <ellipse id="Ellipse_168" data-name="Ellipse 168" cx="3.721" cy="3.113" rx="3.721" ry="3.113" transform="translate(168.943 140.993)" fill="#35323e"/>
      <ellipse id="Ellipse_169" data-name="Ellipse 169" cx="3.721" cy="3.113" rx="3.721" ry="3.113" transform="translate(180.409 141.675)" fill="#35323e"/>
      <ellipse id="Ellipse_170" data-name="Ellipse 170" cx="3.721" cy="3.113" rx="3.721" ry="3.113" transform="translate(180.409 141.675)" opacity="0.1"/>
      <ellipse id="Ellipse_171" data-name="Ellipse 171" cx="3.721" cy="3.113" rx="3.721" ry="3.113" transform="translate(180.409 140.993)" fill="#35323e"/>
      <ellipse id="Ellipse_172" data-name="Ellipse 172" cx="3.721" cy="3.113" rx="3.721" ry="3.113" transform="translate(80.494 130.819)" fill="#35323e"/>
      <ellipse id="Ellipse_173" data-name="Ellipse 173" cx="3.721" cy="3.113" rx="3.721" ry="3.113" transform="translate(80.494 130.819)" opacity="0.1"/>
      <ellipse id="Ellipse_174" data-name="Ellipse 174" cx="3.721" cy="3.113" rx="3.721" ry="3.113" transform="translate(80.494 130.137)" fill="#35323e"/>
      <ellipse id="Ellipse_175" data-name="Ellipse 175" cx="3.721" cy="3.113" rx="3.721" ry="3.113" transform="translate(90.818 130.819)" fill="#35323e"/>
      <ellipse id="Ellipse_176" data-name="Ellipse 176" cx="3.721" cy="3.113" rx="3.721" ry="3.113" transform="translate(90.818 130.819)" opacity="0.1"/>
      <ellipse id="Ellipse_177" data-name="Ellipse 177" cx="3.721" cy="3.113" rx="3.721" ry="3.113" transform="translate(90.818 130.137)" fill="#35323e"/>
      <ellipse id="Ellipse_178" data-name="Ellipse 178" cx="3.721" cy="3.113" rx="3.721" ry="3.113" transform="translate(101.448 130.819)" fill="#35323e"/>
      <ellipse id="Ellipse_179" data-name="Ellipse 179" cx="3.721" cy="3.113" rx="3.721" ry="3.113" transform="translate(101.448 130.819)" opacity="0.1"/>
      <ellipse id="Ellipse_180" data-name="Ellipse 180" cx="3.721" cy="3.113" rx="3.721" ry="3.113" transform="translate(101.448 130.137)" fill="#35323e"/>
      <ellipse id="Ellipse_181" data-name="Ellipse 181" cx="3.721" cy="3.113" rx="3.721" ry="3.113" transform="translate(111.621 130.819)" fill="#35323e"/>
      <ellipse id="Ellipse_182" data-name="Ellipse 182" cx="3.721" cy="3.113" rx="3.721" ry="3.113" transform="translate(111.621 130.819)" opacity="0.1"/>
      <ellipse id="Ellipse_183" data-name="Ellipse 183" cx="3.721" cy="3.113" rx="3.721" ry="3.113" transform="translate(111.621 130.137)" fill="#35323e"/>
      <ellipse id="Ellipse_184" data-name="Ellipse 184" cx="3.721" cy="3.113" rx="3.721" ry="3.113" transform="translate(122.022 130.819)" fill="#35323e"/>
      <ellipse id="Ellipse_185" data-name="Ellipse 185" cx="3.721" cy="3.113" rx="3.721" ry="3.113" transform="translate(122.022 130.819)" opacity="0.1"/>
      <ellipse id="Ellipse_186" data-name="Ellipse 186" cx="3.721" cy="3.113" rx="3.721" ry="3.113" transform="translate(122.022 130.137)" fill="#35323e"/>
      <ellipse id="Ellipse_187" data-name="Ellipse 187" cx="3.721" cy="3.113" rx="3.721" ry="3.113" transform="translate(131.969 130.819)" fill="#35323e"/>
      <ellipse id="Ellipse_188" data-name="Ellipse 188" cx="3.721" cy="3.113" rx="3.721" ry="3.113" transform="translate(131.969 130.819)" opacity="0.1"/>
      <ellipse id="Ellipse_189" data-name="Ellipse 189" cx="3.721" cy="3.113" rx="3.721" ry="3.113" transform="translate(131.969 130.137)" fill="#35323e"/>
      <ellipse id="Ellipse_190" data-name="Ellipse 190" cx="3.721" cy="3.113" rx="3.721" ry="3.113" transform="translate(142.75 130.819)" fill="#35323e"/>
      <ellipse id="Ellipse_191" data-name="Ellipse 191" cx="3.721" cy="3.113" rx="3.721" ry="3.113" transform="translate(142.75 130.819)" opacity="0.1"/>
      <ellipse id="Ellipse_192" data-name="Ellipse 192" cx="3.721" cy="3.113" rx="3.721" ry="3.113" transform="translate(142.75 130.137)" fill="#35323e"/>
      <ellipse id="Ellipse_193" data-name="Ellipse 193" cx="3.721" cy="3.113" rx="3.721" ry="3.113" transform="translate(153.001 130.819)" fill="#35323e"/>
      <ellipse id="Ellipse_194" data-name="Ellipse 194" cx="3.721" cy="3.113" rx="3.721" ry="3.113" transform="translate(153.001 130.819)" opacity="0.1"/>
      <ellipse id="Ellipse_195" data-name="Ellipse 195" cx="3.721" cy="3.113" rx="3.721" ry="3.113" transform="translate(153.001 130.137)" fill="#35323e"/>
      <ellipse id="Ellipse_196" data-name="Ellipse 196" cx="3.721" cy="3.113" rx="3.721" ry="3.113" transform="translate(163.478 130.819)" fill="#35323e"/>
      <ellipse id="Ellipse_197" data-name="Ellipse 197" cx="3.721" cy="3.113" rx="3.721" ry="3.113" transform="translate(163.478 130.819)" opacity="0.1"/>
      <ellipse id="Ellipse_198" data-name="Ellipse 198" cx="3.721" cy="3.113" rx="3.721" ry="3.113" transform="translate(163.478 130.137)" fill="#35323e"/>
      <ellipse id="Ellipse_199" data-name="Ellipse 199" cx="3.721" cy="3.113" rx="3.721" ry="3.113" transform="translate(173.955 130.819)" fill="#35323e"/>
      <ellipse id="Ellipse_200" data-name="Ellipse 200" cx="3.721" cy="3.113" rx="3.721" ry="3.113" transform="translate(173.955 130.819)" opacity="0.1"/>
      <ellipse id="Ellipse_201" data-name="Ellipse 201" cx="3.721" cy="3.113" rx="3.721" ry="3.113" transform="translate(173.955 130.137)" fill="#35323e"/>
      <ellipse id="Ellipse_202" data-name="Ellipse 202" cx="3.721" cy="3.113" rx="3.721" ry="3.113" transform="translate(78.214 119.961)" fill="#35323e"/>
      <ellipse id="Ellipse_203" data-name="Ellipse 203" cx="3.721" cy="3.113" rx="3.721" ry="3.113" transform="translate(78.214 119.961)" opacity="0.1"/>
      <ellipse id="Ellipse_204" data-name="Ellipse 204" cx="3.721" cy="3.113" rx="3.721" ry="3.113" transform="translate(78.214 119.278)" fill="#35323e"/>
      <ellipse id="Ellipse_205" data-name="Ellipse 205" cx="3.721" cy="3.113" rx="3.721" ry="3.113" transform="translate(88.694 119.961)" fill="#35323e"/>
      <ellipse id="Ellipse_206" data-name="Ellipse 206" cx="3.721" cy="3.113" rx="3.721" ry="3.113" transform="translate(88.694 119.961)" opacity="0.1"/>
      <ellipse id="Ellipse_207" data-name="Ellipse 207" cx="3.721" cy="3.113" rx="3.721" ry="3.113" transform="translate(88.694 119.278)" fill="#35323e"/>
      <ellipse id="Ellipse_208" data-name="Ellipse 208" cx="3.721" cy="3.113" rx="3.721" ry="3.113" transform="translate(98.791 119.961)" fill="#35323e"/>
      <ellipse id="Ellipse_209" data-name="Ellipse 209" cx="3.721" cy="3.113" rx="3.721" ry="3.113" transform="translate(98.791 119.961)" opacity="0.1"/>
      <ellipse id="Ellipse_210" data-name="Ellipse 210" cx="3.721" cy="3.113" rx="3.721" ry="3.113" transform="translate(98.791 119.278)" fill="#35323e"/>
      <ellipse id="Ellipse_211" data-name="Ellipse 211" cx="3.721" cy="3.113" rx="3.721" ry="3.113" transform="translate(108.889 119.961)" fill="#35323e"/>
      <ellipse id="Ellipse_212" data-name="Ellipse 212" cx="3.721" cy="3.113" rx="3.721" ry="3.113" transform="translate(108.889 119.961)" opacity="0.1"/>
      <ellipse id="Ellipse_213" data-name="Ellipse 213" cx="3.721" cy="3.113" rx="3.721" ry="3.113" transform="translate(108.889 119.278)" fill="#35323e"/>
      <ellipse id="Ellipse_214" data-name="Ellipse 214" cx="3.721" cy="3.113" rx="3.721" ry="3.113" transform="translate(119.062 119.961)" fill="#35323e"/>
      <ellipse id="Ellipse_215" data-name="Ellipse 215" cx="3.721" cy="3.113" rx="3.721" ry="3.113" transform="translate(119.062 119.961)" opacity="0.1"/>
      <ellipse id="Ellipse_216" data-name="Ellipse 216" cx="3.721" cy="3.113" rx="3.721" ry="3.113" transform="translate(119.062 119.278)" fill="#35323e"/>
      <ellipse id="Ellipse_217" data-name="Ellipse 217" cx="3.721" cy="3.113" rx="3.721" ry="3.113" transform="translate(129.085 119.961)" fill="#35323e"/>
      <ellipse id="Ellipse_218" data-name="Ellipse 218" cx="3.721" cy="3.113" rx="3.721" ry="3.113" transform="translate(129.085 119.961)" opacity="0.1"/>
      <ellipse id="Ellipse_219" data-name="Ellipse 219" cx="3.721" cy="3.113" rx="3.721" ry="3.113" transform="translate(129.085 119.278)" fill="#35323e"/>
      <ellipse id="Ellipse_220" data-name="Ellipse 220" cx="3.721" cy="3.113" rx="3.721" ry="3.113" transform="translate(139.712 119.961)" fill="#35323e"/>
      <ellipse id="Ellipse_221" data-name="Ellipse 221" cx="3.721" cy="3.113" rx="3.721" ry="3.113" transform="translate(139.712 119.961)" opacity="0.1"/>
      <ellipse id="Ellipse_222" data-name="Ellipse 222" cx="3.721" cy="3.113" rx="3.721" ry="3.113" transform="translate(139.712 119.278)" fill="#35323e"/>
      <ellipse id="Ellipse_223" data-name="Ellipse 223" cx="3.721" cy="3.113" rx="3.721" ry="3.113" transform="translate(149.735 119.961)" fill="#35323e"/>
      <ellipse id="Ellipse_224" data-name="Ellipse 224" cx="3.721" cy="3.113" rx="3.721" ry="3.113" transform="translate(149.735 119.961)" opacity="0.1"/>
      <ellipse id="Ellipse_225" data-name="Ellipse 225" cx="3.721" cy="3.113" rx="3.721" ry="3.113" transform="translate(149.735 119.278)" fill="#35323e"/>
      <ellipse id="Ellipse_226" data-name="Ellipse 226" cx="3.721" cy="3.113" rx="3.721" ry="3.113" transform="translate(160.44 119.961)" fill="#35323e"/>
      <ellipse id="Ellipse_227" data-name="Ellipse 227" cx="3.721" cy="3.113" rx="3.721" ry="3.113" transform="translate(160.44 119.961)" opacity="0.1"/>
      <ellipse id="Ellipse_228" data-name="Ellipse 228" cx="3.721" cy="3.113" rx="3.721" ry="3.113" transform="translate(160.44 119.278)" fill="#35323e"/>
      <ellipse id="Ellipse_229" data-name="Ellipse 229" cx="3.721" cy="3.113" rx="3.721" ry="3.113" transform="translate(170.917 119.961)" fill="#35323e"/>
      <ellipse id="Ellipse_230" data-name="Ellipse 230" cx="3.721" cy="3.113" rx="3.721" ry="3.113" transform="translate(170.917 119.961)" opacity="0.1"/>
      <ellipse id="Ellipse_231" data-name="Ellipse 231" cx="3.721" cy="3.113" rx="3.721" ry="3.113" transform="translate(170.917 119.278)" fill="#35323e"/>
      <ellipse id="Ellipse_232" data-name="Ellipse 232" cx="3.721" cy="3.113" rx="3.721" ry="3.113" transform="translate(73.052 109.103)" fill="#35323e"/>
      <ellipse id="Ellipse_233" data-name="Ellipse 233" cx="3.721" cy="3.113" rx="3.721" ry="3.113" transform="translate(73.052 109.103)" opacity="0.1"/>
      <ellipse id="Ellipse_234" data-name="Ellipse 234" cx="3.721" cy="3.113" rx="3.721" ry="3.113" transform="translate(73.052 108.42)" fill="#35323e"/>
      <ellipse id="Ellipse_235" data-name="Ellipse 235" cx="3.721" cy="3.113" rx="3.721" ry="3.113" transform="translate(83.379 109.103)" fill="#35323e"/>
      <ellipse id="Ellipse_236" data-name="Ellipse 236" cx="3.721" cy="3.113" rx="3.721" ry="3.113" transform="translate(83.379 109.103)" opacity="0.1"/>
      <ellipse id="Ellipse_237" data-name="Ellipse 237" cx="3.721" cy="3.113" rx="3.721" ry="3.113" transform="translate(83.379 108.42)" fill="#35323e"/>
      <ellipse id="Ellipse_238" data-name="Ellipse 238" cx="3.721" cy="3.113" rx="3.721" ry="3.113" transform="translate(93.323 109.103)" fill="#35323e"/>
      <ellipse id="Ellipse_239" data-name="Ellipse 239" cx="3.721" cy="3.113" rx="3.721" ry="3.113" transform="translate(93.323 109.103)" opacity="0.1"/>
      <ellipse id="Ellipse_240" data-name="Ellipse 240" cx="3.721" cy="3.113" rx="3.721" ry="3.113" transform="translate(93.323 108.42)" fill="#35323e"/>
      <ellipse id="Ellipse_241" data-name="Ellipse 241" cx="3.721" cy="3.113" rx="3.721" ry="3.113" transform="translate(103.574 109.103)" fill="#35323e"/>
      <ellipse id="Ellipse_242" data-name="Ellipse 242" cx="3.721" cy="3.113" rx="3.721" ry="3.113" transform="translate(103.574 109.103)" opacity="0.1"/>
      <ellipse id="Ellipse_243" data-name="Ellipse 243" cx="3.721" cy="3.113" rx="3.721" ry="3.113" transform="translate(103.574 108.42)" fill="#35323e"/>
      <ellipse id="Ellipse_244" data-name="Ellipse 244" cx="3.721" cy="3.113" rx="3.721" ry="3.113" transform="translate(113.672 109.103)" fill="#35323e"/>
      <ellipse id="Ellipse_245" data-name="Ellipse 245" cx="3.721" cy="3.113" rx="3.721" ry="3.113" transform="translate(113.672 109.103)" opacity="0.1"/>
      <ellipse id="Ellipse_246" data-name="Ellipse 246" cx="3.721" cy="3.113" rx="3.721" ry="3.113" transform="translate(113.672 108.42)" fill="#35323e"/>
      <ellipse id="Ellipse_247" data-name="Ellipse 247" cx="3.721" cy="3.113" rx="3.721" ry="3.113" transform="translate(123.998 109.103)" fill="#35323e"/>
      <ellipse id="Ellipse_248" data-name="Ellipse 248" cx="3.721" cy="3.113" rx="3.721" ry="3.113" transform="translate(123.998 109.103)" opacity="0.1"/>
      <ellipse id="Ellipse_249" data-name="Ellipse 249" cx="3.721" cy="3.113" rx="3.721" ry="3.113" transform="translate(123.998 108.42)" fill="#35323e"/>
      <ellipse id="Ellipse_250" data-name="Ellipse 250" cx="3.721" cy="3.113" rx="3.721" ry="3.113" transform="translate(134.096 109.103)" fill="#35323e"/>
      <ellipse id="Ellipse_251" data-name="Ellipse 251" cx="3.721" cy="3.113" rx="3.721" ry="3.113" transform="translate(134.096 109.103)" opacity="0.1"/>
      <ellipse id="Ellipse_252" data-name="Ellipse 252" cx="3.721" cy="3.113" rx="3.721" ry="3.113" transform="translate(134.096 108.42)" fill="#35323e"/>
      <ellipse id="Ellipse_253" data-name="Ellipse 253" cx="3.721" cy="3.113" rx="3.721" ry="3.113" transform="translate(144.344 109.103)" fill="#35323e"/>
      <ellipse id="Ellipse_254" data-name="Ellipse 254" cx="3.721" cy="3.113" rx="3.721" ry="3.113" transform="translate(144.344 109.103)" opacity="0.1"/>
      <ellipse id="Ellipse_255" data-name="Ellipse 255" cx="3.721" cy="3.113" rx="3.721" ry="3.113" transform="translate(144.344 108.42)" fill="#35323e"/>
      <ellipse id="Ellipse_256" data-name="Ellipse 256" cx="3.721" cy="3.113" rx="3.721" ry="3.113" transform="translate(154.899 109.103)" fill="#35323e"/>
      <ellipse id="Ellipse_257" data-name="Ellipse 257" cx="3.721" cy="3.113" rx="3.721" ry="3.113" transform="translate(154.899 109.103)" opacity="0.1"/>
      <ellipse id="Ellipse_258" data-name="Ellipse 258" cx="3.721" cy="3.113" rx="3.721" ry="3.113" transform="translate(154.899 108.42)" fill="#35323e"/>
      <ellipse id="Ellipse_259" data-name="Ellipse 259" cx="3.721" cy="3.113" rx="3.721" ry="3.113" transform="translate(165.223 109.103)" fill="#35323e"/>
      <ellipse id="Ellipse_260" data-name="Ellipse 260" cx="3.721" cy="3.113" rx="3.721" ry="3.113" transform="translate(165.223 109.103)" opacity="0.1"/>
      <ellipse id="Ellipse_261" data-name="Ellipse 261" cx="3.721" cy="3.113" rx="3.721" ry="3.113" transform="translate(165.223 108.42)" fill="#35323e"/>
      <ellipse id="Ellipse_262" data-name="Ellipse 262" cx="3.721" cy="3.113" rx="3.721" ry="3.113" transform="translate(175.32 109.103)" fill="#fff"/>
      <ellipse id="Ellipse_263" data-name="Ellipse 263" cx="3.721" cy="3.113" rx="3.721" ry="3.113" transform="translate(175.32 109.103)" opacity="0.1"/>
      <ellipse id="Ellipse_264" data-name="Ellipse 264" cx="3.721" cy="3.113" rx="3.721" ry="3.113" transform="translate(175.32 108.42)" fill="#fff"/>
      <rect id="Rectangle_212" data-name="Rectangle 212" width="113.659" height="5.998" rx="1.464" transform="translate(67.055 152.079)" fill="#35323e"/>
      <rect id="Rectangle_213" data-name="Rectangle 213" width="113.659" height="5.998" rx="1.464" transform="translate(67.055 152.079)" opacity="0.1"/>
      <rect id="Rectangle_214" data-name="Rectangle 214" width="113.659" height="5.998" rx="1.464" transform="translate(67.055 151.623)" fill="#35323e"/>
      <path id="Path_557" data-name="Path 557" d="M153.023,71.552c0,6.416-20.307,13.286-43.2,13.286s-39.856-7.4-39.856-13.818S86.929,61.6,109.82,61.6,153.023,65.136,153.023,71.552Z" transform="translate(12.202 9.002)" opacity="0.1"/>
      <ellipse id="Ellipse_265" data-name="Ellipse 265" cx="2.506" cy="6.187" rx="2.506" ry="6.187" transform="translate(182.837 49.35)" fill="#464353"/>
      <ellipse id="Ellipse_266" data-name="Ellipse 266" cx="2.506" cy="6.187" rx="2.506" ry="6.187" transform="translate(60.145 49.35)" fill="#464353"/>
      <rect id="Rectangle_215" data-name="Rectangle 215" width="120.869" height="1.823" transform="translate(64.474 54.057)" opacity="0.1"/>
      <rect id="Rectangle_216" data-name="Rectangle 216" width="120.869" height="1.823" transform="translate(64.474 53.753)" fill="#464353"/>
      <path id="Path_558" data-name="Path 558" d="M100.563,51.924c-.989-.3-2.809,5.694-2.809,5.694h5.541S101.552,52.228,100.563,51.924Zm-.078.758a.532.532,0,1,1-.53.532.532.532,0,0,1,.53-.532Zm.063,1.716c.649.158,1.8,2.992,1.8,2.992H98.7s1.2-3.152,1.862-2.992Z" transform="translate(26.242 4.106)" fill="#464353"/>
      <path id="Path_559" data-name="Path 559" d="M191.865,96.653H50.424q.311-2.97.729-5.927L54.728,65.82A13.123,13.123,0,0,1,67.705,54.593h5.429a12.759,12.759,0,0,1,7.633,2.569c5.624,4.2,21.6,7.225,40.435,7.225s34.818-3.018,40.454-7.225a12.759,12.759,0,0,1,7.633-2.569h8.8a7.862,7.862,0,0,1,7.743,6.5l4.8,27.219Q191.357,92.476,191.865,96.653Z" transform="translate(2.331 5.46)" fill="#fff" opacity="0.03"/>
      <g id="woman" transform="translate(102.884 111.163)">
        <path id="Path_560" data-name="Path 560" d="M100.045,110.56s-2.787-5.1-2.316-5.925a11.083,11.083,0,0,0,.814-2.029s1.03-.7,1.03-1,.814-.953,1.244-1.242.214-1.657,0-1.823a3.676,3.676,0,0,1-.554-.746s.3-.829,0-1.077.044-.486,0-.746a10.583,10.583,0,0,1,0-1.159,1.876,1.876,0,0,0-1.1-.8l-.032-.131-.185-.773s.889-1.7-.554-2.605a2.819,2.819,0,0,0-.321-.17v-.112a7.245,7.245,0,0,0-.211-1.31c-.075-.243-.173-.4-.3-.365a.2.2,0,0,0-.08.046.882.882,0,0,0-.153.182h0a3.105,3.105,0,0,0-.34.948,5.465,5.465,0,0,0-.1.6h0a3.222,3.222,0,0,0-.165.369,2.1,2.1,0,0,0,0,1.828c.318.486.744,1.176,1.055,1.672v.017l.019.029-.032.022v.075l.027.418.243,3.609a1.461,1.461,0,0,0-.219-.046A1.8,1.8,0,0,0,97.5,98.3a20.021,20.021,0,0,1-.887-2.447,1.835,1.835,0,0,1-.017-.258c0-.542.143-1.084.131-1.623a2.453,2.453,0,0,0,0-.3h0v-.083A2.43,2.43,0,0,0,95.4,91.74c-.243-.124-.518-.207-.761-.343a13.707,13.707,0,0,1-1.424-1.266,1.568,1.568,0,0,0-1.363-.3,6.232,6.232,0,0,0-.666.139h0a5.988,5.988,0,0,0-1.519.629c-.063.039-.129.078-.19.124a.848.848,0,0,0-.306.357.948.948,0,0,0-.049.386v.284c-.029,1.585-1.738,2.817-1.879,4.374v.282h0v.124c.024.681.377,1.312.442,1.99v.18a3.014,3.014,0,0,1-.175.911,2.618,2.618,0,0,0-.617.243,3.831,3.831,0,0,0-1.8,2.015,2.93,2.93,0,0,0-.131.885,18.485,18.485,0,0,1-.289,3.159,6.213,6.213,0,0,1-.182.778.176.176,0,0,0,0,.075l-.2,2.673-.039.471-.051.671s.015.041.036.109.056.185.083.309a1.685,1.685,0,0,1,.027.7.486.486,0,0,1-.146.243l-.017.019a2.059,2.059,0,0,0-.156.68c-.019.141-.034.294-.051.464-.1,1.055-.163,2.637-.2,3.944s-.049,2.309-.049,2.309a2.612,2.612,0,0,0,.532.262,1.127,1.127,0,0,0-.041.109,5.089,5.089,0,0,0-.323,1.361,2.377,2.377,0,0,0,1.548,2.617,2.156,2.156,0,0,0,.267.09.843.843,0,0,0,.678-.041v.173c.015.243.027.462.032.649.044,1.159.331,3.189.331,3.189a4.188,4.188,0,0,1,.012,1.079,5.759,5.759,0,0,0,0,1.242s.3.486,0,.746a2.657,2.657,0,0,0-.3,1.657.109.109,0,0,0,0,.019c.066.411-.306,6.528-.306,6.528s-.35.936-.627,1.908-.486,1.927-.226,2.109a2.065,2.065,0,0,0,.785.211v.124a3.614,3.614,0,0,1-.173,1.028,11.88,11.88,0,0,0-.3,2.187v.078a7.126,7.126,0,0,0-.321.928s-.948,2.374-.627,3a.486.486,0,0,0,.119.146h0a.177.177,0,0,0,.032.029,4.381,4.381,0,0,0,2.017.459l-.015.588v.041h.542v-.015c0-.075.012-.416.029-.872v-.452a3.646,3.646,0,0,0,.243-1.325,5.767,5.767,0,0,1,.209-1.536,4.133,4.133,0,0,1,.275-.749,3.414,3.414,0,0,0-.068-1.524,1.058,1.058,0,0,0-.194-.343.552.552,0,0,0,0-.063v-.136a5.6,5.6,0,0,1,.126-1.271.046.046,0,0,1,0-.019.369.369,0,0,1,.024-.1v-.022h.175c.537.017.933.017.933.017A19.881,19.881,0,0,0,89.5,140.3v-.129a12.307,12.307,0,0,1,.26-2.233l.343-3.354a1.8,1.8,0,0,1,0-1c.107-.243.326-.729.486-1.057.07-.153.129-.272.153-.323v-.027a.729.729,0,0,1-.153-.078h0c-.141-.095-.265-.277.153-.544.644-.416.43-1.458.43-1.458a.746.746,0,0,1,.034-.7c.224-.331,0-1.575,0-1.575a5.134,5.134,0,0,0,.44-1.035c.16-.486.564-2.916.753-4.09.063-.384.1-.632.1-.632v.126h0l.053.552v.073l.1,1.045a32.116,32.116,0,0,1,.075,3.823.047.047,0,0,1,0,.019,1.187,1.187,0,0,1-.073.326,13.057,13.057,0,0,0-.173,3.018v.092a1.6,1.6,0,0,0-.122.7h0a.461.461,0,0,0,.078.209.525.525,0,0,1,.078.323h0v.143a2.758,2.758,0,0,1-.151.561,1.888,1.888,0,0,0-.143.921h0a.325.325,0,0,0,.058.112.274.274,0,0,1,.032.119h0c.08.668-.126,3.616-.243,5.228-.049.637-.085,1.067-.085,1.067l-.34,3.521.034.022c.039.029.112.075.209.134h0l-.015.107c-.049.34-.114.729-.185,1.035a.645.645,0,0,0-.017.066.953.953,0,0,0-.365.146c-.729,1.283-.4,2.3,0,2.6a1.033,1.033,0,0,1,.243.605l.1,1.278v.148a.378.378,0,0,0,.019.117l.032.386.041.54h.328v-.615h.019c.52.019,1.356.041,1.723.012h.1a.188.188,0,0,0,.058-.017c.192-.092.676-1.458.243-1.769a2.007,2.007,0,0,1-.53-1.186c-.039-.117-.075-.226-.114-.331a.6.6,0,0,1,0-.066,5.465,5.465,0,0,1,.051-1.137,9.014,9.014,0,0,0,.114-1.359c0-.039,0-.075,0-.114v-.012a1.459,1.459,0,0,0,.221-.07h.017a1.569,1.569,0,0,0,.369-.219l1.2-5.385.126-.627.729-3.56s-.255-1.242,0-1.458c.095-.075.122-.394.114-.768a12.477,12.477,0,0,0-.114-1.458s.343-.537.515-.87a2.7,2.7,0,0,0,0-1.2l.343-1.988a18.779,18.779,0,0,1,1.332-4.353c.7-1.458.243-5.412-.2-7.517L98.348,115l.751-.365.1-.049c.352-.165.729-.335,1.06-.486h.022q.357-.155.729-.275a1.06,1.06,0,0,1,.226-.046C101.848,113.7,100.045,110.56,100.045,110.56ZM86.625,117.3H86.8c-.022.039-.041.078-.061.119a.624.624,0,0,0-.034.07,4,4,0,0,0-.175.411c.019-.148.044-.309.07-.486Zm-.486,2.586v-.015a.053.053,0,0,0-.017-.046l-.029-.095c.061-.019.124-.039.187-.063h0v.034c0,.012-.012.092-.017.139h0v.129c0,.036-.019.139-.027.207l-.058-.185c-.015-.044-.024-.078-.036-.109Z" transform="translate(-83.728 -88.549)" fill="url(#linear-gradient)"/>
        <path id="Path_561" data-name="Path 561" d="M94.783,94.589l-1.069.382-.389-.646c-.3-.486-.712-1.174-1.016-1.667-.537-.868.165-2.187.165-2.187a3.594,3.594,0,0,1,.578-1.735c.454-.413.578,1.735.578,1.735,1.815.824.843,2.766.843,2.766l.175.77Z" transform="translate(-79.495 -88.481)" fill="#be6f72"/>
        <path id="Path_562" data-name="Path 562" d="M94.375,92.812l-1.069.382-.389-.646v-.056a1.871,1.871,0,0,1,1.329-.262Z" transform="translate(-79.086 -86.704)" opacity="0.1"/>
        <path id="Path_563" data-name="Path 563" d="M92.736,97.115l.537-.454L93,92.573a1.7,1.7,0,0,1,2.416.547,10.528,10.528,0,0,0,0,1.157c.041.243-.289.486,0,.729s0,1.074,0,1.074a3.729,3.729,0,0,0,.532.744c.207.165.413,1.529,0,1.818s-1.2.95-1.2,1.239-.989.989-.989.989l-.872-1.152Z" transform="translate(-79.177 -86.662)" fill="#fff"/>
        <path id="Path_564" data-name="Path 564" d="M85.531,113.751c-2-.848-1.558-2.916-1.181-3.966a5.952,5.952,0,0,1,.265-.617l1.123-.683s.228.586.474,1.371C86.78,111.668,87.434,114.558,85.531,113.751Z" transform="translate(-83.577 -78.477)" fill="#be6f72"/>
        <path id="Path_565" data-name="Path 565" d="M87.732,124.736a3.365,3.365,0,0,0-.3.836,5.947,5.947,0,0,0-.124,1.422,5.423,5.423,0,0,0,.036.547l-2.231,1.533s.012-.18.034-.445a12.282,12.282,0,0,1,.292-2.173,3.645,3.645,0,0,0,.168-1.026c.034-.425.049-.819.049-.819S88.335,123.606,87.732,124.736Z" transform="translate(-83.027 -70.538)" fill="#be6f72"/>
        <path id="Path_566" data-name="Path 566" d="M91.084,125.366s0,.425-.015.923a9.478,9.478,0,0,1-.107,1.354,5.407,5.407,0,0,0-.051,1.132c.015.486.051.941.051.941s-2.277-2.151-2.046-2.321a1.077,1.077,0,0,0,.182-.486c.068-.3.131-.7.177-1.033.056-.4.09-.729.09-.729Z" transform="translate(-81.115 -70.06)" fill="#be6f72"/>
        <path id="Path_567" data-name="Path 567" d="M87.567,124.736a3.365,3.365,0,0,0-.3.836,18.006,18.006,0,0,1-1.825-.141c.034-.425.049-.819.049-.819S88.169,123.606,87.567,124.736Z" transform="translate(-82.862 -70.538)" opacity="0.1"/>
        <path id="Path_568" data-name="Path 568" d="M90.958,125.362s0,.425-.015.923a2.476,2.476,0,0,1-1.794-.4c.056-.4.09-.729.09-.729Z" transform="translate(-80.989 -70.056)" opacity="0.1"/>
        <path id="Path_569" data-name="Path 569" d="M97.776,114.242A19.24,19.24,0,0,0,96.5,118.58l-.331,1.981a2.806,2.806,0,0,1,0,1.2c-.165.331-.486.868-.486.868s.243,2.024,0,2.231,0,1.444,0,1.444l-.826,4.173L93.7,135.835c-1.116.909-2.6-.243-2.6-.243l.328-3.512s.486-6.153.289-6.4.083-1.03.083-1.03.289-.744.083-1.033.041-.909.041-.909a14.548,14.548,0,0,1,.165-3.1,23.017,23.017,0,0,0,0-4.156l-.1-1.113-.056-.617v-.061l-.1.632c-.182,1.164-.571,3.58-.729,4.078a5.137,5.137,0,0,1-.425,1.03s.216,1.239,0,1.57a.768.768,0,0,0-.032.7s.207,1.033-.413,1.458,0,.62,0,.62-.454.992-.62,1.4a1.82,1.82,0,0,0,0,.989l-.331,3.346a12.152,12.152,0,0,0-.243,2.355,20.762,20.762,0,0,1-.372,3.137s-3.179,0-3.67-.372.821-4.005.821-4.005.372-6.36.289-6.525a2.72,2.72,0,0,1,.289-1.653c.289-.248,0-.744,0-.744a6.074,6.074,0,0,1,0-1.239,4.484,4.484,0,0,0-.015-1.074s-.275-2.022-.316-3.179-.243-3.76-.243-3.76.214-1.606.243-2.374a2.758,2.758,0,0,1,.294-.972,8.883,8.883,0,0,1,.612-1.081s9.789-2.89,10.207-2.6a3.728,3.728,0,0,1,.423,1.346C98.016,108.859,98.444,112.784,97.776,114.242Z" transform="translate(-83.143 -80.043)" fill="#fff"/>
        <path id="Path_570" data-name="Path 570" d="M97.776,114.242A19.24,19.24,0,0,0,96.5,118.58l-.331,1.981a2.806,2.806,0,0,1,0,1.2c-.165.331-.486.868-.486.868s.243,2.024,0,2.231,0,1.444,0,1.444l-.826,4.173L93.7,135.835c-1.116.909-2.6-.243-2.6-.243l.328-3.512s.486-6.153.289-6.4.083-1.03.083-1.03.289-.744.083-1.033.041-.909.041-.909a14.548,14.548,0,0,1,.165-3.1,23.017,23.017,0,0,0,0-4.156l-.1-1.113-.056-.617v-.061l-.1.632c-.182,1.164-.571,3.58-.729,4.078a5.137,5.137,0,0,1-.425,1.03s.216,1.239,0,1.57a.768.768,0,0,0-.032.7s.207,1.033-.413,1.458,0,.62,0,.62-.454.992-.62,1.4a1.82,1.82,0,0,0,0,.989l-.331,3.346a12.152,12.152,0,0,0-.243,2.355,20.762,20.762,0,0,1-.372,3.137s-3.179,0-3.67-.372.821-4.005.821-4.005.372-6.36.289-6.525a2.72,2.72,0,0,1,.289-1.653c.289-.248,0-.744,0-.744a6.074,6.074,0,0,1,0-1.239,4.484,4.484,0,0,0-.015-1.074s-.275-2.022-.316-3.179-.243-3.76-.243-3.76.214-1.606.243-2.374a2.758,2.758,0,0,1,.294-.972,8.883,8.883,0,0,1,.612-1.081s9.789-2.89,10.207-2.6a3.728,3.728,0,0,1,.423,1.346C98.016,108.859,98.444,112.784,97.776,114.242Z" transform="translate(-83.143 -80.043)" opacity="0.15"/>
        <circle id="Ellipse_267" data-name="Ellipse 267" cx="2.851" cy="2.851" r="2.851" transform="translate(5.753 3.259)" fill="#a1616a"/>
        <path id="Path_571" data-name="Path 571" d="M97.1,106.752c-.328.168-.547.284-.547.284s-4.617,2.187-5.944,2.066c-1.018-.1-3.616-.044-4.746-.015a8.891,8.891,0,0,1,.612-1.081s9.789-2.89,10.207-2.6A4.26,4.26,0,0,1,97.1,106.752Z" transform="translate(-82.652 -80.043)" opacity="0.1"/>
        <path id="Path_572" data-name="Path 572" d="M90,95.873a14.84,14.84,0,0,0-3.261.826,3.4,3.4,0,0,0-1.859,2.89,16.443,16.443,0,0,1-.454,3.925c-.165.486,2.6,4.5,2.6,4.5l-.992,6.076s3.969-.124,5.288,0,5.944-2.066,5.944-2.066a21.671,21.671,0,0,1,3.3-1.485c.578-.041-1.157-3.181-1.157-3.181s-2.673-5.079-2.229-5.906a11.288,11.288,0,0,0,.785-2.024l-.486-4.212a1.621,1.621,0,0,0-1.363.207c-.62.454-2.727.207-2.727.207Z" transform="translate(-83.379 -85.214)" fill="#fff"/>
        <path id="Path_573" data-name="Path 573" d="M85.744,101.2l-1.033.289-.287,3.888s.369,1.033,0,1.363-.454,7.393-.454,7.393a2.7,2.7,0,0,0,2.6.207s-.207-.785.413-3.645a22.486,22.486,0,0,0,.615-4.28,22.837,22.837,0,0,1,.289-4.131,4.564,4.564,0,0,0,0-2.024s-.578-.785-.537-1.074S85.744,101.2,85.744,101.2Z" transform="translate(-83.605 -83.188)" opacity="0.1"/>
        <path id="Path_574" data-name="Path 574" d="M86.1,109.855a2.632,2.632,0,0,1-1.862-.071,5.957,5.957,0,0,1,.265-.617l1.123-.683S85.857,109.07,86.1,109.855Z" transform="translate(-83.468 -78.477)" opacity="0.1"/>
        <path id="Path_575" data-name="Path 575" d="M85.7,101.2l-1.033.289-.289,3.888s.372,1.033,0,1.363-.454,7.393-.454,7.393a2.7,2.7,0,0,0,2.6.207s-.207-.785.413-3.645a22.67,22.67,0,0,0,.617-4.28,22.837,22.837,0,0,1,.289-4.131,4.564,4.564,0,0,0,0-2.024s-.576-.785-.535-1.074S85.7,101.2,85.7,101.2Z" transform="translate(-83.627 -83.188)" fill="#fff"/>
        <path id="Path_576" data-name="Path 576" d="M92.839,100.926s-.537,4.618-2.107,5.492C90.744,106.419,94.244,105.427,92.839,100.926Z" transform="translate(-80.189 -82.296)" opacity="0.1"/>
        <path id="Path_577" data-name="Path 577" d="M86.891,101.2s1.944.95,1.487,1.609S86.891,101.2,86.891,101.2Z" transform="translate(-82.13 -82.157)" opacity="0.1"/>
        <path id="Path_578" data-name="Path 578" d="M86.891,102.462s1.239,1.281.992,1.735S86.891,102.462,86.891,102.462Z" transform="translate(-82.13 -81.52)" opacity="0.1"/>
        <path id="Path_579" data-name="Path 579" d="M93.532,95.411a4.346,4.346,0,0,1,.53,1.363C94.105,97.311,93.532,95.411,93.532,95.411Z" transform="translate(-78.775 -85.082)" opacity="0.1"/>
        <path id="Path_580" data-name="Path 580" d="M93.532,94.7s.243-.207.865,0S93.532,94.7,93.532,94.7Z" transform="translate(-78.775 -85.487)" opacity="0.1"/>
        <path id="Path_581" data-name="Path 581" d="M93.153,111.005a5.728,5.728,0,0,1-3.018-.386l-.522,1.332-.056-.617c.085-.518.243-1.072.578-1.215A5,5,0,0,0,93.153,111.005Z" transform="translate(-80.783 -77.652)" opacity="0.1"/>
        <path id="Path_582" data-name="Path 582" d="M86.319,111.86a18.189,18.189,0,0,0,3.252.433Z" transform="translate(-82.419 -76.772)" opacity="0.1"/>
        <path id="Path_583" data-name="Path 583" d="M86.494,112.3a5.274,5.274,0,0,1,1.626.17Z" transform="translate(-82.331 -76.55)" opacity="0.1"/>
        <path id="Path_584" data-name="Path 584" d="M86.576,112.6a9.479,9.479,0,0,0,1.5.2Z" transform="translate(-82.289 -76.398)" opacity="0.1"/>
        <path id="Path_585" data-name="Path 585" d="M86.542,116.476c.049-.032,2.17-.525,2.43-.17Z" transform="translate(-82.306 -74.59)" opacity="0.1"/>
        <path id="Path_586" data-name="Path 586" d="M86.542,116.841s1.845-.216,1.891,0S86.542,116.841,86.542,116.841Z" transform="translate(-82.306 -74.304)" opacity="0.1"/>
        <path id="Path_587" data-name="Path 587" d="M86.542,117.308A13.036,13.036,0,0,1,88.729,117,13.035,13.035,0,0,1,86.542,117.308Z" transform="translate(-82.306 -74.183)" opacity="0.1"/>
        <path id="Path_588" data-name="Path 588" d="M87.346,126.7l-2.231,1.533s.012-.18.034-.445a6.118,6.118,0,0,1,1.142-1.864.933.933,0,0,1,1.018.228A5.422,5.422,0,0,0,87.346,126.7Z" transform="translate(-83.027 -69.693)" opacity="0.1"/>
        <path id="Path_589" data-name="Path 589" d="M87.884,128.054a5.539,5.539,0,0,0-.464,2.277,3.512,3.512,0,0,1-.486,1.835,1.77,1.77,0,0,1-.156.224,4.427,4.427,0,0,1-2.092-.462.528.528,0,0,1-.143-.173c-.311-.62.6-2.989.6-2.989a6.578,6.578,0,0,1,1.458-2.8C88.348,125.514,87.884,128.054,87.884,128.054Z" transform="translate(-83.349 -69.674)" fill="#35323e"/>
        <path id="Path_590" data-name="Path 590" d="M86.872,131.2a1.77,1.77,0,0,1-.156.224,4.427,4.427,0,0,1-2.092-.462c.267-.882,1.118-3.553,1.516-3.1S86.782,130.336,86.872,131.2Z" transform="translate(-83.275 -68.712)" opacity="0.1"/>
        <path id="Path_591" data-name="Path 591" d="M86.011,128.032l-.107,4.005h.52a27.464,27.464,0,0,1,.316-4C86.974,127.545,86.011,128.032,86.011,128.032Z" transform="translate(-82.628 -68.711)" fill="#35323e"/>
        <path id="Path_592" data-name="Path 592" d="M90.962,129.124s-2.277-2.151-2.046-2.321a1.076,1.076,0,0,0,.182-.486c.437-.078,1.186.107,1.813,1.854C90.926,128.67,90.962,129.124,90.962,129.124Z" transform="translate(-81.115 -69.476)" opacity="0.1"/>
        <path id="Path_593" data-name="Path 593" d="M91.494,131.5a.316.316,0,0,1-.056.017,15.858,15.858,0,0,1-1.806,0,.391.391,0,0,1-.379-.389V130.6c-.027-.61-.1-1.337-.318-1.5-.386-.294-.7-1.308,0-2.586,0,0,1.332-1.016,2.292,2.039a2.034,2.034,0,0,0,.51,1.184C92.155,130.049,91.679,131.408,91.494,131.5Z" transform="translate(-81.306 -69.45)" fill="#35323e"/>
        <path id="Path_594" data-name="Path 594" d="M91.192,130.653a15.855,15.855,0,0,1-1.806,0,.391.391,0,0,1-.379-.389v-.525c.168-.729.408-1.5.729-1.674C89.715,128.062,90.655,127.955,91.192,130.653Z" transform="translate(-81.061 -68.586)" opacity="0.1"/>
        <path id="Path_595" data-name="Path 595" d="M73.525,113.4l.248,3.329h.318V113.12Z" transform="translate(-65.739 -54.015)" fill="#35323e"/>
        <path id="Path_596" data-name="Path 596" d="M91.316,89.59a5.681,5.681,0,0,0-2.542.817,1.054,1.054,0,0,0-.486.486,1.613,1.613,0,0,0-.039.593c.027,1.7-1.879,3-1.818,4.707.024.678.365,1.307.425,1.983a4.96,4.96,0,0,1-1.2,3.1,2.559,2.559,0,0,0,1.811-.6,13.724,13.724,0,0,1,.243,6.921h.914a.7.7,0,0,1,.267.034.634.634,0,0,1,.211.158,3.474,3.474,0,0,1,1.1,3.266l1.944-.729a5.833,5.833,0,0,0,1.344-.639,1.944,1.944,0,0,0,.829-1.2c.051-.3.036-.654.279-.826a1.576,1.576,0,0,1,.384-.141,1.672,1.672,0,0,0,.877-1.361,7.777,7.777,0,0,0,.124-2.071,11.058,11.058,0,0,1-.146-3.468,9.48,9.48,0,0,0,.544-1.883c.046-1.081-.8-2.015-.926-3.091-.088-.749.182-1.507.095-2.258a2.43,2.43,0,0,0-1.276-1.842c-.243-.124-.5-.207-.729-.34a13.15,13.15,0,0,1-1.371-1.264c-.489-.386-1.305-.532-1.672-.029Z" transform="translate(-82.754 -88.023)" opacity="0.1"/>
        <path id="Path_597" data-name="Path 597" d="M91.316,89.508a5.682,5.682,0,0,0-2.542.817,1.055,1.055,0,0,0-.486.486,1.613,1.613,0,0,0-.039.593c.027,1.7-1.879,3-1.818,4.707.024.678.365,1.31.425,1.983a4.955,4.955,0,0,1-1.2,3.1,2.559,2.559,0,0,0,1.82-.593,13.724,13.724,0,0,1,.243,6.921h.914a.7.7,0,0,1,.267.034.635.635,0,0,1,.211.158,3.474,3.474,0,0,1,1.1,3.266l1.944-.729a5.832,5.832,0,0,0,1.344-.639,1.944,1.944,0,0,0,.829-1.2c.051-.3.036-.654.279-.826a1.576,1.576,0,0,1,.384-.141,1.672,1.672,0,0,0,.877-1.361,7.776,7.776,0,0,0,.124-2.071,11.057,11.057,0,0,1-.146-3.468,9.721,9.721,0,0,0,.544-1.883c.046-1.081-.8-2.015-.926-3.091-.087-.748.182-1.507.095-2.258a2.43,2.43,0,0,0-1.276-1.842c-.243-.124-.5-.207-.729-.34a13.148,13.148,0,0,1-1.371-1.264c-.488-.386-1.305-.532-1.672-.029Z" transform="translate(-82.754 -88.064)" fill="#a26565"/>
        <g id="Group_29" data-name="Group 29" transform="translate(2.916 2.924)" opacity="0.1">
          <path id="Path_598" data-name="Path 598" d="M87.382,90.491v.114C87.38,90.569,87.382,90.53,87.382,90.491Z" transform="translate(-84.799 -90.491)"/>
          <path id="Path_599" data-name="Path 599" d="M92.174,93.659a10.473,10.473,0,0,0,.109-1.577A10.426,10.426,0,0,0,92.174,93.659Z" transform="translate(-82.377 -89.688)"/>
          <path id="Path_600" data-name="Path 600" d="M86.6,95.471c-.056-.615-.343-1.193-.411-1.8a2.229,2.229,0,0,0-.015.338c.024.671.357,1.3.423,1.964a2.43,2.43,0,0,0,0-.5Z" transform="translate(-85.408 -88.887)"/>
          <path id="Path_601" data-name="Path 601" d="M92.469,97.064a4.209,4.209,0,0,0-.1,1.232,3.809,3.809,0,0,1,.1-.715,9.722,9.722,0,0,0,.544-1.883,2.111,2.111,0,0,0-.017-.35A14.382,14.382,0,0,1,92.469,97.064Z" transform="translate(-82.284 -88.038)"/>
          <path id="Path_602" data-name="Path 602" d="M87.471,96.525a2.583,2.583,0,0,1-1.458.6c-.114.175-.243.35-.348.518a2.559,2.559,0,0,0,1.806-.588,13.712,13.712,0,0,1,.576,3.709,13.65,13.65,0,0,0-.576-4.236Z" transform="translate(-85.665 -87.443)"/>
          <path id="Path_603" data-name="Path 603" d="M94.348,100.583a1.672,1.672,0,0,1-.88,1.361,1.486,1.486,0,0,0-.384.143c-.243.173-.228.53-.28.824a1.944,1.944,0,0,1-.829,1.2,5.833,5.833,0,0,1-1.344.639l-1.854.7a2.537,2.537,0,0,1-.09.552l1.944-.729a5.834,5.834,0,0,0,1.344-.639,1.944,1.944,0,0,0,.829-1.2c.051-.3.036-.654.28-.826a1.578,1.578,0,0,1,.384-.141,1.679,1.679,0,0,0,.88-1.361,7.875,7.875,0,0,0,.139-1.755A8.135,8.135,0,0,1,94.348,100.583Z" transform="translate(-84.138 -86.018)"/>
          <path id="Path_604" data-name="Path 604" d="M88.425,101.313a.671.671,0,0,0-.211-.158.7.7,0,0,0-.267-.034h-.809c-.032.173-.066.345-.1.515h.914a.7.7,0,0,1,.267.034.635.635,0,0,1,.211.158,3.918,3.918,0,0,1,1.179,2.321A3.665,3.665,0,0,0,88.425,101.313Z" transform="translate(-84.974 -85.122)"/>
        </g>
        <path id="Path_605" data-name="Path 605" d="M84.947,103.542s.729-.311.9,0S84.947,103.542,84.947,103.542Z" transform="translate(-83.112 -81.044)" opacity="0.1"/>
        <path id="Path_606" data-name="Path 606" d="M85.116,103.89s.729-.311.9,0S85.116,103.89,85.116,103.89Z" transform="translate(-83.026 -80.868)" opacity="0.1"/>
      </g>
      <ellipse id="Ellipse_270" data-name="Ellipse 270" cx="8.214" cy="1.58" rx="8.214" ry="1.58" transform="translate(197.745 166.627)" fill="#fff"/>
      <ellipse id="Ellipse_271" data-name="Ellipse 271" cx="0.958" cy="1.252" rx="0.958" ry="1.252" transform="translate(204.863 166.284)" fill="#3f3d56"/>
      <ellipse id="Ellipse_272" data-name="Ellipse 272" cx="0.958" cy="1.252" rx="0.958" ry="1.252" transform="translate(204.863 164.753)" fill="#3f3d56"/>
      <ellipse id="Ellipse_273" data-name="Ellipse 273" cx="0.958" cy="1.252" rx="0.958" ry="1.252" transform="translate(204.863 163.222)" fill="#3f3d56"/>
      <ellipse id="Ellipse_274" data-name="Ellipse 274" cx="0.958" cy="1.252" rx="0.958" ry="1.252" transform="translate(204.863 161.694)" fill="#3f3d56"/>
      <ellipse id="Ellipse_275" data-name="Ellipse 275" cx="0.958" cy="1.252" rx="0.958" ry="1.252" transform="translate(204.863 160.163)" fill="#3f3d56"/>
      <ellipse id="Ellipse_276" data-name="Ellipse 276" cx="0.958" cy="1.252" rx="0.958" ry="1.252" transform="translate(204.863 158.631)" fill="#3f3d56"/>
      <ellipse id="Ellipse_277" data-name="Ellipse 277" cx="0.958" cy="1.252" rx="0.958" ry="1.252" transform="translate(204.863 157.103)" fill="#3f3d56"/>
      <path id="Path_657" data-name="Path 657" d="M157.244,115.427a5.116,5.116,0,0,0,.355-.525l-2.51-.413,2.717.019a4.574,4.574,0,0,0,.087-3.628l-3.645,1.891,3.363-2.472a4.581,4.581,0,1,0-7.568,5.128,4.757,4.757,0,0,0-.522.834l3.264,1.7-3.48-1.169a4.6,4.6,0,0,0,.729,4.3,4.581,4.581,0,1,0,7.2,0,4.586,4.586,0,0,0,0-5.665Z" transform="translate(52.158 32.455)" fill="#fff"/>
      <path id="Path_658" data-name="Path 658" d="M149.061,114.848a4.576,4.576,0,0,0,.972,2.834,4.581,4.581,0,1,0,7.2,0C157.857,116.9,149.061,114.332,149.061,114.848Z" transform="translate(52.158 35.866)" opacity="0.1"/>
    </g>
  </g>
</svg>
