<svg xmlns="http://www.w3.org/2000/svg" xmlns:xlink="http://www.w3.org/1999/xlink" version="1.1" x="0px" y="0px" viewBox="0 0 160 200" style="enable-background:new 0 0 160 160;" xml:space="preserve"><g><path d="M8.5,128.374c-1.381,0-2.5,1.119-2.5,2.5s1.119,2.5,2.5,2.5h47.234c1.098-1.58,2.052-3.251,2.843-5H8.5z"/><path d="M151.5,133.374c1.381,0,2.5-1.119,2.5-2.5s-1.119-2.5-2.5-2.5h-48.54c0.79,1.749,1.744,3.42,2.842,5H151.5z"/><circle cx="20.75" cy="31.917" r="2.25"/><circle cx="27.75" cy="31.917" r="2.25"/><circle cx="34.75" cy="31.917" r="2.25"/><path d="M44.083,47.605H20.75c-1.381,0-2.5,1.119-2.5,2.5s1.119,2.5,2.5,2.5h23.333c1.381,0,2.5-1.119,2.5-2.5   S45.464,47.605,44.083,47.605z"/><path d="M20.75,62.605h21.333c1.381,0,2.5-1.119,2.5-2.5s-1.119-2.5-2.5-2.5H20.75c-1.381,0-2.5,1.119-2.5,2.5   S19.369,62.605,20.75,62.605z"/><path d="M20.75,72.605h14.333c1.381,0,2.5-1.119,2.5-2.5s-1.119-2.5-2.5-2.5H20.75c-1.381,0-2.5,1.119-2.5,2.5   S19.369,72.605,20.75,72.605z"/><path d="M57.417,47.605c-1.381,0-2.5,1.119-2.5,2.5v47c0,1.381,1.119,2.5,2.5,2.5s2.5-1.119,2.5-2.5v-47   C59.917,48.724,58.797,47.605,57.417,47.605z"/><path d="M140.992,62.445l-32.371-15.248c-0.944-0.444-2.037-0.444-2.982-0.001L73.265,62.438c-1.227,0.578-2.009,1.812-2.009,3.167   s0.782,2.589,2.008,3.166l13.233,6.234l-0.002,21.843c0,1.933,1.567,3.5,3.5,3.5c0,0,0,0,0,0c1.933,0,3.5-1.566,3.5-3.5   l0.002-21.87l15.158-7.351c1.739-0.844,2.465-2.938,1.622-4.677c-0.844-1.738-2.936-2.464-4.677-1.622l-15.626,7.578l-7.004-3.299   l24.158-11.374l24.157,11.378l-8.518,4.01c-0.001,0-0.002,0.001-0.003,0.001l-15.638,7.363l-4.945-2.329l-5.186,2.515l0,2.78   l8.638,4.069c0.473,0.223,0.982,0.334,1.492,0.334c0.509,0,1.019-0.111,1.491-0.333l12.139-5.716l0,4.533l-13.628,6.41   l-10.132-4.765l-0.001,7.735l8.643,4.065c0.472,0.222,0.981,0.333,1.49,0.333s1.018-0.111,1.49-0.333l17.128-8.057   c1.227-0.577,2.01-1.811,2.01-3.167l0.001-10.05l13.235-6.232C142.217,68.2,143,66.966,143,65.611S142.218,63.022,140.992,62.445z"/><path d="M39.917,86.272h-15c-3.676,0-6.667,2.99-6.667,6.666s2.991,6.667,6.667,6.667h15c3.676,0,6.667-2.991,6.667-6.667   S43.593,86.272,39.917,86.272z M39.917,94.605h-15c-0.919,0-1.667-0.748-1.667-1.667s0.748-1.666,1.667-1.666h15   c0.919,0,1.667,0.747,1.667,1.666S40.835,94.605,39.917,94.605z"/><path d="M144.384,15.626H15.616C9.762,15.626,5,20.389,5,26.243v81.934c0,5.854,4.762,10.616,10.616,10.616h49.115   c-0.639,6.289-2.976,12.388-6.751,17.471l-1.875,2.522c-0.789,1.063-0.912,2.479-0.318,3.66s1.804,1.928,3.127,1.928h43.708   c1.323,0,2.533-0.746,3.127-1.928s0.472-2.598-0.317-3.659l-1.874-2.522c-3.776-5.083-6.113-11.182-6.752-17.472h47.579   c5.854,0,10.616-4.763,10.616-10.616V26.243C155,20.389,150.238,15.626,144.384,15.626z M95.868,137.374H65.668   c3.438-5.612,5.526-12.023,6.083-18.581h18.034C90.341,125.351,92.429,131.761,95.868,137.374z M148,108.176   c0,1.994-1.622,3.616-3.616,3.616H15.616c-1.994,0-3.616-1.622-3.616-3.616V26.243c0-1.994,1.622-3.616,3.616-3.616h128.768   c1.994,0,3.616,1.622,3.616,3.616V108.176z"/></g></svg>