<svg xmlns="http://www.w3.org/2000/svg" xmlns:xlink="http://www.w3.org/1999/xlink" version="1.1" x="0px" y="0px" viewBox="0 0 64 80" style="enable-background:new 0 0 64 64;" xml:space="preserve"><rect x="2" y="2" width="2" height="2"/><rect x="6" y="2" width="2" height="2"/><rect x="8" y="10" width="2" height="2"/><rect x="12" y="10" width="2" height="2"/><rect x="10" y="6" width="3" height="2"/><rect x="10" y="2" width="5" height="2"/><rect x="2" y="6" width="6" height="2"/><rect x="2" y="10" width="4" height="2"/><rect x="9" y="28" width="2" height="2"/><rect x="7" y="20" width="2" height="2"/><rect x="3" y="20" width="2" height="2"/><rect x="4" y="24" width="3" height="2"/><rect x="2" y="28" width="5" height="2"/><rect x="9" y="24" width="3" height="2"/><rect x="11" y="20" width="3" height="2"/><rect x="49" y="2" width="2" height="2"/><rect x="53" y="2" width="2" height="2"/><rect x="56" y="10" width="2" height="2"/><rect x="60" y="10" width="2" height="2"/><rect x="57" y="6" width="3" height="2"/><rect x="57" y="2" width="5" height="2"/><rect x="49" y="6" width="6" height="2"/><rect x="51" y="10" width="3" height="2"/><rect x="60" y="28" width="2" height="2"/><rect x="55" y="20" width="2" height="2"/><rect x="51" y="20" width="2" height="2"/><rect x="52" y="24" width="3" height="2"/><rect x="53" y="28" width="5" height="2"/><rect x="57" y="24" width="3" height="2"/><rect x="59" y="20" width="3" height="2"/><rect x="2" y="39" width="2" height="2"/><rect x="6" y="39" width="2" height="2"/><rect x="8" y="47" width="2" height="2"/><rect x="15" y="43" width="2" height="2"/><rect x="10" y="43" width="3" height="2"/><rect x="10" y="39" width="5" height="2"/><rect x="2" y="43" width="6" height="2"/><rect x="2" y="47" width="4" height="2"/><path d="M61,41H51c-0.277,0-0.527,0.113-0.708,0.294l-5.997,5.997c-0.174,0.173-0.279,0.412-0.288,0.675L40,46.328v-4.914  l5.707-5.707C45.895,35.52,46,35.266,46,35v-3.051c2.244-0.252,4-2.139,4-4.449c0-1.914-1.207-3.542-2.895-4.191l0.602-0.602  C47.895,22.52,48,22.266,48,22v-7c0-4.963-4.037-9-9-9h-0.08C37.5,3.551,34.851,2,32,2h-7c-0.553,0-1,0.447-1,1  c0,1.042,0.2,2.06,0.588,3.01C19.816,6.226,16,10.176,16,15v7c0,0.266,0.105,0.52,0.293,0.707l0.602,0.602  C15.207,23.958,14,25.586,14,27.5c0,2.31,1.756,4.197,4,4.449V35c0,0.266,0.105,0.52,0.293,0.707L24,41.414v4.914L2.621,55.074  C2.245,55.229,2,55.594,2,56v5c0,0.553,0.447,1,1,1h42h16c0.553,0,1-0.447,1-1V42C62,41.447,61.553,41,61,41z M48,27.5  c0,1.207-0.86,2.218-2,2.45v-4.9C47.14,25.282,48,26.293,48,27.5z M18,29.95c-1.14-0.232-2-1.243-2-2.45s0.86-2.218,2-2.45V29.95z   M18,21.586V15c0-3.859,3.141-7,7-7h1.26c0.373,0,0.714-0.207,0.887-0.537c0.172-0.331,0.146-0.729-0.066-1.035  C26.567,5.693,26.23,4.868,26.084,4H32c2.298,0,4.424,1.346,5.414,3.43C37.58,7.778,37.932,8,38.317,8H39c3.859,0,7,3.141,7,7v6.586  l-1,1l-1-1V15c0-0.281-0.118-0.549-0.325-0.738c-0.208-0.189-0.486-0.285-0.766-0.258L32,14.996l-10.909-0.992  c-0.278-0.026-0.557,0.068-0.766,0.258C20.118,14.451,20,14.719,20,15v6.586l-1,1L18,21.586z M20,34.586V31v-6.586l1.707-1.707  C21.895,22.52,22,22.266,22,22v-5.905l9.909,0.901c0.061,0.006,0.121,0.006,0.182,0L42,16.095V22c0,0.266,0.105,0.52,0.293,0.707  L44,24.414V31v3.586L35.586,43h-7.172L20,34.586z M38,43.414v3.071l-6,4.286l-6-4.286v-3.071l1.293,1.293  C27.48,44.895,27.734,45,28,45h8c0.266,0,0.52-0.105,0.707-0.293L38,43.414z M44,60H4v-3.329l20.868-8.536l6.551,4.679  C31.593,52.938,31.796,53,32,53s0.407-0.062,0.581-0.187l6.551-4.679L44,50.126V60z M50,44.414V47h-2.586L50,44.414z M60,60H46  V49.454V49h5c0.553,0,1-0.447,1-1v-5h8V60z"/><rect x="48" y="51" width="2" height="2"/><rect x="52" y="51" width="2" height="2"/><rect x="56" y="51" width="2" height="2"/><rect x="48" y="55" width="4" height="2"/><rect x="54" y="55" width="4" height="2"/><rect x="54" y="47" width="4" height="2"/><rect x="31" y="55" width="2" height="2"/><path d="M25.414,27l2.293-2.293l-1.414-1.414l-3,3c-0.391,0.391-0.391,1.023,0,1.414l3,3l1.414-1.414L25.414,27z"/><path d="M37.707,30.707l3-3c0.391-0.391,0.391-1.023,0-1.414l-3-3l-1.414,1.414L38.586,27l-2.293,2.293L37.707,30.707z"/><rect x="27.528" y="26" transform="matrix(0.4472 -0.8944 0.8944 0.4472 -6.4604 43.5469)" width="8.944" height="2"/><rect x="31" y="34" width="2" height="2"/><rect x="35" y="34" width="2" height="2"/><rect x="27" y="34" width="2" height="2"/><text x="0" y="79" fill="#000000" font-size="5px" font-weight="bold" font-family="'Helvetica Neue', Helvetica, Arial-Unicode, Arial, Sans-serif">Created by Becris</text><text x="0" y="84" fill="#000000" font-size="5px" font-weight="bold" font-family="'Helvetica Neue', Helvetica, Arial-Unicode, Arial, Sans-serif">from the Noun Project</text></svg>