<svg version="1.1" x="0px" y="0px" viewBox="0 0 64 80"  style="enable-background:new 0 0 64 64;" xml:space="preserve"><path d="M23.7,14.7c0.3-0.8,0.9-1.6,1.7-2.4c-0.7-0.8-1.2-1.8-1.6-2.8c-0.9,0.9-1.3,2.2-0.9,3.5L23.7,14.7z" /><path d="M29.9,13.4c1.1,0.6,2.5,0.3,3.4-0.6c1.1-1.1,2.6-1.5,4.1-1.1c1.4,0.4,2.5,1.5,2.9,2.9l0.9-1.7c0.9-3.9-1.6-4.4-2.6-4.4  c-0.5,0-1-0.5-1-1c0-1.3,1.4-1,1.4-1c-0.4-2.3-2.4-2.1-3.1-1.8C29.8,7.5,25,3.4,25,3.4v2C25,8.8,26.9,11.9,29.9,13.4z"/><path d="M39,19.6v-1.9l-0.6-2.4c-1-2.5-3.1-1.6-3.7-1c-1.5,1.6-4.4,2.6-8-0.6C25,15.4,25,17.5,25,17.6v2c0,3.9,3.1,7,7,7  S39,23.4,39,19.6z"/><path d="M29,28v3.1c1.7,1.5,4.3,1.5,6,0V28C31.8,29,29.9,28.4,29,28z"/><path d="M41.5,33.5l-5.2-0.9c-1.2,1-2.8,1.6-4.3,1.6s-3.1-0.5-4.3-1.6l-5.2,0.9C20.6,33.8,19,35,18,36.6h28  C45,35,43.4,33.8,41.5,33.5z"/><path d="M49.1,56.6l1.6-16.1c0-0.5,0-1.9-1.7-1.9H15c-1.7,0-1.8,1.4-1.7,1.9l1.6,16.1H49.1z M18,51.5l0.2,2c0,0.6-0.4,1-0.9,1.1  c0,0-1,0.1-1.1-0.9l-0.2-2c0-0.6,0.4-1,0.9-1.1C17.5,50.5,18,50.9,18,51.5z M16,40.6c0.6-0.1,1,0.4,1.1,0.9l0.6,6  c0,0.6-0.4,1-0.9,1.1c0,0-1,0.2-1.1-0.9l-0.6-6C15,41.1,15.5,40.6,16,40.6z"/><path d="M13.2,58.6c0.4,1.2,1.5,2,2.8,2h32c1.3,0,2.4-0.8,2.8-2H13.2z"/></svg>