<svg xmlns="http://www.w3.org/2000/svg" data-name="Layer 3" viewBox="0 0 64 80" x="0px" y="0px"><path d="M60,39H59V4a3,3,0,0,0-3-3H8A3,3,0,0,0,5,4V39H4a3,3,0,0,0-3,3v2a5.005,5.005,0,0,0,5,5h5.018A12.368,12.368,0,0,0,5,59.586V62a1,1,0,0,0,1,1H58a1,1,0,0,0,1-1V59.586A12.368,12.368,0,0,0,52.981,49H58a5.005,5.005,0,0,0,5-5V42A3,3,0,0,0,60,39ZM7,4A1,1,0,0,1,8,3H56a1,1,0,0,1,1,1V39H55V6a1,1,0,0,0-1-1H10A1,1,0,0,0,9,6V39H7ZM29,44.355V42.232a6.268,6.268,0,0,0,6,.005v2.118A7.994,7.994,0,0,1,29,44.355Zm7.837-6.087L34.87,39.944a4.531,4.531,0,0,1-5.742-.009l-1.986-1.7A8.992,8.992,0,0,1,24,31.4V24.5l1.459-1.095A7.072,7.072,0,0,1,29.675,22a8.968,8.968,0,0,0,6.383-2.644l.1-.1,1.418.851A5.023,5.023,0,0,1,40,24.4l0,7.019A8.986,8.986,0,0,1,36.837,38.268ZM11,15h8.942a8.567,8.567,0,0,0,.28,8.315L21.234,25H21a3,3,0,1,0,0,6h1v.4a11.013,11.013,0,0,0,.609,3.6H11ZM22,29H21a1,1,0,1,1,0-2h1Zm.459-5.844-.522-.87a6.581,6.581,0,0,1,1.818-8.739A13.594,13.594,0,0,1,31.7,11h.6a13.593,13.593,0,0,1,7.946,2.546,6.578,6.578,0,0,1,1.818,8.739l-.272.452A7.029,7.029,0,0,0,38.6,18.4l-2.088-1.253a1,1,0,0,0-1.222.15l-.649.649A6.976,6.976,0,0,1,29.675,20a9.086,9.086,0,0,0-5.416,1.8ZM42,27h1a1,1,0,1,1,0,2H42Zm0,4h1a3,3,0,1,0,0-6h-.235l1.011-1.686A8.56,8.56,0,0,0,44.058,15H53V35H41.4a11,11,0,0,0,.6-3.585ZM53,13H42.627a8.511,8.511,0,0,0-1.22-1.082A15.59,15.59,0,0,0,32.3,9h-.6a15.591,15.591,0,0,0-9.11,2.918A8.511,8.511,0,0,0,21.372,13H11V7H53ZM11,37H23.532a11,11,0,0,0,1.521,2H11Zm29.477,0H53v2H38.967A10.97,10.97,0,0,0,40.477,37ZM3,44V42a1,1,0,0,1,1-1H27v3.231L16.621,47H6A3,3,0,0,1,3,44ZM7,59.586a10.355,10.355,0,0,1,7.683-10l13.243-3.531A9.892,9.892,0,0,0,31,46.881V61H20V56H18v5H7Zm50,0V61H46V56H44v5H33V46.881a9.892,9.892,0,0,0,3.074-.827l13.243,3.531a10.353,10.353,0,0,1,7.684,10ZM61,44a3,3,0,0,1-3,3H47.378L37,44.231V41H60a1,1,0,0,1,1,1Z"/><path d="M36.5,51A1.5,1.5,0,1,0,38,52.5,1.5,1.5,0,0,0,36.5,51Z"/><path d="M36.5,56A1.5,1.5,0,1,0,38,57.5,1.5,1.5,0,0,0,36.5,56Z"/><rect x="13" y="9" width="2" height="2"/><rect x="17" y="9" width="2" height="2"/><rect x="45" y="9" width="2" height="2"/><rect x="49" y="9" width="2" height="2"/></svg>