<svg xmlns="http://www.w3.org/2000/svg" xmlns:xlink="http://www.w3.org/1999/xlink" xml:space="preserve" version="1.1" style="shape-rendering:geometricPrecision;text-rendering:geometricPrecision;image-rendering:optimizeQuality;" viewBox="0 0 846.66 1058.325" x="0px" y="0px" fill-rule="evenodd" clip-rule="evenodd"><defs><style type="text/css">
   
   
  </style></defs><g><path class="fil0" d="M226 798.87l394.66 0 0 20.92 -394.66 0 0 -20.92zm197.33 -229.33c49.42,0 89.49,40.07 89.49,89.49 0,49.43 -40.07,89.49 -89.49,89.49 -49.42,0 -89.49,-40.06 -89.49,-89.49 0,-49.42 40.07,-89.49 89.49,-89.49zm34.1 53.18l36.31 36.31 -36.31 36.31 -10.52 -10.52 25.8 -25.79 -25.8 -25.79 10.52 -10.52zm-57.68 10.52l-25.79 25.79 25.79 25.79 -10.51 10.52 -36.31 -36.31 36.31 -36.31 10.51 10.52zm45.26 -9.33l-29.52 75.66 -13.84 -5.4 29.53 -75.66 13.83 5.4zm110.06 -342.93l-16 0c-0.36,38.88 -20.14,73.32 -50.04,94.08l13.88 23.78 -75.65 53.72 52.44 64.25 55.79 -105.81c87.92,2.41 159.1,75.06 159.1,163.53l0 112.98 -61.83 0 -22.77 102.27 -373.34 0 -22.76 -102.27 -61.82 0 0 -112.98c0,-88.47 71.18,-161.12 159.1,-163.53l55.79 105.81 52.44 -64.25 -75.65 -53.72 13.87 -23.78c-29.84,-20.74 -49.5,-55.14 -50.03,-94.08l-16 0c-28.88,0 -42.94,-35 -22.79,-55.14l1.53 -101.4c0.42,-28.2 79.99,-78.86 105.41,-86.68 41.94,-12.89 174.65,-11.76 171.56,-9.41 -18.69,14.26 -25.86,29.88 -19.92,46.97 3.71,10.68 36.25,18.24 45.58,29.18 12.18,14.28 8.69,101.52 8.96,125.21 14.98,18.44 -0.18,51.27 -26.85,51.27zm62.07 267.16l-387.62 0c-12.17,0 -22.21,9.67 -22.62,21.81l44.89 200.84 343.08 0 44.89 -200.84c-0.41,-12.14 -10.45,-21.81 -22.62,-21.81z"/></g></svg>