<svg xmlns="http://www.w3.org/2000/svg" xmlns:xlink="http://www.w3.org/1999/xlink" width="44.992" height="40.493" viewBox="0 0 44.992 40.493"><defs><style>.a{fill:#0df243;stroke:#707070;}.b{clip-path:url(#a);}.c,.e{fill:none;stroke-linecap:round;stroke-linejoin:round;stroke-width:3.551px;}.c,.d{stroke:#4bb543;}.d{fill:#4bb543;stroke-width:0.111px;}.e{stroke:#000;}</style><clipPath id="a"><rect class="a" width="44.992" height="40.493"/></clipPath></defs><g class="b"><g transform="translate(2.861 1.321)"><path class="c" d="M4.146,3.551H14.294a1.194,1.194,0,0,1,.842.347L35.424,24.181a2.382,2.382,0,0,1,0,3.36L25.765,37.2a2.382,2.382,0,0,1-3.361,0L10.831,25.63,2.122,16.925a1.194,1.194,0,0,1-.347-.842V5.929a2.366,2.366,0,0,1,2.37-2.378Z" transform="translate(3.508 -3.551)"/><path class="d" d="M38.151,14.161a2.642,2.642,0,1,0-2.642-2.642A2.642,2.642,0,0,0,38.151,14.161Z" transform="translate(-26.264 -4.915)"/><path class="e" d="M47.482,41.9,25.853,20.27a1.14,1.14,0,0,1-.33-.826V8.877" transform="translate(-25.523 -4.915)"/></g></g></svg>