<svg xmlns="http://www.w3.org/2000/svg" xmlns:xlink="http://www.w3.org/1999/xlink" width="31" height="28" viewBox="0 0 31 28"><defs><clipPath id="a"><rect width="28" height="31" transform="translate(0 0)" fill="none" stroke="rgba(3,3,3,0.79)" stroke-width="1"/></clipPath></defs><g transform="translate(31) rotate(90)" clip-path="url(#a)"><path d="M0,26a1,1,0,0,1-.59-.193,1,1,0,0,1-.216-1.4L7.915,12.5-.807.591a1,1,0,0,1,.216-1.4,1,1,0,0,1,1.4.216l9.155,12.5a1,1,0,0,1,0,1.182L.807,25.592A1,1,0,0,1,0,26Z" transform="translate(9.828 3.188)" fill="rgba(3,3,3,0.79)"/></g></svg>