<svg xmlns="http://www.w3.org/2000/svg" xmlns:xlink="http://www.w3.org/1999/xlink" width="29.628" height="26.666" viewBox="0 0 29.628 26.666">
  <defs>
    <clipPath id="clip-path">
      <rect id="Rectangle_132" data-name="Rectangle 132" width="29.628" height="26.666" fill="#7209b7" stroke="#7209b7" stroke-width="1"/>
    </clipPath>
  </defs>
  <g id="Mask_Group_7" data-name="Mask Group 7" clip-path="url(#clip-path)">
    <g id="pricetags-outline" transform="translate(1.884 0.87)">
      <path id="Path_159" data-name="Path 159" d="M3.334,2.3h6.686a2.024,2.024,0,0,1,1.435.591l13.363,13.36a2.825,2.825,0,0,1,0,3.978l-6.363,6.363a2.819,2.819,0,0,1-3.979,0L1.12,13.242A2.026,2.026,0,0,1,.525,11.8V5.12A2.808,2.808,0,0,1,3.334,2.3ZM9.828,4.8H3.334a.308.308,0,0,0-.308.31s0,0,0,.006v6.5L16.244,24.826a.319.319,0,0,0,.448,0l6.358-6.358a.318.318,0,0,0,0-.447Z" transform="translate(1.704 -3.551)" fill="#7209b7"/>
      <path id="Path_160" data-name="Path 160" d="M37.249,12.357a1.74,1.74,0,1,0-1.74-1.74A1.74,1.74,0,0,0,37.249,12.357Z" transform="translate(-29.421 -6.268)" fill="rgba(154,61,214,0.72)"/>
      <path id="Path_160_-_Outline" data-name="Path 160 - Outline" d="M37.249,12.412a1.8,1.8,0,1,1,1.8-1.8A1.8,1.8,0,0,1,37.249,12.412Zm0-3.479a1.684,1.684,0,1,0,1.684,1.684A1.686,1.686,0,0,0,37.249,8.933Z" transform="translate(-29.421 -6.268)" fill="#4bb543"/>
      <path id="Path_161" data-name="Path 161" d="M39.983,31.873a1.246,1.246,0,0,1-.884-.366L24.856,17.264l0,0a2.012,2.012,0,0,1-.58-1.433V8.877a1.25,1.25,0,0,1,2.5,0v6.767L40.867,29.739a1.25,1.25,0,0,1-.884,2.134Z" transform="translate(-25.523 -6.268)"/>
    </g>
  </g>
</svg>
