<svg xmlns="http://www.w3.org/2000/svg" viewBox="0 0 100 125" x="0px" y="0px"><title>Blogging</title><g data-name="Iconos"><path d="M74.75,40.51H51.2A1.5,1.5,0,0,0,49.7,42V61.47A1.5,1.5,0,0,0,51.2,63H74.75a1.5,1.5,0,0,0,1.5-1.5V42A1.5,1.5,0,0,0,74.75,40.51ZM73.25,60H52.7V43.51H73.25Z"/><path d="M74.75,34H26.25a1.5,1.5,0,0,0,0,3h48.5a1.5,1.5,0,0,0,0-3Z"/><path d="M44.49,60H26.25a1.5,1.5,0,0,0,0,3H44.49a1.5,1.5,0,1,0,0-3Z"/><path d="M44.49,40.51H26.25a1.5,1.5,0,1,0,0,3H44.49a1.5,1.5,0,0,0,0-3Z"/><path d="M44.49,47H26.25a1.5,1.5,0,0,0,0,3H44.49a1.5,1.5,0,0,0,0-3Z"/><path d="M44.49,53.48H26.25a1.5,1.5,0,1,0,0,3H44.49a1.5,1.5,0,0,0,0-3Z"/><path d="M82.19,11.08H18.81a6.68,6.68,0,0,0-6.68,6.67V68.67a6.68,6.68,0,0,0,6.68,6.67H52V88.41a1.5,1.5,0,0,0,1.49,1.5,1.56,1.56,0,0,0,1-.36L71.16,75.34h11a6.68,6.68,0,0,0,6.68-6.67V17.75A6.68,6.68,0,0,0,82.19,11.08Zm-63.38,3H82.19a3.68,3.68,0,0,1,3.68,3.67v5.34H15.13V17.75A3.68,3.68,0,0,1,18.81,14.08ZM82.19,72.34H70.37l-.13,0-.15,0-.13,0-.13.07-.13.09-.06,0L55,85.16V73.84a1.5,1.5,0,0,0-1.5-1.5H18.81a3.68,3.68,0,0,1-3.68-3.67V26.09H85.87V68.67A3.68,3.68,0,0,1,82.19,72.34Z"/></g><g data-name="Puntos"><path d="M31,20.54a1.76,1.76,0,1,1,1.76-1.76A1.75,1.75,0,0,1,31,20.54"/><path d="M25.5,20.54a1.76,1.76,0,1,1,1.76-1.76,1.76,1.76,0,0,1-1.76,1.76"/><path d="M20,20.54a1.76,1.76,0,1,1,1.76-1.76A1.76,1.76,0,0,1,20,20.54"/></g></svg>