<svg xmlns="http://www.w3.org/2000/svg" xmlns:xlink="http://www.w3.org/1999/xlink" version="1.1" x="0px" y="0px" viewBox="0 0 512 640" style="enable-background:new 0 0 512 512;" xml:space="preserve"><g><path d="M114.6,253.4h131.3c4.1,0,7.5-3.4,7.5-7.5v-80.8c0-4.1-3.4-7.5-7.5-7.5H114.6c-4.1,0-7.5,3.4-7.5,7.5v80.8   C107.1,250,110.4,253.4,114.6,253.4z M122.1,172.6h116.3v65.8H122.1V172.6z"/><path d="M336.8,253.4c4.1,0,7.5-3.4,7.5-7.5c0-4.1-3.4-7.5-7.5-7.5h-60.6c-4.1,0-7.5,3.4-7.5,7.5c0,4.1,3.4,7.5,7.5,7.5H336.8z"/><path d="M397.4,157.6H276.2c-4.1,0-7.5,3.4-7.5,7.5c0,4.1,3.4,7.5,7.5,7.5h121.2c4.1,0,7.5-3.4,7.5-7.5   C404.9,160.9,401.6,157.6,397.4,157.6z"/><path d="M397.4,212.1H276.2c-4.1,0-7.5,3.4-7.5,7.5c0,4.1,3.4,7.5,7.5,7.5h121.2c4.1,0,7.5-3.4,7.5-7.5   C404.9,215.5,401.6,212.1,397.4,212.1z"/><path d="M397.4,183.8H276.2c-4.1,0-7.5,3.4-7.5,7.5c0,4.1,3.4,7.5,7.5,7.5h121.2c4.1,0,7.5-3.4,7.5-7.5   C404.9,187.2,401.6,183.8,397.4,183.8z"/><path d="M336.8,354.6H114.6c-4.1,0-7.5,3.4-7.5,7.5c0,4.1,3.4,7.5,7.5,7.5h222.2c4.1,0,7.5-3.4,7.5-7.5   C344.3,357.9,341,354.6,336.8,354.6z"/><path d="M397.4,273.8H165.1c-4.1,0-7.5,3.4-7.5,7.5c0,4.1,3.4,7.5,7.5,7.5h232.3c4.1,0,7.5-3.4,7.5-7.5   C404.9,277.1,401.6,273.8,397.4,273.8z"/><path d="M397.4,328.3H114.6c-4.1,0-7.5,3.4-7.5,7.5c0,4.1,3.4,7.5,7.5,7.5h282.8c4.1,0,7.5-3.4,7.5-7.5   C404.9,331.7,401.6,328.3,397.4,328.3z"/><path d="M397.4,300H114.6c-4.1,0-7.5,3.4-7.5,7.5c0,4.1,3.4,7.5,7.5,7.5h282.8c4.1,0,7.5-3.4,7.5-7.5   C404.9,303.4,401.6,300,397.4,300z"/><path d="M397.4,90.9H114.6c-4.1,0-7.5,3.4-7.5,7.5v40.4c0,4.1,3.4,7.5,7.5,7.5h282.8c4.1,0,7.5-3.4,7.5-7.5V98.4   C404.9,94.3,401.6,90.9,397.4,90.9z M389.9,131.3H122.1v-25.4h267.8V131.3z"/><path d="M484.3,0H27.7C12.4,0,0,12.4,0,27.7v338.4v10.4v16.9c0,15.3,12.4,27.7,27.7,27.7h456.6c15.3,0,27.7-12.4,27.7-27.7V165.5   v-40.8v-97C512,12.4,499.6,0,484.3,0z M15,27.7c0-7,5.7-12.7,12.7-12.7h456.6c7,0,12.7,5.7,12.7,12.7v32.9H15V27.7z M497,393.4   c0,7-5.7,12.7-12.7,12.7H27.7c-7,0-12.7-5.7-12.7-12.7v-16.9v-10.4V75.6h482v49.1v40.8V393.4z"/><path d="M466.2,30.3H451c-4.1,0-7.5,3.4-7.5,7.5c0,4.1,3.4,7.5,7.5,7.5h15.2c4.1,0,7.5-3.4,7.5-7.5   C473.7,33.7,470.3,30.3,466.2,30.3z"/><path d="M424.8,30.3h-15.2c-4.1,0-7.5,3.4-7.5,7.5c0,4.1,3.4,7.5,7.5,7.5h15.2c4.1,0,7.5-3.4,7.5-7.5   C432.3,33.7,428.9,30.3,424.8,30.3z"/><path d="M383.4,30.3h-15.2c-4.1,0-7.5,3.4-7.5,7.5c0,4.1,3.4,7.5,7.5,7.5h15.2c4.1,0,7.5-3.4,7.5-7.5   C390.9,33.7,387.5,30.3,383.4,30.3z"/><path d="M463.1,446.5H221.9h-43.2H99.4c-0.7,0-2.1,0.1-3.4,0.8l-50.5,25.3c-2.5,1.3-4.1,3.9-4.1,6.7s1.6,5.4,4.1,6.7l50.5,25.3   c1,0.4,1.6,0.8,3.4,0.8h363.7c4.1,0,7.5-3.4,7.5-7.5V454C470.6,449.8,467.2,446.5,463.1,446.5z M91.9,492.4l-26.2-13.1l26.2-13.1   V492.4z M413.2,497H106.9v-10.3h306.2V497z M413.2,471.7H106.9v-10.3h71.8h43.2h191.2V471.7z M455.6,497h-27.4v-35.5h27.4V497z"/><path d="M436.8,90.9c-11.4,0-20.6,9.3-20.6,20.6v237.4c0,11.4,9.3,20.6,20.6,20.6c11.4,0,20.6-9.3,20.6-20.6V111.5   C457.5,100.2,448.2,90.9,436.8,90.9z M442.5,348.9c0,3.1-2.5,5.6-5.6,5.6c-3.1,0-5.6-2.5-5.6-5.6V144.5c1.8,0.5,3.7,0.8,5.6,0.8   c2,0,3.8-0.3,5.6-0.8V348.9z M442.5,124.7c0,3.1-2.5,5.6-5.6,5.6c-3.1,0-5.6-2.5-5.6-5.6v-13.1c0-3.1,2.5-5.6,5.6-5.6   c3.1,0,5.6,2.5,5.6,5.6V124.7z"/></g></svg>